<?xml version="1.0" encoding="utf-8"?>
<!-- Generator: Adobe Illustrator 27.0.1, SVG Export Plug-In . SVG Version: 6.00 Build 0)  -->
<svg version="1.1" id="Capa_1" xmlns="http://www.w3.org/2000/svg" xmlns:xlink="http://www.w3.org/1999/xlink" x="0px" y="0px"
	 viewBox="0 0 1080 1080" style="enable-background:new 0 0 1080 1080;" xml:space="preserve">
<style type="text/css">
	.st0{fill:url(#SVGID_1_);}
	.st1{fill:none;stroke:#FFFFFF;stroke-width:3;stroke-miterlimit:10;}
	.st2{display:none;}
	.st3{display:inline;}
	.st4{fill:#FFFFFF;}
	.st5{fill:none;}
	.st6{enable-background:new    ;}
</style>
<g id="Capa_1_00000047746146127166173490000014897892785311581081_">
	
		<linearGradient id="SVGID_1_" gradientUnits="userSpaceOnUse" x1="2.499998e-02" y1="2215.95" x2="1080.075" y2="2215.95" gradientTransform="matrix(1 0 0 1 0 -1676)">
		<stop  offset="0" style="stop-color:#E25B19"/>
		<stop  offset="1" style="stop-color:#F6A312"/>
	</linearGradient>
	<path class="st0" d="M793.1,67.8H286.9c-12.1,0-23.3,6.4-29.3,16.9L4.6,523.1c-6.1,10.5-6.1,23.4,0,33.8l253.1,438.3
		c6.1,10.5,17.2,16.9,29.3,16.9h506.1c12.1,0,23.3-6.4,29.3-16.9l253.1-438.3c6.1-10.5,6.1-23.4,0-33.8L822.4,84.8
		C816.4,74.2,805.1,67.8,793.1,67.8z"/>
	<path class="st1" d="M781.6,88.5H299.3c-12.1,0-23.3,6.4-29.3,16.9L28.8,523.1c-6.1,10.5-6.1,23.4,0,33.8l241.1,417.6
		c6.1,10.5,17.2,16.9,29.3,16.9h482.3c12.1,0,23.3-6.4,29.3-16.9l241.1-417.6c6.1-10.5,6.1-23.4,0-33.8l-241-417.6
		C804.8,94.9,793.7,88.5,781.6,88.5z"/>
</g>
<g id="LEASING" class="st2">
	<g class="st3">
		<path class="st4" d="M203,579.5v29.3h-93.4V471.2h35v108.4H203V579.5z"/>
		<path class="st4" d="M254.8,498.7V526h65.7v27.5h-65.7v27.7h74.9v27.5h-110V471.2h107.8v27.5H254.8z"/>
		<path class="st4" d="M383.7,583.5l-10,25.4h-36L397,471.2h36l58,137.7h-37.4l-9.8-25.4H383.7z M414,506l-20.1,50.9h39.7L414,506z"
			/>
		<path class="st4" d="M610.5,484.9l-13.2,27.3c-14.5-8.5-32.8-14.4-44.1-14.4c-9,0-15.1,3.3-15.1,10c0,23.8,72.8,10.2,72.8,60
			c0,27.5-24.4,42.1-55.1,42.1c-23,0-46.6-8.6-62.9-22l13.6-26.9c14.2,12.4,35.4,20.7,49.8,20.7c11,0,17.9-4.1,17.9-12
			c0-24.4-72.8-9.8-72.8-58.6c0-25.4,21.8-41.5,54.9-41.5C576.1,469.6,596.4,475.7,610.5,484.9z"/>
		<path class="st4" d="M630.1,608.8V471.2h35v137.7h-35V608.8z"/>
		<path class="st4" d="M788.8,608.8L725.5,524v84.8h-32.8V471.2h30.9l63.5,85v-85h32.7v137.7h-31L788.8,608.8L788.8,608.8z"/>
		<path class="st4" d="M969.1,538.8v53.7c-14.8,10.4-38,17.9-57.2,17.9c-41.9,0-73.6-30.3-73.6-70.4c0-39.9,32.4-70,75.9-70
			c20.5,0,42.1,7.9,56.3,20.5l-19.7,23.8c-10-9.2-24-14.9-36.8-14.9c-22.6,0-39.9,17.7-39.9,40.7c0,23.4,17.5,41.1,40.3,41.1
			c7.1,0,16.1-2.6,24.4-6.7v-35.6L969.1,538.8L969.1,538.8z"/>
	</g>
</g>
<g id="VENTAS" class="st2">
	<g class="st3">
		<path class="st4" d="M172.3,612.3L116.2,468h39.2l36.9,106.2L229.2,468h37.7l-56.7,144.3H172.3z"/>
		<path class="st4" d="M317.9,496.9v28.6h68.8v28.9h-68.8v29.1h78.5v28.9H281.2V468.1h113V497h-76.3L317.9,496.9L317.9,496.9z"/>
		<path class="st4" d="M521,612.3l-66.4-88.8v88.8h-34.4V468.1h32.4l66.6,89v-89h34.2v144.3L521,612.3L521,612.3z"/>
		<path class="st4" d="M649.1,497.5v114.8h-36.7V497.5h-43.1v-29.7h123.3v29.7H649.1z"/>
		<path class="st4" d="M725.6,585.8l-10.5,26.6h-37.7l62.2-144.3h37.7l60.8,144.3H799l-10.3-26.6H725.6z M757.4,504.5l-21,53.4H778
			L757.4,504.5z"/>
		<path class="st4" d="M963.4,482.5l-13.8,28.6c-15.2-8.9-34.4-15-46.2-15c-9.5,0-15.9,3.5-15.9,10.5c0,24.9,76.3,10.7,76.3,62.9
			c0,28.9-25.6,44.1-57.7,44.1c-24.1,0-48.9-9.1-66-23.1l14.2-28.2c14.8,13,37.1,21.6,52.2,21.6c11.5,0,18.8-4.3,18.8-12.6
			c0-25.6-76.3-10.3-76.3-61.4c0-26.6,22.9-43.5,57.5-43.5C927.3,466.4,948.5,472.8,963.4,482.5z"/>
	</g>
</g>
<g id="Capa_5">
</g>
<g id="Capa_6">
</g>
<g id="Capa_7">
</g>
<g>
	<g>
		<g>
			<path class="st4" d="M464.4,585.8c-11.3-35.6-20.5-64.1-27.4-84.8c-13.4-39.7-17.4-47.9-19.2-50.3c-4.6-6.7-11.4-11.8-20.2-15.3
				c-8.6-3.3-17.7-5-27.5-5c-9.9,0-19.2,1.7-27.7,5c-8.8,3.5-15.6,8.6-20.5,15.4c-1.6,2.5-5.3,10.4-18.8,50.5
				c-9.1,27-18.4,55.6-27.8,84.8c-8.4,26.7-14.6,46.9-18.6,60l-1.7,6h60.3l53.9-162c0.1-0.4,0.2-0.7,0.5-1.2c0.1-0.4,0.4-1,0.5-1.5
				c0.1,0.4,0.2,0.7,0.4,1c0.1,0.4,0.2,0.9,0.4,1.2L425.7,652h59.4l-1.9-6.1C476.9,625.8,470.6,605.7,464.4,585.8z"/>
			<path class="st4" d="M497.1,467.1c-13.5,21-20.3,46.6-20.3,76.3c0,29.1,6.8,54.1,20.1,74c15.1,22.8,36.2,34.5,62.6,34.5h108.1
				v-55.1H567.3c-9.4,0-16.9-5.6-22.7-17c-5.7-11-8.6-24.6-8.6-40.3c0-15.3,2.9-28.1,8.3-38.4c5.7-10.7,13.1-15.9,22.8-15.9h100.3
				v-53.8h-108C533.5,431.4,512.5,443.4,497.1,467.1z"/>
			<rect x="686.9" y="431.4" class="st4" width="56.2" height="220.6"/>
			<path class="st4" d="M861,596.8c-13.6,0-24.1-6.2-31.9-19c-6.9-11.4-10.5-25.8-10.5-42.8V431.4h-56.2v103.4
				c-0.2,1.2-0.4,2.6-0.5,4.1c-0.1,1.6-0.1,3.8-0.1,6.6c0,14.4,1.7,27.9,5.2,40.1c5.3,18.8,14.5,34.1,27.5,45.1
				c16.6,14.1,38.9,21.3,66.6,21.3H950v-55.1L861,596.8L861,596.8z"/>
		</g>
		<g>
			<path class="st4" d="M177.6,541.1c3.3,3.8,4.8,10.9,3.2,15.7l-7.7,23.1c-1.6,4.8-7.1,9.7-12,10.7l-23.8,5c-5,1-11.9-1.2-15.3-5.1
				l-16.1-18.2c-3.3-3.8-4.8-10.9-3.2-15.7l7.7-23.1c1.6-4.8,7.1-9.7,12-10.7l23.8-5c5-1,11.9,1.2,15.3,5.1L177.6,541.1z"/>
			<path class="st4" d="M284,458c5.1,5.7,7.3,16.4,4.8,23.7l-13.3,40.1c-2.4,7.3-10.5,14.5-18,16l-41.4,8.6
				c-7.6,1.5-17.9-1.9-22.9-7.6L165,507.1c-5.1-5.7-7.3-16.4-4.8-23.7l13.4-40.2c2.4-7.3,10.5-14.5,18-16l41.4-8.6
				c7.6-1.5,17.9,1.9,22.9,7.6L284,458z"/>
			<path class="st4" d="M237.1,366.4c1.7,1.9,2.5,5.5,1.6,7.9l-9.2,27.7c-0.7,2.5-3.5,4.8-6,5.3l-28.5,5.8c-2.5,0.5-6-0.6-7.7-2.5
				L168,388.8c-1.7-1.9-2.5-5.5-1.6-7.9l9.2-27.7c0.7-2.5,3.5-4.8,6-5.3l28.5-5.8c2.5-0.5,6,0.6,7.7,2.5L237.1,366.4z"/>
		</g>
		<path class="st4" d="M392.3,585.9l-8.9,16.6c-0.7,1.5-2.2,2.4-4,2.5l-18.8,0.6c-1.6,0-3.2-0.7-4.1-2.2l-9.9-16
			c-0.9-1.4-0.9-3.2-0.1-4.6l8.9-16.6c0.7-1.5,2.2-2.4,4-2.5l18.8-0.6c1.6,0,3.2,0.7,4.1,2.2l9.9,16
			C393.1,582.7,393.1,584.4,392.3,585.9z"/>
	</g>
	<rect x="624.3" y="670.1" class="st5" width="325.4" height="53.9"/>
	<g class="st6">
		<path class="st4" d="M769.4,688h-0.2c-1.2-1.9-2.9-3.5-5.1-4.9c-2.3-1.3-5-2-8.3-2c-2.8,0-5.3,0.5-7.6,1.5c-2.3,1-4.3,2.4-6,4.1
			c-1.7,1.7-3,3.7-4,6c-1,2.3-1.4,4.7-1.4,7.3c0,1.8,0.3,3.5,0.9,5c0.6,1.5,1.4,2.9,2.5,4c1.1,1.1,2.4,2,3.9,2.6
			c1.5,0.6,3.3,0.9,5.3,0.9c3.4,0,6.6-0.8,9.6-2.3c3-1.5,5.9-3.9,8.8-7.2h0.2l-4.7,16.2c-2.2,1.5-4.8,2.7-7.6,3.5s-5.7,1.2-8.6,1.2
			c-3.5,0-6.6-0.6-9.4-1.7s-5.1-2.8-7.1-4.8c-2-2.1-3.4-4.6-4.5-7.6c-1-3-1.5-6.3-1.5-9.9c0-4,0.9-7.8,2.6-11.5s4-6.9,6.9-9.7
			c2.9-2.8,6.3-5,10.2-6.7c3.9-1.7,8.1-2.5,12.5-2.5c7.1,0,12.7,1.6,16.7,4.7L769.4,688z"/>
		<path class="st4" d="M784,670.6H796l-8.9,41.7H810l-2.3,10.9h-34.9L784,670.6z"/>
		<path class="st4" d="M835.5,670.6l-6.8,31.6c-0.1,0.5-0.2,1.1-0.3,1.8c-0.1,0.7-0.1,1.4-0.1,2c0,2.2,0.7,3.9,2,4.9
			c1.4,1,3,1.5,5,1.5c1.4,0,2.7-0.2,4-0.6c1.3-0.4,2.5-1,3.6-1.8c1.1-0.8,2.1-1.9,2.9-3.2c0.8-1.3,1.4-2.8,1.8-4.6l6.8-31.6h11.9
			l-6.9,32.3c-0.8,3.7-2,6.9-3.5,9.6c-1.6,2.7-3.5,4.9-5.6,6.6c-2.2,1.7-4.6,3-7.2,3.8c-2.6,0.8-5.4,1.2-8.3,1.2
			c-2.7,0-5.3-0.3-7.6-1s-4.3-1.7-6-3c-1.7-1.4-3-3.1-4-5.2s-1.4-4.6-1.4-7.5c0-0.5,0-1.2,0.1-1.8c0.1-0.7,0.2-1.3,0.3-2l7-33H835.5
			z"/>
		<path class="st4" d="M909.6,682.5c0,2.5-0.8,4.8-2.4,7c-1.6,2.2-3.9,4-6.8,5.3c2.2,1.1,3.8,2.6,4.9,4.6c1.1,2,1.6,4.2,1.6,6.8
			c0,2.5-0.6,4.8-1.8,6.9c-1.2,2.1-2.8,3.9-4.9,5.4c-2.1,1.5-4.5,2.7-7.4,3.5c-2.9,0.8-6,1.3-9.3,1.3h-17.1l11.2-52.7h15.9
			c2.7,0,5.1,0.3,7.1,0.9c2,0.6,3.7,1.4,5,2.5c1.3,1.1,2.3,2.3,3,3.8C909.3,679.2,909.6,680.8,909.6,682.5z M880.3,713.9h4.4
			c1.8,0,3.4-0.2,4.6-0.6c1.3-0.4,2.3-1,3.1-1.7c0.8-0.7,1.4-1.5,1.8-2.5c0.4-0.9,0.6-1.9,0.6-2.9c0-1.5-0.6-2.8-1.7-3.8
			c-1.1-1-2.9-1.5-5.2-1.5h-4.8L880.3,713.9z M885,692.3h3.2c1.7,0,3.1-0.2,4.3-0.6c1.2-0.4,2.2-1,3-1.7s1.3-1.5,1.7-2.4
			c0.3-0.9,0.5-1.8,0.5-2.7c0-1.3-0.5-2.4-1.4-3.4c-0.9-0.9-2.3-1.4-4.2-1.4h-4.5L885,692.3z"/>
		<path class="st4" d="M919.7,712.1c2,1,4.2,1.6,6.5,1.6c2.2,0,3.9-0.5,5-1.6c1.2-1.1,1.7-2.5,1.7-4.2c0-0.7-0.1-1.3-0.3-2
			c-0.2-0.6-0.6-1.3-1.2-2c-0.6-0.7-1.3-1.5-2.3-2.3c-0.9-0.8-2.1-1.7-3.5-2.7c-1.5-1-2.7-2.1-3.7-3.1c-1-1-1.8-2.1-2.4-3.1
			c-0.6-1.1-1-2.2-1.3-3.4c-0.3-1.2-0.4-2.4-0.4-3.8c0-2.4,0.5-4.5,1.4-6.5c0.9-2,2.2-3.7,3.9-5s3.5-2.5,5.7-3.2
			c2.2-0.8,4.5-1.2,6.9-1.2c5,0,9.6,1,13.7,2.9l-2.6,12.1c-2.3-1.6-4.3-2.8-6.1-3.6c-1.7-0.8-3.4-1.1-5-1.1c-1.7,0-3.1,0.5-4.2,1.4
			c-1,1-1.6,2.1-1.6,3.4c0,0.5,0.1,1.1,0.3,1.6c0.2,0.5,0.5,1.1,1.1,1.7c0.5,0.6,1.3,1.3,2.3,2.1c1,0.8,2.2,1.7,3.8,2.8
			c1.5,1,2.7,2.1,3.7,3.1s1.9,2.1,2.5,3.2s1.1,2.4,1.4,3.6s0.4,2.7,0.4,4.2c0,2.6-0.5,4.9-1.6,7.1c-1.1,2.1-2.5,3.9-4.4,5.4
			c-1.9,1.5-4.1,2.6-6.6,3.4s-5.3,1.2-8.2,1.2c-2.6,0-5-0.2-7.2-0.8s-4.2-1.3-5.9-2.5l1.8-13.6h0.2
			C915.7,709.5,917.7,711.1,919.7,712.1z"/>
	</g>
</g>
</svg>
