<?xml version="1.0" encoding="utf-8"?>
<!-- Generator: Adobe Illustrator 27.0.1, SVG Export Plug-In . SVG Version: 6.00 Build 0)  -->
<svg version="1.1" id="Capa_1" xmlns="http://www.w3.org/2000/svg" xmlns:xlink="http://www.w3.org/1999/xlink" x="0px" y="0px"
	 viewBox="0 0 1080 1080" style="enable-background:new 0 0 1080 1080;" xml:space="preserve">
<style type="text/css">
	.st0{fill:url(#SVGID_1_);}
	.st1{fill:none;stroke:#FFFFFF;stroke-width:3;stroke-miterlimit:10;}
	.st2{display:none;}
	.st3{display:inline;}
	.st4{fill:#FFFFFF;}
	.st5{fill:none;}
	.st6{enable-background:new    ;}
</style>
<g id="Capa_1_00000047746146127166173490000014897892785311581081_">
	
		<linearGradient id="SVGID_1_" gradientUnits="userSpaceOnUse" x1="2.499998e-02" y1="1377.95" x2="1080.075" y2="1377.95" gradientTransform="matrix(1 0 0 1 0 -838)">
		<stop  offset="0" style="stop-color:#E25B19"/>
		<stop  offset="1" style="stop-color:#F6A312"/>
	</linearGradient>
	<path class="st0" d="M793.1,67.8H286.9c-12.1,0-23.3,6.4-29.3,16.9L4.6,523.1c-6.1,10.5-6.1,23.4,0,33.8l253.1,438.3
		c6.1,10.5,17.2,16.9,29.3,16.9h506.1c12.1,0,23.3-6.4,29.3-16.9l253.1-438.3c6.1-10.5,6.1-23.4,0-33.8L822.4,84.8
		C816.4,74.2,805.1,67.8,793.1,67.8z"/>
	<path class="st1" d="M781.6,88.5H299.3c-12.1,0-23.3,6.4-29.3,16.9L28.8,523.1c-6.1,10.5-6.1,23.4,0,33.8l241.1,417.6
		c6.1,10.5,17.2,16.9,29.3,16.9h482.3c12.1,0,23.3-6.4,29.3-16.9l241.1-417.6c6.1-10.5,6.1-23.4,0-33.8l-241-417.6
		C804.8,94.9,793.7,88.5,781.6,88.5z"/>
</g>
<g id="LEASING" class="st2">
	<g class="st3">
		<path class="st4" d="M203,579.5v29.3h-93.4V471.2h35v108.4H203V579.5z"/>
		<path class="st4" d="M254.8,498.7V526h65.7v27.5h-65.7v27.7h74.9v27.5h-110V471.2h107.8v27.5H254.8z"/>
		<path class="st4" d="M383.7,583.5l-10,25.4h-36L397,471.2h36l58,137.7h-37.4l-9.8-25.4H383.7z M414,506l-20.1,50.9h39.7L414,506z"
			/>
		<path class="st4" d="M610.5,484.9l-13.2,27.3c-14.5-8.5-32.8-14.4-44.1-14.4c-9,0-15.1,3.3-15.1,10c0,23.8,72.8,10.2,72.8,60
			c0,27.5-24.4,42.1-55.1,42.1c-23,0-46.6-8.6-62.9-22l13.6-26.9c14.2,12.4,35.4,20.7,49.8,20.7c11,0,17.9-4.1,17.9-12
			c0-24.4-72.8-9.8-72.8-58.6c0-25.4,21.8-41.5,54.9-41.5C576.1,469.6,596.4,475.7,610.5,484.9z"/>
		<path class="st4" d="M630.1,608.8V471.2h35v137.7h-35V608.8z"/>
		<path class="st4" d="M788.8,608.8L725.5,524v84.8h-32.8V471.2h30.9l63.5,85v-85h32.7v137.7h-31L788.8,608.8L788.8,608.8z"/>
		<path class="st4" d="M969.1,538.8v53.7c-14.8,10.4-38,17.9-57.2,17.9c-41.9,0-73.6-30.3-73.6-70.4c0-39.9,32.4-70,75.9-70
			c20.5,0,42.1,7.9,56.3,20.5l-19.7,23.8c-10-9.2-24-14.9-36.8-14.9c-22.6,0-39.9,17.7-39.9,40.7c0,23.4,17.5,41.1,40.3,41.1
			c7.1,0,16.1-2.6,24.4-6.7v-35.6L969.1,538.8L969.1,538.8z"/>
	</g>
</g>
<g id="VENTAS" class="st2">
	<g class="st3">
		<path class="st4" d="M172.3,612.3L116.2,468h39.2l36.9,106.2L229.2,468h37.7l-56.7,144.3H172.3z"/>
		<path class="st4" d="M317.9,496.9v28.6h68.8v28.9h-68.8v29.1h78.5v28.9H281.2V468.1h113V497h-76.3L317.9,496.9L317.9,496.9z"/>
		<path class="st4" d="M521,612.3l-66.4-88.8v88.8h-34.4V468.1h32.4l66.6,89v-89h34.2v144.3L521,612.3L521,612.3z"/>
		<path class="st4" d="M649.1,497.5v114.8h-36.7V497.5h-43.1v-29.7h123.3v29.7H649.1z"/>
		<path class="st4" d="M725.6,585.8l-10.5,26.6h-37.7l62.2-144.3h37.7l60.8,144.3H799l-10.3-26.6H725.6z M757.4,504.5l-21,53.4H778
			L757.4,504.5z"/>
		<path class="st4" d="M963.4,482.5l-13.8,28.6c-15.2-8.9-34.4-15-46.2-15c-9.5,0-15.9,3.5-15.9,10.5c0,24.9,76.3,10.7,76.3,62.9
			c0,28.9-25.6,44.1-57.7,44.1c-24.1,0-48.9-9.1-66-23.1l14.2-28.2c14.8,13,37.1,21.6,52.2,21.6c11.5,0,18.8-4.3,18.8-12.6
			c0-25.6-76.3-10.3-76.3-61.4c0-26.6,22.9-43.5,57.5-43.5C927.3,466.4,948.5,472.8,963.4,482.5z"/>
	</g>
</g>
<g id="Capa_5">
</g>
<g id="Capa_6">
</g>
<g id="Capa_7">
</g>
<rect x="269.2" y="765.7" class="st5" width="541.7" height="196.8"/>
<g class="st6">
	<path class="st4" d="M402.6,839.8l-3.5,8.8h-12.4l20.5-47.6h12.4l20.1,47.6h-12.9l-3.4-8.8H402.6z M413.1,813l-6.9,17.6h13.7
		L413.1,813z"/>
	<path class="st4" d="M476.4,838.4v10.1h-32.3V801h12.1v37.5H476.4z"/>
	<path class="st4" d="M493.2,839.8l-3.5,8.8h-12.4l20.5-47.6h12.4l20.1,47.6h-12.9l-3.4-8.8H493.2z M503.7,813l-6.9,17.6h13.7
		L503.7,813z"/>
	<path class="st4" d="M556.4,835.2h-0.3h-9.2v13.4h-12.1V801h21.3c12.6,0,19.8,6,19.8,16.6c0,7.3-3.1,12.5-8.6,15.3l10,15.7h-13.7
		L556.4,835.2z M556.1,825.7c5.2,0,8.3-2.7,8.3-7.7c0-5-3.1-7.5-8.3-7.5h-9.2v15.2H556.1z"/>
	<path class="st4" d="M625.6,848.6l-0.1-30.9l-11.4,26.2h-7.9l-11.4-26.2v30.9H584v-47.7h13.3l12.9,28.4l12.9-28.4h13.2v47.7H625.6z
		"/>
	<path class="st4" d="M656.7,839.8l-3.5,8.8h-12.4l20.5-47.6h12.4l20.1,47.6h-12.9l-3.4-8.8H656.7z M667.2,813l-6.9,17.6H674
		L667.2,813z"/>
</g>
<g class="st6">
	<path class="st4" d="M404.7,930.2l-18.5-47.6h12.9l12.2,35l12.2-35h12.4l-18.7,47.6H404.7z"/>
	<path class="st4" d="M452.7,892.1v9.5h22.7v9.5h-22.7v9.6h25.9v9.5h-38v-47.6h37.3v9.5H452.7z"/>
	<path class="st4" d="M527.9,890.2l-7,8.3c-3.1-3.8-7.8-6.2-12-6.2c-7.5,0-13.3,6-13.3,13.8c0,8,5.7,14,13.3,14c4,0,8.6-2.2,12-5.6
		l7.1,7.5c-5.1,5.2-12.6,8.7-19.6,8.7c-14.3,0-25-10.5-25-24.5c0-13.7,10.9-24.1,25.4-24.1C515.8,882.2,523.1,885.3,527.9,890.2z"/>
	<path class="st4" d="M533.4,930.2v-47.6h12.1v47.6H533.4z"/>
	<path class="st4" d="M588.3,930.2l-21.9-29.3v29.3h-11.4v-47.6h10.7l22,29.4v-29.4H599v47.6H588.3z"/>
	<path class="st4" d="M619.3,921.4l-3.5,8.8h-12.4l20.5-47.6h12.4l20.1,47.6h-12.9l-3.4-8.8H619.3z M629.8,894.6l-6.9,17.6h13.7
		L629.8,894.6z"/>
	<path class="st4" d="M693.2,920v10.1h-32.3v-47.6H673V920H693.2z"/>
</g>
<g>
	<g>
		<path class="st4" d="M703.9,416.3c-7.9-1.6-11.6-4.3-11.4-12.1c0.1-1.2-0.4-2.5-0.5-3.7c-5.7-35.7-15.2-70.2-32.3-102.3
			c-10-18.7-28.9-22.3-45.7-9.4c-7.4,5.6-14.8,11.2-22.7,16.1c-42.5,26.6-89.3,42.2-137.5,54.2c-75.9,18.9-153,27.9-231,31.5
			c-16.7,0.8-24.8,8.6-25.6,25.1c-0.1,1.4-0.4,3-0.5,4.3c-17.7,5.4-26,13.9-26,28.1c-0.3,29.9-0.3,59.8,0,89.7
			c0.1,12.9,8.3,23.1,21,26.3c4.8,1.2,5.7,3.3,5.6,7.7c-0.1,10.3,5.1,17.4,14.5,21.8c2.6,1.2,5.3,3.8,6.5,6.4l111.4,5
			c3.2,0,5.4-0.2,7.4,0.1c57.1,7.7,113.6,18.3,168.3,36.6c38,12.7,74.6,28.6,106.5,53.7c19.5,15.4,37.9,11.4,49.3-10.8
			c17.1-33.2,26.4-68.9,31.6-105.6c0.9-6.4,3.5-8,9.2-9c37.1-6.9,63.6-38.3,64.2-75.7C766.7,456.3,741.1,423.7,703.9,416.3z
			 M299.3,571.8c-24.4-1.7-48.3-3.5-73.6-5.2c0-9.8,0-19.3,0-29.7c-9.2,0-17.5,0-26.3,0c0-29.5,0-58,0-87.6c6.9,0,13.6-0.2,20.3,0.1
			c4.6,0.2,6.2-1.5,6.1-6.1c-0.3-7.7-0.1-15.4-0.1-23.9c24.8-1.8,49-3.5,73.6-5.4C299.3,466.7,299.3,518.9,299.3,571.8z M664.7,576
			c-4.6,31.4-12.5,62-26.3,90.8c-1.1,2.2-2.3,4.5-3.5,6.7c-0.4,0.6-0.9,1.2-1.3,1.7c-12-7.9-23.6-16.3-35.8-23.5
			c-46.9-27.5-97.9-44.1-150.6-55.5c-37-8-74.6-13.4-112-19.9c-2-0.4-3.9-0.7-6.6-1c0-54.7,0-109.2,0-164.4
			c17.6-2.6,35.3-5,52.8-7.9c62.8-10.5,124.5-25,182.9-51.3c24.3-11,47.3-24.2,68.9-41.8c1.7,3,3.2,5.5,4.5,8.1
			c18.3,37.6,26.5,77.8,30,119.1C671.9,483.4,671.5,529.8,664.7,576z M701.1,541c0-32,0-63.6,0-95.1c15.2,0,33.4,19.7,36.2,39.3
			C740.7,511.2,725.8,534.2,701.1,541z"/>
		<path class="st4" d="M866.1,508.4c-15,0-30.1,0.1-45.1,0c-11.2-0.1-18.9-7.2-18.8-17.1c0.1-9.6,7.4-16.8,18.3-16.9
			c30.6-0.1,61.2-0.1,91.8,0c11,0.1,18.3,7,18.4,16.7c0.1,10.1-7.2,17.1-18.6,17.2C896.7,508.6,881.4,508.4,866.1,508.4z"/>
		<path class="st4" d="M876.3,663.2c-2,7.8-4.8,12.9-10.6,16.1c-5.8,3.1-11.6,3-17.1-0.7c-7.4-5.1-14.8-10.5-22-15.8
			c-17.9-12.9-35.7-25.9-53.5-38.9c-9.5-6.9-11.6-17-5.4-25.4c5.9-8,15.8-8.9,25.3-2c24.4,17.6,48.9,35.1,72.9,53.3
			C870.2,652.9,872.8,658.6,876.3,663.2z"/>
		<path class="st4" d="M876.7,317.8c-3.4,5.6-5.1,11.1-8.8,13.9c-25.5,19.1-51.3,37.8-77.2,56.3c-7.9,5.6-18,3.6-23.4-3.9
			s-4.3-17.6,3.6-23.4c25.6-18.9,51.5-37.5,77.3-56.1c5.6-4.1,12.3-4.6,17.6-0.5C870.1,307.3,872.7,312.6,876.7,317.8z"/>
	</g>
</g>
</svg>
