<?xml version="1.0" encoding="utf-8"?>
<!-- Generator: Adobe Illustrator 27.0.1, SVG Export Plug-In . SVG Version: 6.00 Build 0)  -->
<svg version="1.1" id="Capa_1" xmlns="http://www.w3.org/2000/svg" xmlns:xlink="http://www.w3.org/1999/xlink" x="0px" y="0px"
	 viewBox="0 0 1080 1080" style="enable-background:new 0 0 1080 1080;" xml:space="preserve">
<style type="text/css">
	.st0{fill:url(#SVGID_1_);}
	.st1{fill:none;stroke:#FFFFFF;stroke-width:3;stroke-miterlimit:10;}
	.st2{display:none;}
	.st3{display:inline;}
	.st4{fill:#FFFFFF;}
	.st5{fill:none;}
	.st6{enable-background:new    ;}
</style>
<g id="Capa_1_00000047746146127166173490000014897892785311581081_">
	
		<linearGradient id="SVGID_1_" gradientUnits="userSpaceOnUse" x1="2.499998e-02" y1="1377.95" x2="1080.075" y2="1377.95" gradientTransform="matrix(1 0 0 1 0 -838)">
		<stop  offset="0" style="stop-color:#E25B19"/>
		<stop  offset="1" style="stop-color:#F6A312"/>
	</linearGradient>
	<path class="st0" d="M793.1,67.8H286.9c-12.1,0-23.3,6.4-29.3,16.9L4.6,523.1c-6.1,10.5-6.1,23.4,0,33.8l253.1,438.3
		c6.1,10.5,17.2,16.9,29.3,16.9h506.1c12.1,0,23.3-6.4,29.3-16.9l253.1-438.3c6.1-10.5,6.1-23.4,0-33.8L822.4,84.8
		C816.4,74.2,805.1,67.8,793.1,67.8z"/>
	<path class="st1" d="M781.6,88.5H299.3c-12.1,0-23.3,6.4-29.3,16.9L28.8,523.1c-6.1,10.5-6.1,23.4,0,33.8l241.1,417.6
		c6.1,10.5,17.2,16.9,29.3,16.9h482.3c12.1,0,23.3-6.4,29.3-16.9l241.1-417.6c6.1-10.5,6.1-23.4,0-33.8l-241-417.6
		C804.8,94.9,793.7,88.5,781.6,88.5z"/>
</g>
<g id="LEASING" class="st2">
	<g class="st3">
		<path class="st4" d="M203,579.5v29.3h-93.4V471.2h35v108.4H203V579.5z"/>
		<path class="st4" d="M254.8,498.7V526h65.7v27.5h-65.7v27.7h74.9v27.5h-110V471.2h107.8v27.5H254.8z"/>
		<path class="st4" d="M383.7,583.5l-10,25.4h-36L397,471.2h36l58,137.7h-37.4l-9.8-25.4H383.7z M414,506l-20.1,50.9h39.7L414,506z"
			/>
		<path class="st4" d="M610.5,484.9l-13.2,27.3c-14.5-8.5-32.8-14.4-44.1-14.4c-9,0-15.1,3.3-15.1,10c0,23.8,72.8,10.2,72.8,60
			c0,27.5-24.4,42.1-55.1,42.1c-23,0-46.6-8.6-62.9-22l13.6-26.9c14.2,12.4,35.4,20.7,49.8,20.7c11,0,17.9-4.1,17.9-12
			c0-24.4-72.8-9.8-72.8-58.6c0-25.4,21.8-41.5,54.9-41.5C576.1,469.6,596.4,475.7,610.5,484.9z"/>
		<path class="st4" d="M630.1,608.8V471.2h35v137.7h-35V608.8z"/>
		<path class="st4" d="M788.8,608.8L725.5,524v84.8h-32.8V471.2h30.9l63.5,85v-85h32.7v137.7h-31L788.8,608.8L788.8,608.8z"/>
		<path class="st4" d="M969.1,538.8v53.7c-14.8,10.4-38,17.9-57.2,17.9c-41.9,0-73.6-30.3-73.6-70.4c0-39.9,32.4-70,75.9-70
			c20.5,0,42.1,7.9,56.3,20.5l-19.7,23.8c-10-9.2-24-14.9-36.8-14.9c-22.6,0-39.9,17.7-39.9,40.7c0,23.4,17.5,41.1,40.3,41.1
			c7.1,0,16.1-2.6,24.4-6.7v-35.6L969.1,538.8L969.1,538.8z"/>
	</g>
</g>
<g id="VENTAS" class="st2">
	<g class="st3">
		<path class="st4" d="M172.3,612.3L116.2,468h39.2l36.9,106.2L229.2,468h37.7l-56.7,144.3H172.3z"/>
		<path class="st4" d="M317.9,496.9v28.6h68.8v28.9h-68.8v29.1h78.5v28.9H281.2V468.1h113V497h-76.3L317.9,496.9L317.9,496.9z"/>
		<path class="st4" d="M521,612.3l-66.4-88.8v88.8h-34.4V468.1h32.4l66.6,89v-89h34.2v144.3L521,612.3L521,612.3z"/>
		<path class="st4" d="M649.1,497.5v114.8h-36.7V497.5h-43.1v-29.7h123.3v29.7H649.1z"/>
		<path class="st4" d="M725.6,585.8l-10.5,26.6h-37.7l62.2-144.3h37.7l60.8,144.3H799l-10.3-26.6H725.6z M757.4,504.5l-21,53.4H778
			L757.4,504.5z"/>
		<path class="st4" d="M963.4,482.5l-13.8,28.6c-15.2-8.9-34.4-15-46.2-15c-9.5,0-15.9,3.5-15.9,10.5c0,24.9,76.3,10.7,76.3,62.9
			c0,28.9-25.6,44.1-57.7,44.1c-24.1,0-48.9-9.1-66-23.1l14.2-28.2c14.8,13,37.1,21.6,52.2,21.6c11.5,0,18.8-4.3,18.8-12.6
			c0-25.6-76.3-10.3-76.3-61.4c0-26.6,22.9-43.5,57.5-43.5C927.3,466.4,948.5,472.8,963.4,482.5z"/>
	</g>
</g>
<g id="Capa_5">
</g>
<g id="Capa_6">
</g>
<g id="Capa_7">
</g>
<rect x="269.2" y="757.8" class="st5" width="541.7" height="196.8"/>
<g class="st6">
	<path class="st4" d="M453.8,831.9l-3.5,8.8h-12.4l20.5-47.6h12.4l20.1,47.6H478l-3.4-8.8H453.8z M464.2,805.1l-6.9,17.6H471
		L464.2,805.1z"/>
	<path class="st4" d="M516.9,827.2h-0.3h-9.2v13.4h-12.1V793h21.3c12.6,0,19.8,6,19.8,16.6c0,7.3-3.1,12.5-8.6,15.3l10,15.7H524
		L516.9,827.2z M516.6,817.7c5.2,0,8.3-2.7,8.3-7.7c0-5-3.1-7.5-8.3-7.5h-9.2v15.2H516.6z"/>
	<path class="st4" d="M586,800.7l-7,8.3c-3.1-3.8-7.8-6.2-12-6.2c-7.5,0-13.3,6-13.3,13.8c0,8,5.7,14,13.3,14c4,0,8.6-2.2,12-5.6
		l7.1,7.5c-5.1,5.2-12.6,8.7-19.6,8.7c-14.3,0-25-10.5-25-24.5c0-13.7,10.9-24.1,25.4-24.1C573.9,792.6,581.3,795.8,586,800.7z"/>
	<path class="st4" d="M639.1,816.8c0,13.9-11,24.4-25.8,24.4c-14.7,0-25.7-10.5-25.7-24.4c0-13.9,11-24.1,25.7-24.1
		C628.1,792.6,639.1,803,639.1,816.8z M600,816.8c0,8,6.2,14.2,13.5,14.2c7.3,0,13.2-6.2,13.2-14.2c0-8-5.8-14.1-13.2-14.1
		C606.2,802.8,600,808.8,600,816.8z"/>
</g>
<g class="st6">
	<path class="st4" d="M376.1,874.6c15,0,25.3,9.7,25.3,23.8c0,14.1-10.5,23.8-25.8,23.8h-20v-47.6H376.1z M367.8,912.6h8.6
		c7.4,0,12.7-5.7,12.7-14.1c0-8.4-5.6-14.2-13.3-14.2h-8.1V912.6z"/>
	<path class="st4" d="M419.9,884.2v9.5h22.7v9.5h-22.7v9.6h25.9v9.5h-38v-47.6h37.3v9.5H419.9z"/>
	<path class="st4" d="M475.7,884.4v37.9h-12.1v-37.9h-14.2v-9.8H490v9.8H475.7z"/>
	<path class="st4" d="M507.3,884.2v9.5H530v9.5h-22.7v9.6h25.9v9.5h-38v-47.6h37.3v9.5H507.3z"/>
	<path class="st4" d="M582.5,882.3l-7,8.3c-3.1-3.8-7.8-6.2-12-6.2c-7.5,0-13.3,6-13.3,13.8c0,8,5.7,14,13.3,14c4,0,8.6-2.2,12-5.6
		l7.1,7.5c-5.1,5.2-12.6,8.7-19.6,8.7c-14.3,0-25-10.5-25-24.5c0-13.7,10.9-24.1,25.4-24.1C570.4,874.2,577.7,877.4,582.5,882.3z"/>
	<path class="st4" d="M610.1,884.4v37.9H598v-37.9h-14.2v-9.8h40.7v9.8H610.1z"/>
	<path class="st4" d="M675.5,898.4c0,13.9-11,24.4-25.8,24.4c-14.7,0-25.7-10.5-25.7-24.4c0-13.9,11-24.1,25.7-24.1
		C664.5,874.2,675.5,884.6,675.5,898.4z M636.4,898.4c0,8,6.2,14.2,13.5,14.2c7.3,0,13.2-6.2,13.2-14.2c0-8-5.8-14.1-13.2-14.1
		C642.5,884.4,636.4,890.4,636.4,898.4z"/>
	<path class="st4" d="M703.5,908.8h-0.3H694v13.4h-12.1v-47.6h21.3c12.6,0,19.8,6,19.8,16.6c0,7.3-3.1,12.5-8.6,15.3l10,15.7h-13.7
		L703.5,908.8z M703.2,899.3c5.2,0,8.3-2.7,8.3-7.7c0-5-3.1-7.5-8.3-7.5H694v15.2H703.2z"/>
</g>
<g>
	<path class="st4" d="M724.9,735.3c-12.1,0-23.8,0-36,0c0-175.4,0-350.6,0-526.2c-100.3,0-200.2,0-300.5,0c0,175.4,0,350.6,0,526.1
		c-11.2,0-22.1,0-33.4,0c0-4.5,0-8.9,0-13.3c0-33.3,0.1-66.5,0.1-99.8c0-45.2-0.1-90.5-0.1-135.7c0-32,0-64.1,0-96.1
		c0-50.2,0-100.4,0-150.6c0-24.7,0-49.4,0-74.1c0-9.3,2.9-17.4,10.1-23.7c4.1-3.6,8.9-5.3,14.3-5.3c38.6,0.1,77.1,0.2,115.7,0.2
		c67.5,0,135,0.1,202.5-0.4c16.2-0.1,25.2,11.9,26.8,24.1c0.3,2.3,0.4,4.6,0.4,7c0,64.1,0,128.2,0,192.2c0,43.7,0,87.3,0,131
		c0,80,0,160.1,0,240.1C724.9,732.3,724.9,733.7,724.9,735.3z M543.1,191.4c10.2,0,18.9-7.8,18.8-17c-0.1-10-8.3-17.8-18.8-17.8
		c-10.3,0-18.8,7.8-18.8,17.4C524.3,183.7,532.5,191.3,543.1,191.4z M494.3,191.4c10.6,0,18.8-7.5,18.9-17.3
		c0.1-9.5-8.3-17.4-18.5-17.5c-10.4-0.1-19,7.7-19.1,17.3C475.5,183.6,483.7,191.3,494.3,191.4z M590.1,191.3
		c10.6-0.2,18.8-7.9,18.6-17.7c-0.2-9.6-8.8-17.2-19.2-17.1c-10.1,0.1-18.6,8.3-18.5,17.6C571.2,183.9,579.6,191.5,590.1,191.3z"/>
	<path class="st4" d="M595.3,417.4c-2.1,0-3.7,0-5.7,0c-0.1,1-0.2,2-0.2,2.9c0,38.9,0,77.8,0,116.7c0,4.9-1,8.9-5.7,11.4
		c-0.7,0.4-1,1.8-1,2.8c-0.1,6.4,0,12.9,0,19.3c0,44.6,0,89.1,0,133.7c0,4.9,0,9.7,0,14.6c-0.1,6.1-3.9,9.9-10,10
		c-3.1,0.1-6.2,0-9.3,0c-6.9-0.1-10.7-3.8-10.7-10.7c0-54.8,0-109.5,0-164.3c0-1.4,0-2.9,0-4.6c-8.8,0-17.5,0-26.5,0
		c0,1.4,0,2.6,0,3.9c0,46.9,0,93.8,0,140.7c0,8.2,0,16.4,0,24.6c0,6.7-3.9,10.4-10.6,10.4c-2.9,0-5.8-0.2-8.6,0
		c-6.3,0.4-10.8-5-10.8-10.7c0.2-31.6,0.2-63.2,0.2-94.8c0-24.1-0.1-48.1-0.1-72.2c0-1.6-0.3-2.7-1.9-3.8c-3.2-2-4.2-5.2-4.2-8.9
		c0-17.2,0-34.4,0-51.6c0-22.5,0-45,0-67.5c0-0.6-0.1-1.3-0.2-2.1c-1.5,0-2.9,0-4.8,0c0,1.6,0,3.1,0,4.6c0,35.9,0,71.8,0,107.7
		c0,1.7,0.1,3.3-0.1,5c-0.5,5.6-4.5,9.3-10.1,9.4c-1.8,0-3.5,0-5.3,0c-6.2-0.1-10.4-4.1-10.4-10.4c-0.1-7.2,0-14.4,0-21.6
		c0-41.7,0-83.4,0-125.1c0-1.8,0-3.6,0.1-5.3c0.5-5.9,4-9.3,9.9-9.4c9.5-0.1,19,0,28.6,0c35.1,0,70.3,0.1,105.4,0.1
		c2.5,0,5.1-0.2,7.6-0.1c6,0.1,9.9,3.9,10.3,9.9c0.1,0.8,0,1.5,0,2.3c0,50.7,0,101.3,0,152c0,1.9-0.2,3.8-0.6,5.6
		c-1.1,4.1-4.5,6.7-8.8,6.8c-2.2,0.1-4.4,0-6.7,0c-5.5-0.1-9.4-3.7-9.8-9.3c-0.1-1.4-0.1-2.9-0.1-4.3c0-38.1,0-76.3,0-114.4
		C595.3,420,595.3,418.9,595.3,417.4z"/>
	<path class="st4" d="M504.8,326.3c0.3-13.2,4.3-24.8,14.1-34c13.8-12.7,34.2-10.9,45.7,3.9c13.6,17.5,13.9,42,0.7,59.6
		c-13.5,18.1-38.7,17.7-51.7-0.9C507.6,346.4,504.7,336.8,504.8,326.3z"/>
</g>
</svg>
