<?xml version="1.0" encoding="utf-8"?>
<!-- Generator: Adobe Illustrator 27.0.1, SVG Export Plug-In . SVG Version: 6.00 Build 0)  -->
<svg version="1.1" id="Capa_1" xmlns="http://www.w3.org/2000/svg" xmlns:xlink="http://www.w3.org/1999/xlink" x="0px" y="0px"
	 viewBox="0 0 1080 1080" style="enable-background:new 0 0 1080 1080;" xml:space="preserve">
<style type="text/css">
	.st0{fill:url(#SVGID_1_);}
	.st1{fill:none;stroke:#FFFFFF;stroke-width:3;stroke-miterlimit:10;}
	.st2{display:none;}
	.st3{display:inline;}
	.st4{fill:#FFFFFF;}
	.st5{fill:none;}
	.st6{enable-background:new    ;}
</style>
<g id="Capa_1_00000047746146127166173490000014897892785311581081_">
	
		<linearGradient id="SVGID_1_" gradientUnits="userSpaceOnUse" x1="2.499998e-02" y1="1377.95" x2="1080.075" y2="1377.95" gradientTransform="matrix(1 0 0 1 0 -838)">
		<stop  offset="0" style="stop-color:#E25B19"/>
		<stop  offset="1" style="stop-color:#F6A312"/>
	</linearGradient>
	<path class="st0" d="M793.1,67.8H286.9c-12.1,0-23.3,6.4-29.3,16.9L4.6,523.1c-6.1,10.5-6.1,23.4,0,33.8l253.1,438.3
		c6.1,10.5,17.2,16.9,29.3,16.9h506.1c12.1,0,23.3-6.4,29.3-16.9l253.1-438.3c6.1-10.5,6.1-23.4,0-33.8L822.4,84.8
		C816.4,74.2,805.1,67.8,793.1,67.8z"/>
	<path class="st1" d="M781.6,88.5H299.3c-12.1,0-23.3,6.4-29.3,16.9L28.8,523.1c-6.1,10.5-6.1,23.4,0,33.8l241.1,417.6
		c6.1,10.5,17.2,16.9,29.3,16.9h482.3c12.1,0,23.3-6.4,29.3-16.9l241.1-417.6c6.1-10.5,6.1-23.4,0-33.8l-241-417.6
		C804.8,94.9,793.7,88.5,781.6,88.5z"/>
</g>
<g id="LEASING" class="st2">
	<g class="st3">
		<path class="st4" d="M203,579.5v29.3h-93.4V471.2h35v108.4H203V579.5z"/>
		<path class="st4" d="M254.8,498.7V526h65.7v27.5h-65.7v27.7h74.9v27.5h-110V471.2h107.8v27.5H254.8z"/>
		<path class="st4" d="M383.7,583.5l-10,25.4h-36L397,471.2h36l58,137.7h-37.4l-9.8-25.4H383.7z M414,506l-20.1,50.9h39.7L414,506z"
			/>
		<path class="st4" d="M610.5,484.9l-13.2,27.3c-14.5-8.5-32.8-14.4-44.1-14.4c-9,0-15.1,3.3-15.1,10c0,23.8,72.8,10.2,72.8,60
			c0,27.5-24.4,42.1-55.1,42.1c-23,0-46.6-8.6-62.9-22l13.6-26.9c14.2,12.4,35.4,20.7,49.8,20.7c11,0,17.9-4.1,17.9-12
			c0-24.4-72.8-9.8-72.8-58.6c0-25.4,21.8-41.5,54.9-41.5C576.1,469.6,596.4,475.7,610.5,484.9z"/>
		<path class="st4" d="M630.1,608.8V471.2h35v137.7h-35V608.8z"/>
		<path class="st4" d="M788.8,608.8L725.5,524v84.8h-32.8V471.2h30.9l63.5,85v-85h32.7v137.7h-31L788.8,608.8L788.8,608.8z"/>
		<path class="st4" d="M969.1,538.8v53.7c-14.8,10.4-38,17.9-57.2,17.9c-41.9,0-73.6-30.3-73.6-70.4c0-39.9,32.4-70,75.9-70
			c20.5,0,42.1,7.9,56.3,20.5l-19.7,23.8c-10-9.2-24-14.9-36.8-14.9c-22.6,0-39.9,17.7-39.9,40.7c0,23.4,17.5,41.1,40.3,41.1
			c7.1,0,16.1-2.6,24.4-6.7v-35.6L969.1,538.8L969.1,538.8z"/>
	</g>
</g>
<g id="VENTAS" class="st2">
	<g class="st3">
		<path class="st4" d="M172.3,612.3L116.2,468h39.2l36.9,106.2L229.2,468h37.7l-56.7,144.3H172.3z"/>
		<path class="st4" d="M317.9,496.9v28.6h68.8v28.9h-68.8v29.1h78.5v28.9H281.2V468.1h113V497h-76.3L317.9,496.9L317.9,496.9z"/>
		<path class="st4" d="M521,612.3l-66.4-88.8v88.8h-34.4V468.1h32.4l66.6,89v-89h34.2v144.3L521,612.3L521,612.3z"/>
		<path class="st4" d="M649.1,497.5v114.8h-36.7V497.5h-43.1v-29.7h123.3v29.7H649.1z"/>
		<path class="st4" d="M725.6,585.8l-10.5,26.6h-37.7l62.2-144.3h37.7l60.8,144.3H799l-10.3-26.6H725.6z M757.4,504.5l-21,53.4H778
			L757.4,504.5z"/>
		<path class="st4" d="M963.4,482.5l-13.8,28.6c-15.2-8.9-34.4-15-46.2-15c-9.5,0-15.9,3.5-15.9,10.5c0,24.9,76.3,10.7,76.3,62.9
			c0,28.9-25.6,44.1-57.7,44.1c-24.1,0-48.9-9.1-66-23.1l14.2-28.2c14.8,13,37.1,21.6,52.2,21.6c11.5,0,18.8-4.3,18.8-12.6
			c0-25.6-76.3-10.3-76.3-61.4c0-26.6,22.9-43.5,57.5-43.5C927.3,466.4,948.5,472.8,963.4,482.5z"/>
	</g>
</g>
<g id="Capa_5">
</g>
<g id="Capa_6">
</g>
<g id="Capa_7">
</g>
<g>
	<path class="st4" d="M698.6,499.7c3.1,0,5.6,0,8.1,0c40.7,0,81.5,0,122.2,0c2.7,0,5.4,0,8,0.4c7.6,1.2,12.9,6.8,13,14.5
		c0.2,11.1,0.3,22.3,0,33.4c-0.2,9.4-6.7,15.3-16.6,15.4c-11.3,0.1-22.7,0-34,0c-30.9,0-61.9,0-92.8,0c-2.5,0-5,0-8.3,0
		c0,2.6,0,4.8,0,7.1c0,36.1,0,72.3,0,108.4c0,14.2-5.8,25.3-17.5,33.1c-6.7,4.5-14.4,6.1-22.5,6.1c-36.5-0.1-73,0-109.5,0
		c-32.9,0-65.7,0-98.6,0c-23.9,0-40.1-16.2-40.1-40.2c0-166.4,0-332.8,0-499.2c0-22.6,16.4-39.1,38.8-39.1
		c69.9-0.1,139.9-0.1,209.8,0c23.1,0,39.4,16,39.4,39c0.1,71.9,0.1,143.7,0.1,215.6c0,33.4,0,66.9,0,100.3
		C698.3,495.9,698.5,497.4,698.6,499.7z M650,499.4c0-3.3,0-6.1,0-8.9c0-24,0-48,0-72c0-73.8,0-147.6,0-221.3c0-8.3-1-9.3-9.2-9.3
		c-57.4,0-114.9,0-172.3,0c-8.9,0-9.9,1-9.9,9.9c0,86.3,0,172.5,0,258.8c0,68,0,136,0,204.1c0,8.1,1.2,9.3,9.3,9.3
		c57.8,0,115.7,0,173.5,0c7.4,0,8.6-1.2,8.7-8.7c0-30.6,0-61.1,0-91.7c0-1.5-0.3-3-0.4-4.4c-13.8,0-27.3,0-41.2,0
		c0,4.5,0,8.5,0,12.5c-0.1,11.6-5.7,17.5-17.2,17.5c-21.7,0.1-43.4,0-65.1,0c-11.2,0-17-5.8-17-17.1c-0.1-30.9-0.1-61.9,0-92.8
		c0-10.9,5.9-16.9,16.7-16.9c22.1-0.1,44.2-0.1,66.3,0c10.3,0,16.3,6.2,16.5,16.6c0.1,4.8,0,9.5,0,14.6
		C622.3,499.4,635.6,499.4,650,499.4z M662,564.7c-0.1,2.5-0.3,4.4-0.3,6.2c0,29.8-0.4,59.6,0.2,89.4c0.3,13.2-7,21.5-20.8,21.4
		c-58.2-0.4-116.4-0.4-174.7,0c-11.8,0.1-19.8-7.9-19.8-20c0.3-79.9,0.2-159.9,0.2-239.8c0-75.3,0-150.7,0-226
		c0-2.7,0.1-5.4,0.8-7.9c2.4-7.8,8.4-11.7,17.8-11.7c50,0,99.9,0,149.9,0c10,0,20-0.1,30,0.1c8.8,0.2,15.2,6.3,16.2,15
		c0.2,2.1,0.2,4.2,0.2,6.3c0,98.8,0,197.5,0,296.3c0,1.8,0,3.6,0,5.5c8.7,0,16.5,0,24.9,0c0-2.5,0-4.5,0-6.6c0-18.4,0-36.9,0-55.3
		c0-85.7,0-171.4,0-257.1c0-18.5-10.8-29.1-29.5-29.1c-68.4,0-136.8,0-205.2,0c-19.5,0-29.9,10.4-29.9,29.8c0,164.7,0,329.4,0,494
		c0,1.9-0.1,3.8,0,5.8c0.7,14.3,11.2,24.7,25.5,25.5c2.7,0.1,5.4,0.1,8.1,0.1c67.3,0,134.5,0,201.8,0c18.5,0,29.2-10.7,29.2-29.4
		c0-35.4,0-70.7,0-106.1c0-2,0-4.1,0-6.3C678.1,564.7,670.4,564.7,662,564.7z M694.6,551.7L694.6,551.7c44.4,0.1,88.8,0.1,133.1,0.1
		c2.1,0,4.2,0,6.3-0.1c2.8-0.1,4.2-1.7,4.2-4.4c0-10.4,0-20.7-0.1-31.1c0-2.8-1.3-4.3-4.2-4.4c-1.7,0-3.5-0.1-5.2-0.1
		c-45.3,0.3-90.6,0.8-135.9,0.9c-44,0.2-88,0-132,0.1c-1.5,0-3.1,0-4.6,0c-3,0-4.7,1.2-4.6,4.4c0.1,10,0,20,0,30
		c0,3.2,1.6,4.5,4.6,4.6c1.9,0,3.8,0.1,5.8,0.1C606.2,551.7,650.4,551.7,694.6,551.7z M596.6,564.5c-2.9,0-5,0-7.1,0
		c-11.1,0-22.3,0.1-33.4-0.1c-10.2-0.1-16.1-6-16.2-16.2c-0.1-10.4-0.1-20.8,0-31.1c0.1-11.5,5.9-17.2,17.5-17.3
		c11-0.1,21.9,0,32.9,0c2,0,4-0.2,6-0.3c0.2-1.2,0.3-1.8,0.3-2.4c0-3.5,0.1-6.9,0-10.4c-0.1-6-0.7-6.8-6.6-6.8
		c-20.9-0.1-41.9-0.1-62.8,0c-6,0-6.6,0.7-6.6,6.6c0,30.2,0,60.3,0,90.5c0,5.5,0.7,6.3,6.4,6.3c13.1,0.1,26.1,0,39.2,0
		c8.3,0,16.5-0.1,24.8,0c3.8,0,5.8-1.4,5.7-5.4C596.6,573.8,596.6,569.6,596.6,564.5z"/>
	<path class="st4" d="M557.5,284.3c-23.8,0-41.6,7.2-56.9,21.2c-1.1,1-2.3,2.7-3.5,2.8c-2.1,0.2-5.1,0.2-6.2-1
		c-1.3-1.5-1.4-4.4-1.3-6.7c0-1,1.5-2.1,2.4-3.1c33.1-33,90.7-33.2,124.2-0.4c1,0.9,2.4,1.9,2.5,3c0.2,2.3,0.4,5-0.7,6.8
		c-1.5,2.5-4.5,2.7-7.2,1.1c-1.3-0.8-2.4-1.9-3.5-3C592.4,291.3,574.8,284.4,557.5,284.3z"/>
	<path class="st4" d="M600.3,321c0.2,5.5-4,8.5-7.9,6.9c-1.4-0.6-2.5-1.7-3.7-2.7c-20.6-17.8-47.4-18.1-68.2-0.7
		c-5.6,4.7-8.5,5.1-11.2,1.6c-2.5-3.2-1.5-6.2,3.5-10.6c24.2-21,60.6-20.7,83.5,0.8C598.2,317.8,599.5,319.9,600.3,321z"/>
	<path class="st4" d="M580.9,340.6c0.1,5.4-4.1,8.2-8,6.6c-1-0.4-1.9-1.2-2.8-1.9c-10.7-8.3-21.2-8.3-32,0.2
		c-3.8,2.9-6.7,3.1-9.1,0.4c-2.4-2.7-1.8-6.3,1.6-9.5c12.6-11.8,34.2-11.9,46.9-0.2C579.1,337.5,580.2,339.6,580.9,340.6z"/>
	<path class="st4" d="M565.4,362.6c0.1,6.4-4.7,11.3-11.1,11.3c-6.4,0-11.3-4.9-11.3-11.2c0-5.9,4.9-10.9,10.9-11.1
		C560.2,351.4,565.3,356.3,565.4,362.6z"/>
</g>
<rect x="269.2" y="757.8" class="st5" width="541.7" height="196.8"/>
<g class="st6">
	<path class="st4" d="M359.4,800.7l-7,8.3c-3.1-3.8-7.8-6.2-12-6.2c-7.5,0-13.3,6-13.3,13.8c0,8,5.7,14,13.3,14c4,0,8.6-2.2,12-5.6
		l7.1,7.5c-5.1,5.2-12.6,8.7-19.6,8.7c-14.3,0-25-10.5-25-24.5c0-13.7,10.9-24.1,25.4-24.1C347.3,792.6,354.7,795.8,359.4,800.7z"/>
	<path class="st4" d="M377.1,802.6v9.5h22.7v9.5h-22.7v9.6H403v9.5h-38V793h37.3v9.5H377.1z"/>
	<path class="st4" d="M432.5,827.2h-0.3h-9.2v13.4h-12.1V793h21.3c12.6,0,19.8,6,19.8,16.6c0,7.3-3.1,12.5-8.6,15.3l10,15.7h-13.7
		L432.5,827.2z M432.1,817.7c5.2,0,8.3-2.7,8.3-7.7c0-5-3.1-7.5-8.3-7.5h-9.2v15.2H432.1z"/>
	<path class="st4" d="M481.7,827.2h-0.3h-9.2v13.4h-12.1V793h21.3c12.6,0,19.8,6,19.8,16.6c0,7.3-3.1,12.5-8.6,15.3l10,15.7h-13.7
		L481.7,827.2z M481.3,817.7c5.2,0,8.3-2.7,8.3-7.7c0-5-3.1-7.5-8.3-7.5h-9.2v15.2H481.3z"/>
	<path class="st4" d="M520.1,831.9l-3.5,8.8h-12.4l20.5-47.6h12.4l20.1,47.6h-12.9l-3.4-8.8H520.1z M530.6,805.1l-6.9,17.6h13.7
		L530.6,805.1z"/>
	<path class="st4" d="M582.1,793c15,0,25.3,9.7,25.3,23.8c0,14.1-10.5,23.8-25.8,23.8h-20V793H582.1z M573.8,831h8.6
		c7.4,0,12.7-5.7,12.7-14.1c0-8.4-5.6-14.2-13.3-14.2h-8.1V831z"/>
	<path class="st4" d="M656.6,820.6c0,12.6-8.4,20.5-21.7,20.5c-13.4,0-22-8-22-20.5V793h12.1v27.6c0,6.5,4.1,10.4,9.9,10.4
		c5.7,0,9.6-3.9,9.6-10.4V793h12V820.6z"/>
	<path class="st4" d="M687,827.2h-0.3h-9.2v13.4h-12.1V793h21.3c12.6,0,19.8,6,19.8,16.6c0,7.3-3.1,12.5-8.6,15.3l10,15.7h-13.7
		L687,827.2z M686.6,817.7c5.2,0,8.3-2.7,8.3-7.7c0-5-3.1-7.5-8.3-7.5h-9.2v15.2H686.6z"/>
	<path class="st4" d="M725.4,831.9l-3.5,8.8h-12.4L730,793h12.4l20.1,47.6h-12.9l-3.4-8.8H725.4z M735.9,805.1l-6.9,17.6h13.7
		L735.9,805.1z"/>
</g>
<g class="st6">
	<path class="st4" d="M306.2,884.2v9.5h22.7v9.5h-22.7v9.6h25.9v9.5h-38v-47.6h37.3v9.5H306.2z"/>
	<path class="st4" d="M372.2,912.1v10.1h-32.3v-47.6H352v37.5H372.2z"/>
	<path class="st4" d="M390.1,884.2v9.5h22.7v9.5h-22.7v9.6H416v9.5h-38v-47.6h37.3v9.5H390.1z"/>
	<path class="st4" d="M465.3,882.3l-7,8.3c-3.1-3.8-7.8-6.2-12-6.2c-7.5,0-13.3,6-13.3,13.8c0,8,5.7,14,13.3,14c4,0,8.6-2.2,12-5.6
		l7.1,7.5c-5.1,5.2-12.6,8.7-19.6,8.7c-14.3,0-25-10.5-25-24.5c0-13.7,10.9-24.1,25.4-24.1C453.2,874.2,460.5,877.4,465.3,882.3z"/>
	<path class="st4" d="M492.9,884.4v37.9h-12.1v-37.9h-14.2v-9.8h40.7v9.8H492.9z"/>
	<path class="st4" d="M534,908.8h-0.3h-9.2v13.4h-12.1v-47.6h21.3c12.6,0,19.8,6,19.8,16.6c0,7.3-3.1,12.5-8.6,15.3l10,15.7h-13.7
		L534,908.8z M533.7,899.3c5.2,0,8.3-2.7,8.3-7.7c0-5-3.1-7.5-8.3-7.5h-9.2v15.2H533.7z"/>
	<path class="st4" d="M610,898.4c0,13.9-11,24.4-25.8,24.4c-14.7,0-25.7-10.5-25.7-24.4c0-13.9,11-24.1,25.7-24.1
		C599,874.2,610,884.6,610,898.4z M570.9,898.4c0,8,6.2,14.2,13.5,14.2c7.3,0,13.2-6.2,13.2-14.2c0-8-5.8-14.1-13.2-14.1
		C577,884.4,570.9,890.4,570.9,898.4z M586.8,870.5h-9l7.2-11.4l10.6,3.7L586.8,870.5z"/>
	<path class="st4" d="M649.6,922.2l-21.9-29.3v29.3h-11.4v-47.6H627l22,29.4v-29.4h11.3v47.6H649.6z"/>
	<path class="st4" d="M669.8,922.2v-47.6h12.1v47.6H669.8z"/>
	<path class="st4" d="M732.9,882.3l-7,8.3c-3.1-3.8-7.8-6.2-12-6.2c-7.5,0-13.3,6-13.3,13.8c0,8,5.7,14,13.3,14c4,0,8.6-2.2,12-5.6
		l7.1,7.5c-5.1,5.2-12.6,8.7-19.6,8.7c-14.3,0-25-10.5-25-24.5c0-13.7,10.9-24.1,25.4-24.1C720.8,874.2,728.2,877.4,732.9,882.3z"/>
	<path class="st4" d="M748.8,913.5l-3.5,8.8h-12.4l20.5-47.6h12.4l20.1,47.6H773l-3.4-8.8H748.8z M759.3,886.7l-6.9,17.6h13.7
		L759.3,886.7z"/>
</g>
</svg>
