<?xml version="1.0" encoding="utf-8"?>
<!-- Generator: Adobe Illustrator 27.0.1, SVG Export Plug-In . SVG Version: 6.00 Build 0)  -->
<svg version="1.1" id="Capa_1" xmlns="http://www.w3.org/2000/svg" xmlns:xlink="http://www.w3.org/1999/xlink" x="0px" y="0px"
	 viewBox="0 0 1080 1080" style="enable-background:new 0 0 1080 1080;" xml:space="preserve">
<style type="text/css">
	.st0{fill:url(#SVGID_1_);}
	.st1{fill:none;stroke:#FFFFFF;stroke-width:3;stroke-miterlimit:10;}
	.st2{display:none;}
	.st3{display:inline;}
	.st4{fill:#FFFFFF;}
	.st5{fill:none;}
	.st6{enable-background:new    ;}
</style>
<g id="Capa_1_00000047746146127166173490000014897892785311581081_">
	
		<linearGradient id="SVGID_1_" gradientUnits="userSpaceOnUse" x1="2.499998e-02" y1="1377.95" x2="1080.075" y2="1377.95" gradientTransform="matrix(1 0 0 1 0 -838)">
		<stop  offset="0" style="stop-color:#E25B19"/>
		<stop  offset="1" style="stop-color:#F6A312"/>
	</linearGradient>
	<path class="st0" d="M793.1,67.8H286.9c-12.1,0-23.3,6.4-29.3,16.9L4.6,523.1c-6.1,10.5-6.1,23.4,0,33.8l253.1,438.3
		c6.1,10.5,17.2,16.9,29.3,16.9h506.1c12.1,0,23.3-6.4,29.3-16.9l253.1-438.3c6.1-10.5,6.1-23.4,0-33.8L822.4,84.8
		C816.4,74.2,805.1,67.8,793.1,67.8z"/>
	<path class="st1" d="M781.6,88.5H299.3c-12.1,0-23.3,6.4-29.3,16.9L28.8,523.1c-6.1,10.5-6.1,23.4,0,33.8l241.1,417.6
		c6.1,10.5,17.2,16.9,29.3,16.9h482.3c12.1,0,23.3-6.4,29.3-16.9l241.1-417.6c6.1-10.5,6.1-23.4,0-33.8l-241-417.6
		C804.8,94.9,793.7,88.5,781.6,88.5z"/>
</g>
<g id="LEASING" class="st2">
	<g class="st3">
		<path class="st4" d="M203,579.5v29.3h-93.4V471.2h35v108.4H203V579.5z"/>
		<path class="st4" d="M254.8,498.7V526h65.7v27.5h-65.7v27.7h74.9v27.5h-110V471.2h107.8v27.5H254.8z"/>
		<path class="st4" d="M383.7,583.5l-10,25.4h-36L397,471.2h36l58,137.7h-37.4l-9.8-25.4H383.7z M414,506l-20.1,50.9h39.7L414,506z"
			/>
		<path class="st4" d="M610.5,484.9l-13.2,27.3c-14.5-8.5-32.8-14.4-44.1-14.4c-9,0-15.1,3.3-15.1,10c0,23.8,72.8,10.2,72.8,60
			c0,27.5-24.4,42.1-55.1,42.1c-23,0-46.6-8.6-62.9-22l13.6-26.9c14.2,12.4,35.4,20.7,49.8,20.7c11,0,17.9-4.1,17.9-12
			c0-24.4-72.8-9.8-72.8-58.6c0-25.4,21.8-41.5,54.9-41.5C576.1,469.6,596.4,475.7,610.5,484.9z"/>
		<path class="st4" d="M630.1,608.8V471.2h35v137.7h-35V608.8z"/>
		<path class="st4" d="M788.8,608.8L725.5,524v84.8h-32.8V471.2h30.9l63.5,85v-85h32.7v137.7h-31L788.8,608.8L788.8,608.8z"/>
		<path class="st4" d="M969.1,538.8v53.7c-14.8,10.4-38,17.9-57.2,17.9c-41.9,0-73.6-30.3-73.6-70.4c0-39.9,32.4-70,75.9-70
			c20.5,0,42.1,7.9,56.3,20.5l-19.7,23.8c-10-9.2-24-14.9-36.8-14.9c-22.6,0-39.9,17.7-39.9,40.7c0,23.4,17.5,41.1,40.3,41.1
			c7.1,0,16.1-2.6,24.4-6.7v-35.6L969.1,538.8L969.1,538.8z"/>
	</g>
</g>
<g id="VENTAS" class="st2">
	<g class="st3">
		<path class="st4" d="M172.3,612.3L116.2,468h39.2l36.9,106.2L229.2,468h37.7l-56.7,144.3H172.3z"/>
		<path class="st4" d="M317.9,496.9v28.6h68.8v28.9h-68.8v29.1h78.5v28.9H281.2V468.1h113V497h-76.3L317.9,496.9L317.9,496.9z"/>
		<path class="st4" d="M521,612.3l-66.4-88.8v88.8h-34.4V468.1h32.4l66.6,89v-89h34.2v144.3L521,612.3L521,612.3z"/>
		<path class="st4" d="M649.1,497.5v114.8h-36.7V497.5h-43.1v-29.7h123.3v29.7H649.1z"/>
		<path class="st4" d="M725.6,585.8l-10.5,26.6h-37.7l62.2-144.3h37.7l60.8,144.3H799l-10.3-26.6H725.6z M757.4,504.5l-21,53.4H778
			L757.4,504.5z"/>
		<path class="st4" d="M963.4,482.5l-13.8,28.6c-15.2-8.9-34.4-15-46.2-15c-9.5,0-15.9,3.5-15.9,10.5c0,24.9,76.3,10.7,76.3,62.9
			c0,28.9-25.6,44.1-57.7,44.1c-24.1,0-48.9-9.1-66-23.1l14.2-28.2c14.8,13,37.1,21.6,52.2,21.6c11.5,0,18.8-4.3,18.8-12.6
			c0-25.6-76.3-10.3-76.3-61.4c0-26.6,22.9-43.5,57.5-43.5C927.3,466.4,948.5,472.8,963.4,482.5z"/>
	</g>
</g>
<g id="Capa_5">
</g>
<g id="Capa_6">
</g>
<g id="Capa_7">
</g>
<rect x="269.2" y="765.7" class="st5" width="541.7" height="196.8"/>
<g class="st6">
	<path class="st4" d="M361.1,808.6l-7,8.3c-3.1-3.8-7.8-6.2-12-6.2c-7.5,0-13.3,6-13.3,13.8c0,8,5.7,14,13.3,14c4,0,8.6-2.2,12-5.6
		l7.1,7.5c-5.1,5.2-12.6,8.7-19.6,8.7c-14.3,0-25-10.5-25-24.5c0-13.7,10.9-24.1,25.4-24.1C349,800.6,356.3,803.7,361.1,808.6z"/>
	<path class="st4" d="M414.2,824.7c0,13.9-11,24.4-25.8,24.4c-14.7,0-25.7-10.5-25.7-24.4c0-13.9,11-24.1,25.7-24.1
		C403.1,800.6,414.2,810.9,414.2,824.7z M375.1,824.8c0,8,6.2,14.2,13.5,14.2c7.3,0,13.2-6.2,13.2-14.2c0-8-5.8-14.1-13.2-14.1
		S375.1,816.7,375.1,824.8z"/>
	<path class="st4" d="M453.8,848.6l-21.9-29.3v29.3h-11.4V801h10.7l22,29.4V801h11.3v47.6H453.8z"/>
	<path class="st4" d="M496,810.7v37.9h-12.1v-37.9h-14.2v-9.8h40.7v9.8H496z"/>
	<path class="st4" d="M537.2,835.2h-0.3h-9.2v13.4h-12.1V801h21.3c12.6,0,19.8,6,19.8,16.6c0,7.3-3.1,12.5-8.6,15.3l10,15.7h-13.7
		L537.2,835.2z M536.8,825.7c5.2,0,8.3-2.7,8.3-7.7c0-5-3.1-7.5-8.3-7.5h-9.2v15.2H536.8z"/>
	<path class="st4" d="M613.1,824.7c0,13.9-11,24.4-25.8,24.4c-14.7,0-25.7-10.5-25.7-24.4c0-13.9,11-24.1,25.7-24.1
		C602.1,800.6,613.1,810.9,613.1,824.7z M574,824.8c0,8,6.2,14.2,13.5,14.2c7.3,0,13.2-6.2,13.2-14.2c0-8-5.8-14.1-13.2-14.1
		C580.2,810.7,574,816.7,574,824.8z"/>
	<path class="st4" d="M651.8,838.4v10.1h-32.3V801h12.1v37.5H651.8z"/>
	<path class="st4" d="M693.8,801c15,0,25.3,9.7,25.3,23.8c0,14.1-10.5,23.8-25.8,23.8h-20V801H693.8z M685.5,838.9h8.6
		c7.4,0,12.7-5.7,12.7-14.1c0-8.4-5.6-14.2-13.3-14.2h-8.1V838.9z"/>
	<path class="st4" d="M737.6,810.5v9.5h22.7v9.5h-22.7v9.6h25.9v9.5h-38V801h37.3v9.5H737.6z"/>
</g>
<g class="st6">
	<path class="st4" d="M411.3,921.4l-3.5,8.8h-12.4l20.5-47.6h12.4l20.1,47.6h-12.9l-3.4-8.8H411.3z M421.8,894.6l-6.9,17.6h13.7
		L421.8,894.6z"/>
	<path class="st4" d="M493,890.2l-7,8.3c-3.1-3.8-7.8-6.2-12-6.2c-7.5,0-13.3,6-13.3,13.8c0,8,5.7,14,13.3,14c4,0,8.6-2.2,12-5.6
		l7.1,7.5c-5.1,5.2-12.6,8.7-19.6,8.7c-14.3,0-25-10.5-25-24.5c0-13.7,10.9-24.1,25.4-24.1C480.9,882.2,488.3,885.3,493,890.2z"/>
	<path class="st4" d="M539.3,890.2l-7,8.3c-3.1-3.8-7.8-6.2-12-6.2c-7.5,0-13.3,6-13.3,13.8c0,8,5.7,14,13.3,14c4,0,8.6-2.2,12-5.6
		l7.1,7.5c-5.1,5.2-12.6,8.7-19.6,8.7c-14.3,0-25-10.5-25-24.5c0-13.7,10.9-24.1,25.4-24.1C527.2,882.2,534.5,885.3,539.3,890.2z"/>
	<path class="st4" d="M556.9,892.1v9.5h22.7v9.5h-22.7v9.6h25.9v9.5h-38v-47.6h37.3v9.5H556.9z"/>
	<path class="st4" d="M627.7,887.3l-4.6,9.5c-5-2.9-11.4-5-15.2-5c-3.1,0-5.2,1.2-5.2,3.5c0,8.2,25.2,3.5,25.2,20.7
		c0,9.5-8.4,14.6-19,14.6c-8,0-16.1-3-21.8-7.6l4.7-9.3c4.9,4.3,12.2,7.1,17.2,7.1c3.8,0,6.2-1.4,6.2-4.1c0-8.4-25.2-3.4-25.2-20.3
		c0-8.8,7.5-14.3,19-14.3C615.8,882,622.8,884.1,627.7,887.3z"/>
	<path class="st4" d="M682.8,906.3c0,13.9-11,24.4-25.8,24.4c-14.7,0-25.7-10.5-25.7-24.4c0-13.9,11-24.1,25.7-24.1
		C671.8,882.2,682.8,892.5,682.8,906.3z M643.7,906.4c0,8,6.2,14.2,13.5,14.2c7.3,0,13.2-6.2,13.2-14.2c0-8-5.8-14.1-13.2-14.1
		C649.8,892.3,643.7,898.3,643.7,906.4z"/>
</g>
<g>
	<path class="st4" d="M528.3,313.8c3.2,0,5.6,0,7.9,0c100.7,0,201.4,0,302.1,0c17.7,0,30.5,12,30.4,28.4c0,14.8-11.6,27.9-26.4,28.2
		c-26.9,0.5-54,0.2-81,0.2c-1.8,0-3.5,0-5.7,0c0-6.2,0-12.2,0-18.9c2.1,0,4.2,0,6.3,0c25.3,0,50.4,0.2,75.7-0.2
		c3.4-0.1,7.6-1.4,9.9-3.7c4.9-4.8,1.7-13.2-5.1-14.8c-1.5-0.4-3.2-0.3-4.7-0.3c-101.6,0-203.4,0-305,0c-1.2,0-2.4,0-4,0
		c0,6.2,0,12.1,0,18.8c68.9,0,137.9,0,207.3,0c0,6.5,0,12.3,0,18.9c-52.1,0-104.3,0-157.9,0c2.4,2.5,3.7,4.2,5.2,5.5
		c60.2,60.2,120.4,120.4,180.6,180.6c8.9,8.9,13,18.7,9.3,31c-5.9,19.3-29.3,26.3-45,13.5c-2-1.6-3.8-3.5-5.5-5.3
		c-63.1-63-126-126-189-189c-1.5-1.5-3-2.8-5.5-5.1c0,3.2,0,5.3,0,7.4c0,102.3,0,204.5,0,306.8c0,11.7-2.5,14.2-14.2,14.2
		c-66.4,0-132.8,0-199.2,0c-10.9,0-13.6-2.8-13.6-13.6c0-148.6-0.2-297.1,0.3-445.8c0.1-13.3,4.2-26.7,6.8-40
		c3.8-19.5,7.8-39,11.7-58.4c1.5-7.4,4.3-9.7,11.7-9.7c55.4,0,110.7,0,166.1,0c7.2,0,10.2,2.4,11.5,9.2c6.2,30.6,12.4,61.4,18.5,92
		c0.5,2.5,0.4,5.1,0.4,7.6C528.3,285.3,528.3,299.2,528.3,313.8z M320.7,276.3c0,120,0,239.4,0,358.7c63.1,0,125.8,0,188.4,0
		c0-119.8,0-239.1,0-358.7C446.3,276.3,383.7,276.3,320.7,276.3z M509.2,654.7c-63.1,0-125.8,0-188.4,0c0,19,0,37.6,0,56.1
		c63.1,0,125.6,0,188.4,0C509.2,692.1,509.2,673.6,509.2,654.7z M322.4,256.7c62.1,0,123.2,0,184.9,0c-5.1-25.3-10-50-14.9-74.8
		c-51.9,0-103.4,0-154.9,0C332.4,207,327.4,231.6,322.4,256.7z M528.9,370.6c-0.5,0.5-0.9,0.9-1.3,1.4c1.5,2.1,2.6,4.4,4.4,6.2
		c51.5,51.6,103,103.1,154.5,154.6c17.1,17.2,34.3,34.3,51.4,51.4c5.2,5.2,10.9,5.6,15,1.4c3.9-4.1,3.5-9.6-1.5-14.6
		c-65.8-65.9-131.7-131.8-197.7-197.7c-1.4-1.4-3.6-2.5-5.5-2.6C542,370.4,535.4,370.6,528.9,370.6z"/>
	<path class="st4" d="M414.8,446.2c-21.1,0-42.2,0-63.2,0c-9.2,0-12.4-3.2-12.4-12.4c0-35.9,0-71.8,0-107.6
		c0-9.2,3.2-12.4,12.4-12.4c42.2,0,84.3,0,126.5,0c9.2,0,12.4,3.2,12.4,12.4c0,35.9,0,71.8,0,107.6c0,9.2-3.2,12.4-12.4,12.4
		C457,446.2,435.9,446.2,414.8,446.2z M358.5,333c0,31.6,0,62.8,0,93.9c37.9,0,75.4,0,112.7,0c0-31.5,0-62.5,0-93.9
		C433.6,333,396.3,333,358.5,333z"/>
	<path class="st4" d="M414.8,247.6c-14.9,0-30,0-44.9,0c-8.5,0-11.8-3.3-11.8-11.9c-0.1-11.2-0.1-22.5,0-33.7
		c0.1-7.7,3.5-11.2,11.2-11.2c30.3-0.1,60.7-0.1,91,0c7.7,0,11.2,3.5,11.2,11.2c0.1,11.4,0.1,22.9,0,34.3
		c-0.1,7.7-3.5,11.2-11.2,11.2C445.2,247.6,430,247.6,414.8,247.6z M377.4,210.1c0,6.4,0,12.4,0,18.2c25.3,0,50.1,0,74.9,0
		c0-6.3,0-12.1,0-18.2C427.3,210.1,402.6,210.1,377.4,210.1z"/>
	<path class="st4" d="M420.1,368.5c-4-3.2-8.1-6.3-12.2-9.5c5-4.9,9.2-9,13.4-13.2c9.9,9.7,20,19.2,29.6,29.3
		c3.2,3.3,2.5,8-0.8,11.3c-9.3,9.5-18.9,18.8-28.6,28.3c-4.3-4.3-8.5-8.5-13.6-13.6c4-3.4,7.9-6.7,11.7-9.9
		c-0.2-0.5-0.5-0.9-0.7-1.4c-13.8,0-27.6,0-41.7,0c0-6.5,0-12.3,0-18.9c13.9,0,27.6,0,41.5,0C419.2,370,419.7,369.2,420.1,368.5z"/>
</g>
</svg>
