<?xml version="1.0" encoding="utf-8"?>
<!-- Generator: Adobe Illustrator 27.0.1, SVG Export Plug-In . SVG Version: 6.00 Build 0)  -->
<svg version="1.1" id="Capa_1" xmlns="http://www.w3.org/2000/svg" xmlns:xlink="http://www.w3.org/1999/xlink" x="0px" y="0px"
	 viewBox="0 0 1080 1080" style="enable-background:new 0 0 1080 1080;" xml:space="preserve">
<style type="text/css">
	.st0{fill:url(#SVGID_1_);}
	.st1{fill:none;stroke:#FFFFFF;stroke-width:3;stroke-miterlimit:10;}
	.st2{display:none;}
	.st3{display:inline;}
	.st4{fill:#FFFFFF;}
	.st5{fill:none;}
	.st6{enable-background:new    ;}
</style>
<g id="Capa_1_00000047746146127166173490000014897892785311581081_">
	
		<linearGradient id="SVGID_1_" gradientUnits="userSpaceOnUse" x1="2.499998e-02" y1="1377.95" x2="1080.075" y2="1377.95" gradientTransform="matrix(1 0 0 1 0 -838)">
		<stop  offset="0" style="stop-color:#E25B19"/>
		<stop  offset="1" style="stop-color:#F6A312"/>
	</linearGradient>
	<path class="st0" d="M793.1,67.8H286.9c-12.1,0-23.3,6.4-29.3,16.9L4.6,523.1c-6.1,10.5-6.1,23.4,0,33.8l253.1,438.3
		c6.1,10.5,17.2,16.9,29.3,16.9h506.1c12.1,0,23.3-6.4,29.3-16.9l253.1-438.3c6.1-10.5,6.1-23.4,0-33.8L822.4,84.8
		C816.4,74.2,805.1,67.8,793.1,67.8z"/>
	<path class="st1" d="M781.6,88.5H299.3c-12.1,0-23.3,6.4-29.3,16.9L28.8,523.1c-6.1,10.5-6.1,23.4,0,33.8l241.1,417.6
		c6.1,10.5,17.2,16.9,29.3,16.9h482.3c12.1,0,23.3-6.4,29.3-16.9l241.1-417.6c6.1-10.5,6.1-23.4,0-33.8l-241-417.6
		C804.8,94.9,793.7,88.5,781.6,88.5z"/>
</g>
<g id="LEASING" class="st2">
	<g class="st3">
		<path class="st4" d="M203,579.5v29.3h-93.4V471.2h35v108.4H203V579.5z"/>
		<path class="st4" d="M254.8,498.7V526h65.7v27.5h-65.7v27.7h74.9v27.5h-110V471.2h107.8v27.5H254.8z"/>
		<path class="st4" d="M383.7,583.5l-10,25.4h-36L397,471.2h36l58,137.7h-37.4l-9.8-25.4H383.7z M414,506l-20.1,50.9h39.7L414,506z"
			/>
		<path class="st4" d="M610.5,484.9l-13.2,27.3c-14.5-8.5-32.8-14.4-44.1-14.4c-9,0-15.1,3.3-15.1,10c0,23.8,72.8,10.2,72.8,60
			c0,27.5-24.4,42.1-55.1,42.1c-23,0-46.6-8.6-62.9-22l13.6-26.9c14.2,12.4,35.4,20.7,49.8,20.7c11,0,17.9-4.1,17.9-12
			c0-24.4-72.8-9.8-72.8-58.6c0-25.4,21.8-41.5,54.9-41.5C576.1,469.6,596.4,475.7,610.5,484.9z"/>
		<path class="st4" d="M630.1,608.8V471.2h35v137.7h-35V608.8z"/>
		<path class="st4" d="M788.8,608.8L725.5,524v84.8h-32.8V471.2h30.9l63.5,85v-85h32.7v137.7h-31L788.8,608.8L788.8,608.8z"/>
		<path class="st4" d="M969.1,538.8v53.7c-14.8,10.4-38,17.9-57.2,17.9c-41.9,0-73.6-30.3-73.6-70.4c0-39.9,32.4-70,75.9-70
			c20.5,0,42.1,7.9,56.3,20.5l-19.7,23.8c-10-9.2-24-14.9-36.8-14.9c-22.6,0-39.9,17.7-39.9,40.7c0,23.4,17.5,41.1,40.3,41.1
			c7.1,0,16.1-2.6,24.4-6.7v-35.6L969.1,538.8L969.1,538.8z"/>
	</g>
</g>
<g id="VENTAS" class="st2">
	<g class="st3">
		<path class="st4" d="M172.3,612.3L116.2,468h39.2l36.9,106.2L229.2,468h37.7l-56.7,144.3H172.3z"/>
		<path class="st4" d="M317.9,496.9v28.6h68.8v28.9h-68.8v29.1h78.5v28.9H281.2V468.1h113V497h-76.3L317.9,496.9L317.9,496.9z"/>
		<path class="st4" d="M521,612.3l-66.4-88.8v88.8h-34.4V468.1h32.4l66.6,89v-89h34.2v144.3L521,612.3L521,612.3z"/>
		<path class="st4" d="M649.1,497.5v114.8h-36.7V497.5h-43.1v-29.7h123.3v29.7H649.1z"/>
		<path class="st4" d="M725.6,585.8l-10.5,26.6h-37.7l62.2-144.3h37.7l60.8,144.3H799l-10.3-26.6H725.6z M757.4,504.5l-21,53.4H778
			L757.4,504.5z"/>
		<path class="st4" d="M963.4,482.5l-13.8,28.6c-15.2-8.9-34.4-15-46.2-15c-9.5,0-15.9,3.5-15.9,10.5c0,24.9,76.3,10.7,76.3,62.9
			c0,28.9-25.6,44.1-57.7,44.1c-24.1,0-48.9-9.1-66-23.1l14.2-28.2c14.8,13,37.1,21.6,52.2,21.6c11.5,0,18.8-4.3,18.8-12.6
			c0-25.6-76.3-10.3-76.3-61.4c0-26.6,22.9-43.5,57.5-43.5C927.3,466.4,948.5,472.8,963.4,482.5z"/>
	</g>
</g>
<g id="Capa_5">
</g>
<g id="Capa_6">
</g>
<g id="Capa_7">
</g>
<rect x="269.2" y="765.7" class="st5" width="541.7" height="196.8"/>
<g class="st6">
	<path class="st4" d="M361.1,808.6l-7,8.3c-3.1-3.8-7.8-6.2-12-6.2c-7.5,0-13.3,6-13.3,13.8c0,8,5.7,14,13.3,14c4,0,8.6-2.2,12-5.6
		l7.1,7.5c-5.1,5.2-12.6,8.7-19.6,8.7c-14.3,0-25-10.5-25-24.5c0-13.7,10.9-24.1,25.4-24.1C349,800.6,356.3,803.7,361.1,808.6z"/>
	<path class="st4" d="M414.2,824.7c0,13.9-11,24.4-25.8,24.4c-14.7,0-25.7-10.5-25.7-24.4c0-13.9,11-24.1,25.7-24.1
		C403.1,800.6,414.2,810.9,414.2,824.7z M375.1,824.8c0,8,6.2,14.2,13.5,14.2c7.3,0,13.2-6.2,13.2-14.2c0-8-5.8-14.1-13.2-14.1
		S375.1,816.7,375.1,824.8z"/>
	<path class="st4" d="M453.8,848.6l-21.9-29.3v29.3h-11.4V801h10.7l22,29.4V801h11.3v47.6H453.8z"/>
	<path class="st4" d="M496,810.7v37.9h-12.1v-37.9h-14.2v-9.8h40.7v9.8H496z"/>
	<path class="st4" d="M537.2,835.2h-0.3h-9.2v13.4h-12.1V801h21.3c12.6,0,19.8,6,19.8,16.6c0,7.3-3.1,12.5-8.6,15.3l10,15.7h-13.7
		L537.2,835.2z M536.8,825.7c5.2,0,8.3-2.7,8.3-7.7c0-5-3.1-7.5-8.3-7.5h-9.2v15.2H536.8z"/>
	<path class="st4" d="M613.1,824.7c0,13.9-11,24.4-25.8,24.4c-14.7,0-25.7-10.5-25.7-24.4c0-13.9,11-24.1,25.7-24.1
		C602.1,800.6,613.1,810.9,613.1,824.7z M574,824.8c0,8,6.2,14.2,13.5,14.2c7.3,0,13.2-6.2,13.2-14.2c0-8-5.8-14.1-13.2-14.1
		C580.2,810.7,574,816.7,574,824.8z"/>
	<path class="st4" d="M651.8,838.4v10.1h-32.3V801h12.1v37.5H651.8z"/>
	<path class="st4" d="M693.8,801c15,0,25.3,9.7,25.3,23.8c0,14.1-10.5,23.8-25.8,23.8h-20V801H693.8z M685.5,838.9h8.6
		c7.4,0,12.7-5.7,12.7-14.1c0-8.4-5.6-14.2-13.3-14.2h-8.1V838.9z"/>
	<path class="st4" d="M737.6,810.5v9.5h22.7v9.5h-22.7v9.6h25.9v9.5h-38V801h37.3v9.5H737.6z"/>
</g>
<g class="st6">
	<path class="st4" d="M345,921.4l-3.5,8.8h-12.4l20.5-47.6h12.4l20.1,47.6h-12.9l-3.4-8.8H345z M355.5,894.6l-6.9,17.6h13.7
		L355.5,894.6z"/>
	<path class="st4" d="M423.4,887.3l-4.6,9.5c-5-2.9-11.4-5-15.2-5c-3.1,0-5.2,1.2-5.2,3.5c0,8.2,25.2,3.5,25.2,20.7
		c0,9.5-8.4,14.6-19,14.6c-8,0-16.1-3-21.8-7.6l4.7-9.3c4.9,4.3,12.2,7.1,17.2,7.1c3.8,0,6.2-1.4,6.2-4.1c0-8.4-25.2-3.4-25.2-20.3
		c0-8.8,7.5-14.3,19-14.3C411.5,882,418.5,884.1,423.4,887.3z"/>
	<path class="st4" d="M430.1,930.2v-47.6h12.1v47.6H430.1z"/>
	<path class="st4" d="M488.8,887.3l-4.6,9.5c-5-2.9-11.4-5-15.2-5c-3.1,0-5.2,1.2-5.2,3.5c0,8.2,25.2,3.5,25.2,20.7
		c0,9.5-8.4,14.6-19,14.6c-8,0-16.1-3-21.8-7.6l4.7-9.3c4.9,4.3,12.2,7.1,17.2,7.1c3.8,0,6.2-1.4,6.2-4.1c0-8.4-25.2-3.4-25.2-20.3
		c0-8.8,7.5-14.3,19-14.3C476.9,882,483.9,884.1,488.8,887.3z"/>
	<path class="st4" d="M517.6,892.3v37.9h-12.1v-37.9h-14.2v-9.8h40.7v9.8H517.6z"/>
	<path class="st4" d="M549.2,892.1v9.5h22.7v9.5h-22.7v9.6h25.9v9.5h-38v-47.6h37.3v9.5H549.2z"/>
	<path class="st4" d="M616.2,930.2l-21.9-29.3v29.3h-11.4v-47.6h10.7l22,29.4v-29.4h11.3v47.6H616.2z"/>
	<path class="st4" d="M677.8,890.2l-7,8.3c-3.1-3.8-7.8-6.2-12-6.2c-7.5,0-13.3,6-13.3,13.8c0,8,5.7,14,13.3,14c4,0,8.6-2.2,12-5.6
		l7.1,7.5c-5.1,5.2-12.6,8.7-19.7,8.7c-14.3,0-25-10.5-25-24.5c0-13.7,10.9-24.1,25.4-24.1C665.7,882.2,673.1,885.3,677.8,890.2z"/>
	<path class="st4" d="M683.4,930.2v-47.6h12.1v47.6H683.4z"/>
	<path class="st4" d="M715.9,921.4l-3.5,8.8H700l20.5-47.6h12.4l20.1,47.6h-12.9l-3.4-8.8H715.9z M726.3,894.6l-6.9,17.6h13.7
		L726.3,894.6z"/>
</g>
<g>
	<g>
		<path class="st4" d="M419.2,164.2c0,12.1,0,24.3,0,37.1c-18.7,0-37,0-55.6,0c0,18.8,0,36.9,0,55.9c-12.7,0-25,0-37.3,0
			c0-30.9,0-61.8,0-93C357.2,164.2,388.2,164.2,419.2,164.2z"/>
		<path class="st4" d="M753.8,164.2c0,30.7,0,61.5,0,92.6c-12.4,0-24.5,0-37,0c0-18.3,0-36.4,0-55.1c-18.7,0-36.9,0-56,0
			c0-12.9,0-25.2,0-37.5C691.8,164.2,722.8,164.2,753.8,164.2z"/>
		<path class="st4" d="M326.2,629.2c12.1,0,24.3,0,37.1,0c0,18.7,0,37,0,55.6c18.7,0,36.8,0,55.4,0c0,12.5,0,24.5,0,37.4
			c-30.7,0-61.6,0-92.5,0C326.2,691.2,326.2,660.2,326.2,629.2z"/>
		<path class="st4" d="M410,434c0-33.5-1.1-67,0.2-100.5c2.1-54.4,39.9-102.6,94.6-118.1c74.5-21.1,151.5,28,163.8,104.9
			c0.7,4.3,1.3,8.9,1.3,13.3c0.1,33.5,0.1,67,0.1,100.5l0.1-0.1c-6.1,0-12.2,0-18.7,0c0-2.8,0-4.9,0-7c0-27.6,0.3-55.4-0.1-83
			c-0.1-10-1.1-20.2-3.5-29.8c-14.1-56.7-68.5-92.4-125.2-83.1c-56.1,9.3-94.1,55.2-94.2,112.4c-0.1,28.1,0,56.1,0,84.2
			c0,2,0,4.1,0,6.4c-6.7,0-12.7,0-18.7,0C409.8,433.8,410,434,410,434z"/>
		<path class="st4" d="M670,452.4c0,33.5,1.2,67-0.2,100.5c-2.4,57.5-43.5,106.2-99.2,119.2c-72.1,16.8-141.1-26.4-157.8-98.6
			c-1.6-6.7-2.7-13.7-2.8-20.6c-0.3-33.5-0.1-67-0.1-100.5l-0.1,0.1c6.1,0,12.2,0,18.7,0c0,2.8,0,4.9,0,7c0,27.3-0.1,54.6,0.1,81.9
			c0.1,8.3,0.8,16.6,2.2,24.8c10.6,61.3,73.6,102.5,133.9,87.9c51.8-12.5,86.6-56.4,86.8-109.8c0.1-28.4,0.1-56.9,0.1-85.4
			c0-2,0-4.1,0-6.4c6.7,0,12.7,0,18.7,0C670.2,452.5,670,452.4,670,452.4z"/>
		<path class="st4" d="M753.3,721.9c-30.9,0-61.4,0-92.2,0c0-12.2,0-24.2,0-36.7c18.3,0,36.5,0,55.4,0c0-18.8,0-37.2,0-55.7
			c12.5,0,24.5,0,36.8,0C753.3,660.1,753.3,690.8,753.3,721.9z"/>
		<path class="st4" d="M410,452.4c-21.4,0-42.9,0-64.7,0c0-6.1,0-11.9,0-18.5c21.6,0,43.1,0,64.7,0l-0.1-0.1c0,6.2,0,12.5,0,18.8
			L410,452.4z"/>
		<path class="st4" d="M670,434c21.4,0,42.9,0,64.7,0c0,6.1,0,11.9,0,18.5c-21.6,0-43.1,0-64.7,0l0.1,0.1c0-6.2,0-12.5,0-18.8
			L670,434z"/>
		<path class="st4" d="M447.1,452.7c6.4,0,12.1,0,18.3,0c0,24.6,0,48.9,0,73.7c6.3,0,12.1,0,18.7,0c0-24.3,0-48.8,0-73.6
			c6.4,0,12.1,0,18.5,0c0,24.4,0,48.9,0,73.7c6.5,0,12.3,0,18.7,0c0-24.4,0-48.8,0-73.6c12.5,0,24.6,0,37.3,0c0,24.4,0,48.9,0,73.7
			c6.4,0,12.1,0,18.5,0c0-24.4,0-48.9,0-73.7c6.5,0,12.3,0,18.7,0c0,24.5,0,48.9,0,73.6c6.3,0,12.1,0,18.7,0c0-24.5,0-48.9,0-73.7
			c6.4,0,12.1,0,18.4,0c0.1,1.9,0.3,3.7,0.3,5.6c0,29.4,0.1,58.9,0,88.3c-0.1,46.9-36.3,86.6-83.5,91.6
			c-45.6,4.9-89.6-26.2-99.8-70.8c-1.6-7.1-2.4-14.5-2.4-21.9C446.9,514.9,447.1,484.1,447.1,452.7z M465.9,545.5
			c-0.6,40.8,34.8,75.5,75.5,74.3c45.4-1.4,73.5-39.2,72.6-74c-5.9,0-11.8,0-17.7,0c-4.7,33.2-24.9,54.4-52.4,55.5
			c-14.1,0.6-26.8-2.9-38-11.6c-14.3-11.1-21.2-26-22.1-44.3c-4.9,0-9.3,0-13.7,0C468.9,545.5,467.6,545.5,465.9,545.5z
			 M558.9,545.7c-1.8,11.3-8.5,18.1-18,18.4c-10.6,0.3-17.2-5.7-20.1-18.3c-5.9,0-11.8,0-17.7,0c0.8,21.5,18.5,38.1,38.6,36.8
			c20-1.3,36.2-18.5,34.8-36.9C570.8,545.7,565.1,545.7,558.9,545.7z"/>
		<path class="st4" d="M465.8,433.8c-6.6,0-12.2,0-18.8,0c0-1.9,0-3.7,0-5.5c0-29.6-0.1-59.3,0-88.9c0.1-46.8,38.1-87.8,84.5-91.3
			c49.6-3.7,93.4,30.5,100.1,78.6c0.7,4.7,1.1,9.7,1.1,14.4c0.1,30.6,0.1,61.2,0.1,92.3c-6,0-11.9,0-18.5,0c0-24.3,0-48.8,0-73.6
			c-6.4,0-12.1,0-18.5,0c0,24.4,0,48.9,0,73.7c-6.5,0-12.3,0-18.7,0c0-24.4,0-48.8,0-73.6c-6.3,0-12.1,0-18.7,0
			c0,24.4,0,48.9,0,73.6c-12.5,0-24.5,0-37,0c0-24.4,0-48.9,0-73.7c-6.5,0-12.3,0-18.7,0c0,24.5,0,48.9,0,73.6c-6.3,0-12.1,0-18.7,0
			c0-24.5,0-48.9,0-73.7c-6.4,0-12.1,0-18.5,0C465.8,384.2,465.8,408.7,465.8,433.8z M483.9,340.6c1.9-36.6,30.1-54.9,53.1-55.5
			c33-0.9,54.2,19,59.4,55.4c5.8,0,11.8,0,18.1,0c-1.4-28-13.1-50-37.3-63.8c-25.8-14.9-52.3-14.1-77.4,1.9
			c-22.3,14.2-33,35.3-34.1,61.9C472,340.6,477.7,340.6,483.9,340.6z M576.7,340.6c0.4-19.8-16.3-36.6-36.4-36.9
			c-20.2-0.3-37.1,16.4-37.2,36.9c5.9,0,11.9,0,17.8,0c2.2-11.4,8.6-18.3,17.9-18.1c4.1,0.1,9.1,1,11.8,3.4
			c4.1,3.7,6.7,9.3,10.4,14.7C565.3,340.6,571,340.6,576.7,340.6z"/>
	</g>
</g>
</svg>
