<?xml version="1.0" encoding="utf-8"?>
<!-- Generator: Adobe Illustrator 27.0.1, SVG Export Plug-In . SVG Version: 6.00 Build 0)  -->
<svg version="1.1" id="Capa_1" xmlns="http://www.w3.org/2000/svg" xmlns:xlink="http://www.w3.org/1999/xlink" x="0px" y="0px"
	 viewBox="0 0 1080 1080" style="enable-background:new 0 0 1080 1080;" xml:space="preserve">
<style type="text/css">
	.st0{fill:url(#SVGID_1_);}
	.st1{fill:none;stroke:#FFFFFF;stroke-width:3;stroke-miterlimit:10;}
	.st2{display:none;}
	.st3{display:inline;}
	.st4{fill:#FFFFFF;}
</style>
<g id="Capa_1_00000047746146127166173490000014897892785311581081_">
	
		<linearGradient id="SVGID_1_" gradientUnits="userSpaceOnUse" x1="2.499998e-02" y1="481.95" x2="1080.075" y2="481.95" gradientTransform="matrix(1 0 0 1 0 58)">
		<stop  offset="0" style="stop-color:#E25B19"/>
		<stop  offset="1" style="stop-color:#F6A312"/>
	</linearGradient>
	<path class="st0" d="M793.1,67.8H286.9c-12.1,0-23.3,6.4-29.3,16.9L4.6,523.1c-6.1,10.5-6.1,23.4,0,33.8l253.1,438.3
		c6.1,10.5,17.2,16.9,29.3,16.9h506.1c12.1,0,23.3-6.4,29.3-16.9l253.1-438.3c6.1-10.5,6.1-23.4,0-33.8L822.4,84.8
		C816.4,74.2,805.1,67.8,793.1,67.8z"/>
	<path class="st1" d="M781.6,88.5H299.3c-12.1,0-23.3,6.4-29.3,16.9L28.8,523.1c-6.1,10.5-6.1,23.4,0,33.8l241.1,417.6
		c6.1,10.5,17.2,16.9,29.3,16.9h482.3c12.1,0,23.3-6.4,29.3-16.9l241.1-417.6c6.1-10.5,6.1-23.4,0-33.8l-241-417.6
		C804.8,94.9,793.7,88.5,781.6,88.5z"/>
</g>
<g id="LEASING" class="st2">
	<g class="st3">
		<path class="st4" d="M203,579.5v29.3h-93.4V471.2h35v108.4H203V579.5z"/>
		<path class="st4" d="M254.8,498.7V526h65.7v27.5h-65.7v27.7h74.9v27.5h-110V471.2h107.8v27.5H254.8z"/>
		<path class="st4" d="M383.7,583.5l-10,25.4h-36L397,471.2h36l58,137.7h-37.4l-9.8-25.4H383.7z M414,506l-20.1,50.9h39.7L414,506z"
			/>
		<path class="st4" d="M610.5,484.9l-13.2,27.3c-14.5-8.5-32.8-14.4-44.1-14.4c-9,0-15.1,3.3-15.1,10c0,23.8,72.8,10.2,72.8,60
			c0,27.5-24.4,42.1-55.1,42.1c-23,0-46.6-8.6-62.9-22l13.6-26.9c14.2,12.4,35.4,20.7,49.8,20.7c11,0,17.9-4.1,17.9-12
			c0-24.4-72.8-9.8-72.8-58.6c0-25.4,21.8-41.5,54.9-41.5C576.1,469.6,596.4,475.7,610.5,484.9z"/>
		<path class="st4" d="M630.1,608.8V471.2h35v137.7h-35V608.8z"/>
		<path class="st4" d="M788.8,608.8L725.5,524v84.8h-32.8V471.2h30.9l63.5,85v-85h32.7v137.7h-31L788.8,608.8L788.8,608.8z"/>
		<path class="st4" d="M969.1,538.8v53.7c-14.8,10.4-38,17.9-57.2,17.9c-41.9,0-73.6-30.3-73.6-70.4c0-39.9,32.4-70,75.9-70
			c20.5,0,42.1,7.9,56.3,20.5l-19.7,23.8c-10-9.2-24-14.9-36.8-14.9c-22.6,0-39.9,17.7-39.9,40.7c0,23.4,17.5,41.1,40.3,41.1
			c7.1,0,16.1-2.6,24.4-6.7v-35.6L969.1,538.8L969.1,538.8z"/>
	</g>
</g>
<g id="VENTAS" class="st2">
	<g class="st3">
		<path class="st4" d="M172.3,612.3L116.2,468h39.2l36.9,106.2L229.2,468h37.7l-56.7,144.3H172.3z"/>
		<path class="st4" d="M317.9,496.9v28.6h68.8v28.9h-68.8v29.1h78.5v28.9H281.2V468.1h113V497h-76.3L317.9,496.9L317.9,496.9z"/>
		<path class="st4" d="M521,612.3l-66.4-88.8v88.8h-34.4V468.1h32.4l66.6,89v-89h34.2v144.3L521,612.3L521,612.3z"/>
		<path class="st4" d="M649.1,497.5v114.8h-36.7V497.5h-43.1v-29.7h123.3v29.7H649.1z"/>
		<path class="st4" d="M725.6,585.8l-10.5,26.6h-37.7l62.2-144.3h37.7l60.8,144.3H799l-10.3-26.6H725.6z M757.4,504.5l-21,53.4H778
			L757.4,504.5z"/>
		<path class="st4" d="M963.4,482.5l-13.8,28.6c-15.2-8.9-34.4-15-46.2-15c-9.5,0-15.9,3.5-15.9,10.5c0,24.9,76.3,10.7,76.3,62.9
			c0,28.9-25.6,44.1-57.7,44.1c-24.1,0-48.9-9.1-66-23.1l14.2-28.2c14.8,13,37.1,21.6,52.2,21.6c11.5,0,18.8-4.3,18.8-12.6
			c0-25.6-76.3-10.3-76.3-61.4c0-26.6,22.9-43.5,57.5-43.5C927.3,466.4,948.5,472.8,963.4,482.5z"/>
	</g>
</g>
<g id="Capa_5">
</g>
<g id="Capa_6">
</g>
<g id="Capa_7">
</g>
<g>
	<path class="st4" d="M427.5,365l-20.1,22.3v37.2h-38.5V273.1h38.5v65.6l58-65.6h44.6l-56.3,62.7l59.9,88.7h-46.1L427.5,365z"/>
	<path class="st4" d="M530.5,424.5V273.1h38.5v151.6h-38.5V424.5z"/>
	<path class="st4" d="M669.5,303.9v120.6H631V303.9h-45.2v-31.2h129.5v31.2H669.5z"/>
	<path class="st4" d="M196.6,532.8c34,0,55.6,14.7,55.6,37.8c0,16-10,28.8-25.9,33.3c19.1,3.6,31.2,18.6,31.2,38.3
		c0,25.7-22.5,42-58.2,42H125V532.8H196.6z M163.3,593.3h31.2c11.3,0,18.4-6.1,18.4-15.8c0-9.8-7.2-15.3-18.4-15.3h-31.2V593.3z
		 M163.3,654.6h31.2c14.3,0,23.2-6.3,23.2-17.1c0-10.2-8.9-16.4-23.2-16.4h-31.2V654.6z"/>
	<path class="st4" d="M314.2,656.4l-11,27.9h-39.7l65.4-151.6h39.7l63.9,151.6h-41.2l-10.8-27.9H314.2z M347.5,571l-22.1,56.1h43.7
		L347.5,571z"/>
	<path class="st4" d="M563.7,547.9L549.2,578c-16-9.3-36.1-15.8-48.4-15.8c-10,0-16.6,3.6-16.6,11c0,26.2,80.1,11.3,80.1,66
		c0,30.3-26.8,46.3-60.6,46.3c-25.3,0-51.3-9.5-69.2-24.2l14.9-29.7c15.5,13.6,38.9,22.7,54.8,22.7c12.1,0,19.7-4.5,19.7-13.2
		c0-26.8-80.1-10.8-80.1-64.5c0-27.9,24-45.7,60.3-45.7C525.9,531.1,548.1,537.7,563.7,547.9z"/>
	<path class="st4" d="M585.1,684.2V532.8h38.5v151.6h-38.5V684.2z"/>
	<path class="st4" d="M786,557l-22.3,26.4c-10-12.1-24.7-19.7-38-19.7c-24,0-42.2,19.1-42.2,43.9c0,25.3,18.2,44.6,42.2,44.6
		c12.8,0,27.4-7,38-17.8l22.5,23.8c-16.2,16.6-40.3,27.7-62.6,27.7c-45.7,0-79.6-33.5-79.6-77.9c0-43.7,34.8-76.6,80.9-76.6
		C747.5,531.5,770.9,541.5,786,557z"/>
	<path class="st4" d="M955,608.3c0,44.2-35,77.7-82,77.7c-46.7,0-81.8-33.3-81.8-77.7c0-44.2,35-76.8,81.8-76.8
		C920,531.5,955,564.4,955,608.3z M830.6,608.6c0,25.5,19.7,45.2,42.9,45.2c23.4,0,42-19.7,42-45.2c0-25.5-18.6-44.8-42-44.8
		S830.6,582.9,830.6,608.6z"/>
</g>
<g>
	<path class="st4" d="M258.4,758.4l-5.7,6.7c-2.5-3.1-6.3-5-9.7-5c-6.1,0-10.8,4.9-10.8,11.2c0,6.5,4.6,11.4,10.8,11.4
		c3.3,0,7-1.8,9.7-4.5l5.7,6.1c-4.1,4.3-10.3,7.1-15.9,7.1c-11.6,0-20.3-8.6-20.3-19.9c0-11.1,8.9-19.5,20.6-19.5
		C248.6,751.9,254.6,754.4,258.4,758.4z"/>
	<path class="st4" d="M271.4,783.7l-2.8,7.1h-10.1l16.7-38.6h10.1l16.3,38.6H291l-2.8-7.1H271.4z M279.9,762l-5.6,14.3h11.1
		L279.9,762z M275.2,748.8l5.9-9.3l8.6,3l-7.2,6.2H275.2z"/>
	<path class="st4" d="M338.9,790.8l-0.1-25.1l-9.3,21.2h-6.4l-9.3-21.2v25.1h-8.8v-38.7h10.8l10.5,23l10.5-23h10.7v38.7H338.9z"/>
	<path class="st4" d="M364.1,783.7l-2.8,7.1h-10.1l16.7-38.6H378l16.3,38.6h-10.5l-2.8-7.1H364.1z M372.6,762l-5.6,14.3h11.1
		L372.6,762z"/>
	<path class="st4" d="M415.4,780h-0.3h-7.4v10.9h-9.8v-38.6h17.3c10.2,0,16.1,4.9,16.1,13.5c0,5.9-2.5,10.2-7,12.4l8.1,12.7h-11.1
		L415.4,780z M415.1,772.2c4.3,0,6.7-2.2,6.7-6.2c0-4-2.5-6.1-6.7-6.1h-7.4v12.3H415.1z"/>
	<path class="st4" d="M446.6,783.7l-2.8,7.1h-10.1l16.7-38.6h10.1l16.3,38.6h-10.5l-2.8-7.1H446.6z M455.1,762l-5.6,14.3h11.1
		L455.1,762z"/>
	<path class="st4" d="M510.3,756.1l-3.7,7.7c-4.1-2.4-9.2-4-12.4-4c-2.5,0-4.2,0.9-4.2,2.8c0,6.7,20.4,2.9,20.4,16.8
		c0,7.7-6.8,11.8-15.5,11.8c-6.5,0-13.1-2.4-17.7-6.2l3.8-7.6c4,3.5,9.9,5.8,14,5.8c3.1,0,5-1.2,5-3.4c0-6.8-20.4-2.8-20.4-16.4
		c0-7.1,6.1-11.6,15.4-11.6C500.6,751.8,506.3,753.5,510.3,756.1z"/>
	<path class="st4" d="M548.5,790.8h-9.8v-12.2l-14.3-26.4h9.8l9.3,16.8l9.1-16.8h9.8l-14,26.2V790.8z"/>
	<path class="st4" d="M587.7,783.7l-2.8,7.1h-10.1l16.7-38.6h10.1l16.3,38.6h-10.5l-2.8-7.1H587.7z M596.2,762l-5.6,14.3h11.1
		L596.2,762z"/>
	<path class="st4" d="M647.6,782.6v8.2h-26.2v-38.6h9.8v30.4H647.6z"/>
	<path class="st4" d="M661.3,783.7l-2.8,7.1h-10.1l16.7-38.6h10.1l16.3,38.6h-10.5l-2.8-7.1H661.3z M669.8,762l-5.6,14.3h11.1
		L669.8,762z"/>
	<path class="st4" d="M712.6,780h-0.3h-7.4v10.9H695v-38.6h17.3c10.2,0,16.1,4.9,16.1,13.5c0,5.9-2.5,10.2-7,12.4l8.1,12.7h-11.1
		L712.6,780z M712.3,772.2c4.3,0,6.7-2.2,6.7-6.2c0-4-2.5-6.1-6.7-6.1h-7.4v12.3H712.3z"/>
	<path class="st4" d="M768.8,790.8l-0.1-25.1l-9.3,21.2H753l-9.3-21.2v25.1H735v-38.7h10.8l10.5,23l10.5-23h10.7v38.7H768.8z"/>
	<path class="st4" d="M794,783.7l-2.8,7.1h-10.1l16.7-38.6h10.1l16.3,38.6h-10.5l-2.8-7.1H794z M802.5,762l-5.6,14.3H808L802.5,762z
		"/>
	<path class="st4" d="M857.7,756.1l-3.7,7.7c-4.1-2.4-9.2-4-12.4-4c-2.5,0-4.2,0.9-4.2,2.8c0,6.7,20.4,2.9,20.4,16.8
		c0,7.7-6.8,11.8-15.5,11.8c-6.5,0-13.1-2.4-17.7-6.2l3.8-7.6c4,3.5,9.9,5.8,14,5.8c3.1,0,5-1.2,5-3.4c0-6.8-20.4-2.8-20.4-16.4
		c0-7.1,6.1-11.6,15.4-11.6C848,751.8,853.7,753.5,857.7,756.1z"/>
</g>
<rect x="205" y="708.8" class="st4" width="670" height="8"/>
</svg>
