<?xml version="1.0" encoding="utf-8"?>
<!-- Generator: Adobe Illustrator 26.1.0, SVG Export Plug-In . SVG Version: 6.00 Build 0)  -->
<svg version="1.1" id="Capa_1" xmlns="http://www.w3.org/2000/svg" xmlns:xlink="http://www.w3.org/1999/xlink" x="0px" y="0px"
	 viewBox="0 0 1920 1074.41" style="enable-background:new 0 0 1920 1074.41;" xml:space="preserve">
<style type="text/css">
	.st0{fill:#E25C1B;}
	.st1{fill:#F0AB07;}
</style>
<g>
	<path class="st0" d="M338.76,958.73c-4.84-1.14-9.78-1.98-14.51-3.47c-28.63-9.03-42.87-30.13-46.8-58.49
		c-3.35-24.23,1.44-46.99,18.11-65.98c27.94-31.84,79-26.74,97.34,9.59c1,1.97,1.77,4.06,2.78,6.4c-3.9,2.16-7.26,4.03-10.91,6.05
		c-0.74-1.03-1.55-1.83-1.98-2.8c-7.97-18.07-21.61-28.24-41.55-28.17c-20.06,0.08-34.42,10.39-42.81,28.1
		c-10.43,22-10.68,44.75-0.77,67.01c12.39,27.82,51.21,38.79,76.9,22.33c6.05-3.88,8.14-9.56,8.14-16.36c0-13,0-25.99,0-39.45
		c4.66,0,8.84,0,13.72,0c0,18.18,0.1,36.18-0.16,54.18c-0.03,1.82-1.96,3.98-3.56,5.34c-9.9,8.39-21.79,12.18-34.35,14.31
		c-1.97,0.34-3.9,0.93-5.85,1.4C347.92,958.73,343.34,958.73,338.76,958.73z"/>
	<path class="st0" d="M476.1,958.73c-2.34-0.62-4.66-1.33-7.01-1.86c-22.85-5.18-37.41-22.55-37.91-47.45
		c-0.63-31.53-0.14-63.09-0.12-94.63c0-0.65,0.25-1.3,0.47-2.4c3.99,0,8,0,12.98,0c0,2.24,0,4.66,0,7.08
		c0,26.97-0.12,53.95,0.09,80.92c0.05,6.35,0.45,12.88,1.97,19.01c4.43,17.81,18.91,27.62,38.64,26.98
		c19.09-0.63,32.63-11.59,36.06-29.51c0.85-4.46,1.22-9.07,1.24-13.61c0.11-27.66,0.06-55.32,0.06-82.98c0-2.48,0-4.96,0-7.9
		c4.64,0,8.82,0,13.4,0c0.12,2.24,0.32,4.24,0.32,6.24c0.02,28.8,0.25,57.61-0.07,86.41c-0.22,20.09-6.4,37.59-25.69,47.25
		c-6.38,3.19-13.77,4.37-20.7,6.46C485.25,958.73,480.67,958.73,476.1,958.73z"/>
	<path class="st0" d="M1247.91,958.73c-5.2-1.4-10.5-2.49-15.57-4.26c-11.57-4.03-21.19-10.54-26.65-22.43
		c2.9-2.67,5.71-5.27,9.15-8.44c6.97,12.94,17.77,20.15,31.58,21.89c7.11,0.9,14.67,0.68,21.69-0.75
		c12.48-2.54,20.59-12.7,21.22-24.55c0.7-13.16-4.79-21.43-18.53-26.03c-8.84-2.96-18.1-4.66-27.15-7.03
		c-22.68-5.94-32.91-18.67-31.57-39.77c0.84-13.28,7.57-23.25,18.76-30.17c18.4-11.38,46.54-9.34,63.01,4.77
		c3.7,3.17,6.51,7.37,10.06,11.48c-3.71,3.26-6.59,5.79-10.09,8.87c-6.62-12.36-17.05-18.72-30.48-20.46
		c-17.04-2.21-31.67,5.57-36.14,19.29c-4.74,14.55,1.04,27.47,15.48,32.53c8.57,3,17.67,4.53,26.52,6.75c2.43,0.61,4.89,1.18,7.26,2
		c17.7,6.08,26.92,17.91,27.06,34.59c0.13,16.69-9.94,31.22-26.23,37.29c-5.06,1.88-10.41,2.98-15.62,4.43
		C1257.07,958.73,1252.49,958.73,1247.91,958.73z"/>
	<path class="st0" d="M87.44,958.73c-6.5-1.88-13.2-3.27-19.46-5.75c-10.04-3.98-18.1-10.5-22.9-20.98
		c2.94-2.65,5.79-5.22,9.16-8.27c7.08,12.74,17.84,19.88,31.68,21.95c12.52,1.88,24.85,1.44,34.74-8.06
		c14.02-13.47,10.39-34.72-7.49-42.18c-7.31-3.05-15.29-4.52-22.98-6.66c-3.52-0.98-7.13-1.66-10.61-2.75
		c-18.78-5.83-27.83-16.79-28.33-34.13c-0.49-17.24,9.76-32.1,26.59-38.51c23.11-8.81,51.3-0.98,63.26,17.58
		c0.48,0.75,0.85,1.57,1.61,3.02c-3.03,2.65-6.07,5.32-9.37,8.21c-10.49-17.43-26-23.17-45.19-19.46
		c-13.82,2.67-22.46,12.96-22.89,26.15c-0.44,13.53,5.93,21.95,20.44,26.08c7.9,2.25,16.01,3.78,24.02,5.63
		c23.11,5.33,34.2,19.21,32.81,41.05c-1.11,17.38-15.4,31.66-35.56,35.57c-1.96,0.38-3.86,1.01-5.79,1.53
		C96.6,958.73,92.02,958.73,87.44,958.73z"/>
	<path class="st0" d="M1867.29,822.88c-22.6,0-45.19,0-68.23,0c0,17.89,0,35.33,0,53.4c20.62,0,41.1,0,62.04,0c0,3.7,0,6.79,0,10.76
		c-20.4,0-41.04,0-62.07,0c0,19.69,0,38.52,0,58.19c13.79,0,27.42-0.14,41.06,0.05c9.07,0.12,18.14,0.72,27.2,1.1c0,3.2,0,6.4,0,9.6
		c-27.17,0-54.34,0-81.96,0c0-47.88,0-95.51,0-144.07c27.29,0,54.62,0,81.96,0C1867.29,815.57,1867.29,819.23,1867.29,822.88z"/>
	<path class="st0" d="M1525.17,812.7c0,47.54,0,95.18,0,143.17c-3.97,0-7.56,0-11.89,0c0-38.65,0-77.35,0-116.05
		c-0.42-0.13-0.84-0.26-1.25-0.38c-1.05,1.58-2.19,3.11-3.15,4.75c-15.09,25.57-30.15,51.16-45.23,76.73
		c-4.82,8.17-9.55,8.21-14.35,0.07c-14.86-25.17-29.7-50.36-44.55-75.53c-1.11-1.88-2.33-3.69-4.82-5.28c0,38.41,0,76.82,0,115.63
		c-4.69,0-8.46,0-12.65,0c0-47.88,0-95.53,0-143.24c7.46-1.76,12.53-0.81,16.81,6.83c15.75,28.08,32.37,55.66,48.68,83.42
		c1.13,1.93,2.39,3.79,4.03,6.36c1.43-2.12,2.59-3.66,3.56-5.31c16.37-27.99,32.91-55.89,48.94-84.08
		C1512.95,813.35,1516.91,809.89,1525.17,812.7z"/>
	<path class="st0" d="M1026.41,955.72c0-48.02,0-95.48,0-144.8c21.67,1.07,43.37-0.05,64.19,3.69
		c29.33,5.27,47.35,28.93,49.84,60.94c1.98,25.49-3.49,48.7-24.16,66.08c-9.92,8.34-21.71,13.24-34.42,13.86
		C1063.64,956.39,1045.35,955.72,1026.41,955.72z M1040.15,944.72c13.82,0,26.93,1.13,39.77-0.25
		c22.13-2.37,36.89-14.96,43.17-36.48c5.12-17.55,4.88-35.22-1.54-52.47c-5.41-14.52-15.55-24.69-30.36-29.49
		c-16.67-5.4-33.84-2.58-51.03-3.04C1040.15,863.96,1040.15,904.12,1040.15,944.72z"/>
	<path class="st0" d="M755.3,812.86c19.47,0,38.61-1.79,57.28,0.4c31.9,3.75,52.84,26.96,56.13,58.93
		c1.85,18.04,0.23,35.61-8.94,51.75c-10.87,19.15-27.88,29.79-49.35,31.49c-18.13,1.44-36.46,0.3-55.12,0.3
		C755.3,908.04,755.3,860.41,755.3,812.86z M768.89,944.63c13.71,0,27.04,1.16,40.08-0.26c21.86-2.38,36.31-15.02,42.69-36.16
		c5.01-16.61,4.88-33.36-0.52-49.89c-5.76-17.62-17.46-30.07-35.81-33.22c-15.09-2.6-30.72-2.11-46.44-3.01
		C768.89,863.82,768.89,903.97,768.89,944.63z"/>
	<path class="st0" d="M575.21,810.61c21.34,1.41,42.32,1.04,62.61,4.58c23.58,4.11,34.14,21.97,29.34,43.67
		c-2.56,11.59-10.07,18.62-20.71,22.77c-3.37,1.31-6.89,2.21-8.4,2.68c5.87,3.39,13.63,6.34,19.29,11.55
		c6.33,5.83,6.12,14.89,6.22,23.19c0.15,12.27-1.36,24.78,5.59,36.05c-15.13,2.7-16.33,1.79-18.56-12.45
		c-1.47-9.41-0.72-19.14-1.31-28.71c-0.9-14.65-7.45-21.56-22.26-22.58c-10.93-0.75-21.94-0.43-32.92-0.54
		c-1.57-0.02-3.14,0.23-5.53,0.42c0,21.49,0,42.84,0,64.57c-4.85,0-8.87,0-13.36,0C575.21,908.06,575.21,860.42,575.21,810.61z
		 M588.9,879.85c10.38,0,20.39,0.52,30.31-0.19c6.48-0.46,13.09-2.03,19.18-4.32c10.9-4.09,15.5-12.97,15.45-24.23
		c-0.06-11.34-5.16-19.71-15.91-24c-15.96-6.37-32.57-4.13-49.03-4.24C588.9,842.35,588.9,860.95,588.9,879.85z"/>
	<path class="st0" d="M1003.82,955.65c-1.49,0.25-2.38,0.49-3.27,0.53c-11.02,0.5-11.01,0.49-14.81-10.01
		c-2.56-7.07-5.34-14.08-7.69-21.22c-1.17-3.57-2.91-5-6.84-4.95c-18.75,0.2-37.49,0.19-56.24,0.01c-3.81-0.04-5.69,1.11-6.89,4.83
		c-2.53,7.8-6.15,15.27-8.29,23.16c-1.84,6.77-5.27,9.51-12.09,8.25c-1.31-0.24-2.7-0.03-4.72-0.03c0.52-2.1,0.77-3.77,1.35-5.32
		c16.64-44.41,33.43-88.76,49.8-133.27c1.98-5.39,4.94-5.79,9.62-5.86c4.73-0.07,7.13,1.12,8.91,5.94
		c16.17,43.85,32.69,87.58,49.08,131.35C1002.51,951.13,1003.08,953.29,1003.82,955.65z M943.93,830.22
		c-0.52-0.02-1.04-0.05-1.56-0.07c-9.57,26.13-19.14,52.27-28.84,78.75c20.04,0,39.1,0,59.04,0
		C962.86,882.23,953.39,856.23,943.93,830.22z"/>
	<path class="st0" d="M174.39,812.18c27.04,0,53.51,0,80.41,0c0,3.53,0,6.79,0,10.69c-22.37,0-44.46,0-66.93,0
		c0,17.91,0,35.2,0,53.18c20.37,0,40.85,0,61.82,0c0,3.98,0,7.27,0,11.29c-20.62,0-41.07,0-61.86,0c0,19.39,0,38.05,0,57.69
		c22.18,0,44.43,0,67.02,0c0,4.06,0,7.16,0,10.72c-26.75,0-53.39,0-80.46,0C174.39,908.03,174.39,860.39,174.39,812.18z"/>
	<path class="st0" d="M1578.79,955.86c-5.08,0-9.1,0-13.49,0c0-48,0-95.64,0-145.21c19.06,1.38,37.94,1.09,56.14,4.49
		c23.72,4.43,34.94,22.08,31.88,45.13c-1.67,12.57-8.67,21.34-19.67,27.15c-11.23,5.93-23.47,7.27-35.9,7.49
		c-6.11,0.11-12.22,0.02-18.96,0.02C1578.79,915.52,1578.79,935.32,1578.79,955.86z M1578.88,883.88c14.72-0.29,28.93,1.7,42.6-3.44
		c11.16-4.19,17.29-12.25,17.93-24.3c0.65-12.12-2.76-22.32-14.3-28.03c-14.76-7.31-30.54-5.26-46.23-5.25
		C1578.88,843.45,1578.88,863.07,1578.88,883.88z"/>
	<path class="st0" d="M1683.69,812.18c4.48,0,8.51,0,13.18,0c0,44.22,0,88.18,0,132.94c22.19,0,43.76,0,65.68,0c0,3.9,0,7,0,10.6
		c-26.14,0-52.28,0-78.85,0C1683.69,908.08,1683.69,860.46,1683.69,812.18z"/>
	<path class="st0" d="M702.9,812.14c4.33,0,8.15,0,12.42,0c0,47.83,0,95.44,0,143.56c-4.07,0-8.02,0-12.42,0
		C702.9,908.04,702.9,860.44,702.9,812.14z"/>
	<path class="st0" d="M1347.7,955.89c-4.3,0-8.32,0-12.81,0c0-47.69,0-95.29,0-143.44c3.97,0,8.15,0,12.81,0
		C1347.7,860.05,1347.7,907.81,1347.7,955.89z"/>
	<g>
		<path class="st0" d="M618.12,405.07c-21.57,64.61-42.07,125.96-62.53,187.32c-17.29,51.85-34.61,103.68-51.68,155.61
			c-2.17,6.62-4.7,10.01-12.68,9.9c-36.89-0.51-73.8-0.33-110.7-0.13c-7.11,0.04-10.54-0.25-7.77-9.37
			C413.27,615.33,455.93,483,501.89,351.7c13.79-39.4,41.32-59.24,79.93-67.53c33.91-7.28,67.08-4.93,99.26,8.31
			c23.34,9.6,40.2,25.59,49.47,49.52c28.84,74.48,52.35,150.76,76.75,226.74c18.95,59,37.02,118.29,56.1,177.25
			c3.41,10.54,0.84,12.06-9.17,11.9c-34.17-0.54-68.38-0.82-102.53,0.13c-11.63,0.32-15.66-3.99-19.07-14.23
			c-36.28-108.76-73.06-217.34-109.72-325.97C621.82,414.62,620.54,411.49,618.12,405.07z"/>
		<path class="st0" d="M1130.44,757.67c-33.4,0-66.8-0.39-100.19,0.08c-62.25,0.88-108.61-26.46-141.6-78.26
			c-21.88-34.36-33.85-72.16-38.14-112.37c-6.92-64.82-0.87-127.89,29.42-186.79c22.81-44.35,54.94-78.76,105-92.47
			c14.31-3.92,28.98-5.49,43.75-5.52c73.01-0.13,146.02,0.1,219.03-0.26c9.03-0.04,11.9,2.11,11.72,11.51
			c-0.62,31.04-0.62,62.11,0,93.15c0.19,9.57-2.29,12.36-12.07,12.29c-65.24-0.44-130.49,0.32-195.72-0.49
			c-27.52-0.34-45.58,11.9-57.77,35.27c-15.39,29.51-18.47,61.31-17.27,93.82c1.01,27.43,6.53,53.86,19.89,78.15
			c11.93,21.69,28.79,33.49,55.3,33.03c65.22-1.14,130.48-0.15,195.72-0.61c9.92-0.07,12.11,2.87,11.93,12.33
			c-0.62,31.43-0.82,62.89,0.08,94.31c0.32,11.36-3.68,13.17-13.73,13.04C1207.34,757.36,1168.89,757.67,1130.44,757.67z"/>
		<path class="st0" d="M1584.01,411.78c1.26,35.1-2.43,78.23,1.92,121.2c3.11,30.76,12.94,59.06,34.29,82.28
			c14.42,15.68,32.62,23.19,53.94,23.19c60.2-0.01,120.4,0.32,180.59-0.3c10.78-0.11,12.7,3.17,12.52,13
			c-0.61,32.21-0.39,64.44-0.1,96.65c0.06,7.18-1.38,10.12-9.55,10.07c-66.79-0.47-133.61,0.5-200.38-0.8
			c-100.16-1.95-173.09-66.09-190.19-164.77c-5.53-31.94-5.13-63.9-4.61-96.14c1.08-66.75,0.63-133.53,0.03-200.3
			c-0.1-11.5,3.1-14.12,14.17-13.85c32.22,0.78,64.47,0.63,96.69,0.05c8.98-0.16,10.97,2.59,10.87,11.14
			C1583.75,330.07,1584.01,366.95,1584.01,411.78z"/>
		<path class="st0" d="M1421.75,520.86c0,74.9-0.18,149.81,0.23,224.71c0.05,9.56-2.24,12.52-12.07,12.34
			c-32.99-0.61-66.01-0.58-99-0.01c-9.01,0.16-10.88-2.69-10.86-11.16c0.24-151.36,0.27-302.71-0.04-454.07
			c-0.02-9.37,3.37-10.65,11.48-10.55c33,0.41,66.01,0.55,99-0.07c9.52-0.18,11.5,2.86,11.46,11.77
			C1421.61,369.5,1421.75,445.18,1421.75,520.86z"/>
		<path class="st1" d="M446.25,378.52c-0.08,1.01,0.33,5.11-0.84,8.69c-10.18,31.28-19.78,62.8-31.38,93.56
			c-6.47,17.16-20.73,27.84-39.02,31.77c-28.8,6.18-57.6,12.47-86.57,17.8c-20.03,3.68-37.81-2.24-51.66-17.43
			c-19.6-21.5-38.93-43.25-58.01-65.21c-13.44-15.46-17.69-33.69-11.65-53.2c8.92-28.83,18.49-57.49,28.62-85.92
			c6.73-18.87,20.9-30.76,40.39-35.05c28.76-6.34,57.7-11.93,86.62-17.52c20.79-4.02,38.41,2.66,52.46,17.99
			c18.61,20.3,36.56,41.21,55.02,61.66C440.53,347.11,446.31,360.16,446.25,378.52z"/>
		<path class="st0" d="M213.08,546.53c-1.77,12.76-9.47,26.64-12.72,41.7c-5.62,26.03-21.57,38.82-47.64,41.3
			c-11.5,1.09-22.73,4.74-34.17,6.74c-13.53,2.36-25.39-1.36-34.72-11.62c-11.48-12.62-22.95-25.27-33.96-38.29
			c-8.64-10.22-10.57-22.47-6.84-35.03c4.85-16.31,10.31-32.45,16.16-48.43c4.55-12.42,13.58-20.6,26.75-23.49
			c16.65-3.66,33.28-7.48,50.05-10.48c13.46-2.41,25.4,1.52,34.75,11.81c10.95,12.05,21.72,24.28,32.57,36.43
			C210.07,524.74,213.2,533.66,213.08,546.53z"/>
		<path class="st0" d="M336.84,155.68c-1.7,12.74-6.85,24.51-10.94,36.55c-14.66,43.22-6.56,35.83-52.21,45.51
			c-8.72,1.85-17.62,3.04-26.17,5.47c-10.72,3.06-18.68,0.12-25.76-8.21c-11.31-13.29-22.96-26.32-34.85-39.1
			c-7.49-8.05-8.77-16.63-5.22-26.76c5.89-16.82,11.51-33.74,16.89-50.73c2.89-9.1,8.62-14.15,17.98-15.97
			c17.89-3.47,35.7-7.33,53.52-11.1c9.5-2.01,17.4-0.01,24,7.69c11.87,13.84,24.13,27.34,36.3,40.91
			C334.42,144.45,337.34,149.29,336.84,155.68z"/>
		<path class="st0" d="M640.72,564.06h-45.25c-2.41,0-4.64,1.29-5.84,3.37l-22.62,39.18c-1.2,2.09-1.2,4.66,0,6.75l22.62,39.18
			c1.2,2.09,3.43,3.37,5.84,3.37h45.25c2.41,0,4.64-1.29,5.84-3.37l22.62-39.18c1.2-2.09,1.2-4.66,0-6.75l-22.62-39.18
			C645.35,565.35,643.13,564.06,640.72,564.06z"/>
	</g>
</g>
</svg>
