<?xml version="1.0" encoding="utf-8"?>
<!-- Generator: Adobe Illustrator 27.0.1, SVG Export Plug-In . SVG Version: 6.00 Build 0)  -->
<svg version="1.1" id="Capa_1" xmlns="http://www.w3.org/2000/svg" xmlns:xlink="http://www.w3.org/1999/xlink" x="0px" y="0px"
	 viewBox="0 0 1080 1080" style="enable-background:new 0 0 1080 1080;" xml:space="preserve">
<style type="text/css">
	.st0{fill:url(#SVGID_1_);}
	.st1{fill:none;stroke:#FFFFFF;stroke-width:3;stroke-miterlimit:10;}
	.st2{display:none;}
	.st3{display:inline;}
	.st4{fill:#FFFFFF;}
	.st5{fill:none;}
	.st6{enable-background:new    ;}
</style>
<g id="Capa_1_00000179610906718411585880000007556873263935935631_">
	
		<linearGradient id="SVGID_1_" gradientUnits="userSpaceOnUse" x1="26.15" y1="1378" x2="1053.8501" y2="1378" gradientTransform="matrix(1 0 0 1 0 -838)">
		<stop  offset="0" style="stop-color:#E25B19"/>
		<stop  offset="1" style="stop-color:#F6A312"/>
	</linearGradient>
	<path class="st0" d="M780.8,90.7H299.2c-11.5,0-22.2,6.1-27.9,16.1L30.5,523.9c-5.8,10-5.8,22.3,0,32.2l240.8,417.1
		c5.8,10,16.4,16.1,27.9,16.1h481.6c11.5,0,22.2-6.1,27.9-16.1l240.8-417.1c5.8-10,5.8-22.3,0-32.2L808.7,106.8
		C803,96.8,792.3,90.7,780.8,90.7z"/>
	<path class="st1" d="M769.9,110.4H311c-11.5,0-22.2,6.1-27.9,16.1L53.6,523.9c-5.8,10-5.8,22.3,0,32.2L283,953.5
		c5.8,10,16.4,16.1,27.9,16.1h458.9c11.5,0,22.2-6.1,27.9-16.1l229.4-397.4c5.8-10,5.8-22.3,0-32.2L797.8,126.5
		C792,116.5,781.4,110.4,769.9,110.4z"/>
</g>
<g id="LEASING" class="st2">
	<g class="st3">
		<path class="st4" d="M203,579.5v29.3h-93.4V471.2h35v108.4H203V579.5z"/>
		<path class="st4" d="M254.8,498.7V526h65.7v27.5h-65.7v27.7h74.9v27.5h-110V471.2h107.8v27.5H254.8z"/>
		<path class="st4" d="M383.7,583.5l-10,25.4h-36L397,471.2h36l58,137.7h-37.4l-9.8-25.4H383.7z M414,506l-20.1,50.9h39.7L414,506z"
			/>
		<path class="st4" d="M610.5,484.9l-13.2,27.3c-14.5-8.5-32.8-14.4-44.1-14.4c-9,0-15.1,3.3-15.1,10c0,23.8,72.8,10.2,72.8,60
			c0,27.5-24.4,42.1-55.1,42.1c-23,0-46.6-8.6-62.9-22l13.6-26.9c14.2,12.4,35.4,20.7,49.8,20.7c11,0,17.9-4.1,17.9-12
			c0-24.4-72.8-9.8-72.8-58.6c0-25.4,21.8-41.5,54.9-41.5C576.1,469.6,596.4,475.7,610.5,484.9z"/>
		<path class="st4" d="M630.1,608.8V471.2h35v137.7h-35V608.8z"/>
		<path class="st4" d="M788.8,608.8L725.5,524v84.8h-32.8V471.2h30.9l63.5,85v-85h32.7v137.7h-31L788.8,608.8L788.8,608.8z"/>
		<path class="st4" d="M969.1,538.8v53.7c-14.8,10.4-38,17.9-57.2,17.9c-41.9,0-73.6-30.3-73.6-70.4c0-39.9,32.4-70,75.9-70
			c20.5,0,42.1,7.9,56.3,20.5l-19.7,23.8c-10-9.2-24-14.9-36.8-14.9c-22.6,0-39.9,17.7-39.9,40.7c0,23.4,17.5,41.1,40.3,41.1
			c7.1,0,16.1-2.6,24.4-6.7v-35.6L969.1,538.8L969.1,538.8z"/>
	</g>
</g>
<g id="VENTAS" class="st2">
	<g class="st3">
		<path class="st4" d="M172.3,612.3L116.2,468h39.2l36.9,106.2L229.2,468h37.7l-56.7,144.3H172.3z"/>
		<path class="st4" d="M317.9,496.9v28.6h68.8v28.9h-68.8v29.1h78.5v28.9H281.2V468.1h113V497h-76.3L317.9,496.9L317.9,496.9z"/>
		<path class="st4" d="M521,612.3l-66.4-88.8v88.8h-34.4V468.1h32.4l66.6,89v-89h34.2v144.3L521,612.3L521,612.3z"/>
		<path class="st4" d="M649.1,497.5v114.8h-36.7V497.5h-43.1v-29.7h123.3v29.7H649.1z"/>
		<path class="st4" d="M725.6,585.8l-10.5,26.6h-37.7l62.2-144.3h37.7l60.8,144.3H799l-10.3-26.6H725.6z M757.4,504.5l-21,53.4H778
			L757.4,504.5z"/>
		<path class="st4" d="M963.4,482.5l-13.8,28.6c-15.2-8.9-34.4-15-46.2-15c-9.5,0-15.9,3.5-15.9,10.5c0,24.9,76.3,10.7,76.3,62.9
			c0,28.9-25.6,44.1-57.7,44.1c-24.1,0-48.9-9.1-66-23.1l14.2-28.2c14.8,13,37.1,21.6,52.2,21.6c11.5,0,18.8-4.3,18.8-12.6
			c0-25.6-76.3-10.3-76.3-61.4c0-26.6,22.9-43.5,57.5-43.5C927.3,466.4,948.5,472.8,963.4,482.5z"/>
	</g>
</g>
<g id="CONTIGO" class="st2">
	<g class="st3">
		<g>
			<g>
				<path class="st4" d="M483.3,587.6c-10.2-32.1-18.5-57.9-24.7-76.5c-12.1-35.8-15.7-43.2-17.3-45.4c-4.1-6-10.3-10.6-18.2-13.8
					c-7.7-3-16-4.5-24.8-4.5c-9,0-17.3,1.6-25,4.5c-7.9,3.1-14.1,7.7-18.5,13.9c-1.5,2.2-4.8,9.4-17,45.5
					c-8.2,24.4-16.6,50.1-25.1,76.5c-7.6,24.1-13.2,42.3-16.8,54.2l-1.6,5.4h54.4l48.7-146.1c0.1-0.3,0.2-0.7,0.4-1.1
					c0.1-0.3,0.3-0.9,0.4-1.3c0.1,0.3,0.2,0.7,0.3,0.9c0.1,0.3,0.2,0.8,0.3,1.1l49.5,146.6H502l-1.7-5.5
					C494.6,623.8,488.9,605.6,483.3,587.6z"/>
				<path class="st4" d="M512.8,480.5c-12.2,18.9-18.4,42.1-18.4,68.8c0,26.3,6.2,48.8,18.1,66.8c13.7,20.6,32.7,31.1,56.5,31.1
					h97.6v-49.7h-90.5c-8.5,0-15.2-5-20.5-15.3c-5.1-10-7.7-22.2-7.7-36.4c0-13.8,2.6-25.4,7.5-34.7c5.1-9.6,11.9-14.3,20.6-14.3
					h90.5v-48.6H569C545.6,448.3,526.7,459.2,512.8,480.5z"/>
				<rect x="684" y="448.3" class="st4" width="50.7" height="199.1"/>
				<path class="st4" d="M841.1,597.6c-12.3,0-21.7-5.6-28.8-17.1c-6.3-10.3-9.5-23.3-9.5-38.6v-93.5h-50.7v93.3
					c-0.2,1.1-0.3,2.3-0.4,3.7c-0.1,1.5-0.1,3.5-0.1,5.9c0,13,1.6,25.2,4.7,36.1c4.8,17,13.1,30.8,24.8,40.7
					c15,12.8,35.1,19.2,60.1,19.2h80.2v-49.7L841.1,597.6L841.1,597.6z"/>
			</g>
			<g>
				<path class="st4" d="M224.5,547.3c3,3.5,4.4,9.8,2.9,14.2l-6.9,20.8c-1.5,4.4-6.4,8.7-10.9,9.6l-21.5,4.5
					c-4.5,0.9-10.7-1.1-13.8-4.6l-14.5-16.4c-3-3.5-4.4-9.8-2.9-14.2l6.9-20.8c1.5-4.4,6.4-8.7,10.9-9.6l21.5-4.5
					c4.5-0.9,10.7,1.1,13.8,4.6L224.5,547.3z"/>
				<path class="st4" d="M320.5,472.4c4.6,5.1,6.6,14.8,4.4,21.4l-12,36.1c-2.1,6.6-9.5,13.1-16.2,14.4l-37.4,7.7
					c-6.8,1.3-16.1-1.7-20.7-6.8l-25.4-28.5c-4.6-5.1-6.6-14.8-4.4-21.4l12.1-36.3c2.1-6.6,9.5-13.1,16.2-14.4l37.4-7.7
					c6.8-1.3,16.1,1.7,20.7,6.8L320.5,472.4z"/>
				<path class="st4" d="M278.2,389.7c1.6,1.7,2.2,4.9,1.5,7.2l-8.3,25c-0.7,2.2-3.1,4.4-5.4,4.8l-25.7,5.3
					c-2.2,0.4-5.4-0.6-6.9-2.2l-17.5-19.7c-1.6-1.7-2.2-4.9-1.5-7.2l8.3-25c0.7-2.2,3.1-4.4,5.4-4.8l25.7-5.3
					c2.2-0.4,5.4,0.6,6.9,2.2L278.2,389.7z"/>
			</g>
			<path class="st4" d="M418.3,587.7l-8.1,15c-0.7,1.3-2,2.1-3.6,2.2l-17,0.6c-1.5,0-2.9-0.7-3.7-2l-9-14.4
				c-0.8-1.2-0.8-2.9-0.1-4.1l8.1-15c0.7-1.3,2-2.1,3.6-2.2l17-0.6c1.5,0,2.9,0.7,3.7,2l9,14.4C418.9,584.8,418.9,586.4,418.3,587.7
				z"/>
		</g>
		<g>
			<path class="st4" d="M655.3,667.8l-2,12.5c-3.2-3-5.7-4.5-11.1-4.5c-6.3,0-12.5,5.1-13.8,12.2c-1.1,6.9,3.6,12.2,9.8,12.2
				c5.4,0,8.3-1.6,12.5-4.6l-2,12.5c-3.6,2.7-8.1,4.1-12.9,4.1c-12.6,0-23.3-8.8-20.9-24.3c2.5-15.4,15.9-24.3,28.5-24.3
				C648.6,663.8,652.6,665.2,655.3,667.8z"/>
			<path class="st4" d="M704.4,688.1c-2.5,15.4-15.3,24.3-28,24.3c-12.6,0-22.7-8.8-20.4-24.3c2.5-15.4,15.3-24.3,28-24.3
				C696.8,663.8,706.9,672.7,704.4,688.1z M669.5,688.1c-1.1,6.9,2.6,12.2,8.8,12.2c6.3,0,11.5-5.1,12.8-12.2
				c1.1-6.9-2.6-12.2-8.8-12.2C676,675.9,670.6,681,669.5,688.1z"/>
			<path class="st4" d="M745,712l-21.1-23.5l-3.6,22.8h-13l7.5-47.2h4.6l21.3,23.9l3.7-23.3h12.8l-7.5,47.2L745,712L745,712z"/>
			<path class="st4" d="M788.2,676.2l-5.6,34.8h-13l5.6-34.8h-13.7l1.9-11.4h40.4l-1.9,11.4H788.2z"/>
			<path class="st4" d="M802.6,711.3l7.4-46.4h13l-7.4,46.4H802.6z"/>
			<path class="st4" d="M866.3,705.1c-5.1,4.5-12.5,7.3-19.6,7.3c-12.6,0-23.3-8.8-20.8-24.3c2.5-15.4,15.9-24.3,28.5-24.3
				c4.8,0,9,1.5,11.6,4.1l-2,12.5c-3.2-3-5.7-4.5-11.1-4.5c-6.3,0-12.5,5.1-13.8,12.2c-1.1,6.9,3.6,12.2,9.8,12.2
				c3,0,5.6-0.9,6.9-2.1l1.9-10.7h11.2L866.3,705.1z"/>
			<path class="st4" d="M923.4,688.1c-2.5,15.4-15.3,24.3-28,24.3c-12.6,0-22.7-8.8-20.4-24.3c2.5-15.4,15.3-24.3,28-24.3
				S925.7,672.7,923.4,688.1z M888.3,688.1c-1.1,6.9,2.6,12.2,8.8,12.2c6.3,0,11.5-5.1,12.8-12.2c1.1-6.9-2.6-12.2-8.8-12.2
				C894.8,675.9,889.6,681,888.3,688.1z"/>
		</g>
	</g>
</g>
<g id="GUARD" class="st2">
	<g class="st3">
		<g>
			<g>
				<path class="st4" d="M484.9,587.9c-10.3-32.4-18.6-58.4-24.9-77.2c-12.2-36.1-15.8-43.6-17.5-45.8c-4.2-6.1-10.4-10.7-18.4-13.9
					c-7.8-3-16.1-4.5-25.1-4.5s-17.5,1.6-25.2,4.5c-8,3.2-14.2,7.8-18.6,14c-1.5,2.3-4.9,9.5-17.2,45.9
					c-8.2,24.6-16.7,50.6-25.3,77.2c-7.7,24.3-13.3,42.7-16.9,54.6l-1.6,5.4h54.9l49.1-147.4c0.1-0.3,0.2-0.7,0.5-1.1
					c0.1-0.3,0.3-0.9,0.5-1.4c0.1,0.3,0.2,0.7,0.3,0.9c0.1,0.3,0.2,0.8,0.3,1.1l49.9,147.9h54.1l-1.7-5.5
					C496.3,624.4,490.6,606.1,484.9,587.9z"/>
				<path class="st4" d="M514.7,479.9c-12.3,19.1-18.5,42.4-18.5,69.4c0,26.5,6.2,49.2,18.3,67.4c13.8,20.8,33,31.4,57,31.4h98.4
					V598h-91.3c-8.6,0-15.4-5.1-20.7-15.5c-5.2-10-7.8-22.4-7.8-36.7c0-13.9,2.6-25.6,7.6-35c5.2-9.7,12-14.5,20.8-14.5h91.3v-49
					h-98.4C547.8,447.4,528.7,458.3,514.7,479.9z"/>
				<rect x="687.4" y="447.4" class="st4" width="51.1" height="200.8"/>
				<path class="st4" d="M845.9,598c-12.4,0-21.9-5.6-29-17.3c-6.3-10.4-9.6-23.5-9.6-38.9v-94.4h-51.1v94.2
					c-0.2,1.1-0.3,2.4-0.5,3.7c-0.1,1.5-0.1,3.5-0.1,6c0,13.1,1.6,25.4,4.7,36.5c4.9,17.2,13.2,31,25.1,41.1
					c15.1,12.9,35.4,19.4,60.6,19.4h81v-50.1h-81.1L845.9,598L845.9,598z"/>
			</g>
			<g>
				<path class="st4" d="M223.8,547.3c3,3.5,4.4,9.9,2.9,14.3l-7,21c-1.5,4.4-6.4,8.8-11,9.7l-21.7,4.5c-4.5,0.9-10.8-1.1-13.9-4.6
					l-14.7-16.6c-3-3.5-4.4-9.9-2.9-14.3l7-21c1.5-4.4,6.4-8.8,11-9.7l21.7-4.5c4.5-0.9,10.8,1.1,13.9,4.6L223.8,547.3z"/>
				<path class="st4" d="M320.6,471.7c4.6,5.2,6.7,14.9,4.4,21.6l-12,36.4c-2.1,6.7-9.6,13.2-16.4,14.6l-37.7,7.8
					c-6.9,1.4-16.3-1.7-20.9-6.9l-25.6-28.8c-4.6-5.2-6.7-14.9-4.4-21.6l12.2-36.6c2.1-6.7,9.6-13.2,16.4-14.6l37.7-7.8
					c6.9-1.4,16.3,1.7,20.9,6.9L320.6,471.7z"/>
				<path class="st4" d="M278,388.2c1.6,1.7,2.3,5,1.5,7.2l-8.4,25.2c-0.7,2.3-3.2,4.4-5.4,4.9l-26,5.3c-2.3,0.5-5.4-0.6-7-2.3
					l-17.6-19.9c-1.6-1.7-2.3-5-1.5-7.2l8.4-25.2c0.7-2.3,3.2-4.4,5.4-4.9l26-5.3c2.3-0.5,5.4,0.6,7,2.3L278,388.2z"/>
			</g>
			<path class="st4" d="M419.3,588.1l-8.1,15.1c-0.7,1.4-2,2.1-3.6,2.3l-17.2,0.6c-1.5,0-2.9-0.7-3.7-2l-9-14.6
				c-0.8-1.2-0.8-2.9-0.1-4.2l8.1-15.1c0.7-1.4,2-2.1,3.6-2.3l17.2-0.6c1.5,0,2.9,0.7,3.7,2l9,14.6C420,585.1,420,586.7,419.3,588.1
				z"/>
		</g>
		<g>
			<path class="st4" d="M731.3,708.9c-2.7,1.7-5.5,2.9-8.4,3.8c-2.9,0.9-5.7,1.3-8.5,1.3c-3.3,0-6.3-0.5-8.9-1.5
				c-2.6-1-4.8-2.4-6.7-4.2c-1.8-1.8-3.3-4-4.2-6.6c-1-2.6-1.5-5.5-1.5-8.7c0-3.6,0.7-7,2.1-10.5c1.4-3.4,3.4-6.5,6-9.2
				s5.7-4.9,9.3-6.5s7.7-2.5,12.1-2.5c6,0,11.1,1.3,15.4,3.8l-3.5,11.9h-0.2c-1-1.6-2.5-3-4.6-4.1s-4.6-1.7-7.5-1.7
				c-2.6,0-5,0.5-7.2,1.4s-4.1,2.2-5.6,3.9c-1.6,1.7-2.8,3.7-3.6,5.9c-0.9,2.3-1.3,4.8-1.3,7.5c0,3.4,1,6.2,2.9,8.2s4.7,3,8.4,3
				c2.3,0,4.1-0.5,5.5-1.4l2.7-12.8h11.4L731.3,708.9z"/>
			<path class="st4" d="M759.4,665.2l-6.1,28.8c-0.1,0.5-0.2,1-0.2,1.6c-0.1,0.6-0.1,1.3-0.1,1.8c0,2,0.6,3.5,1.9,4.4
				c1.2,0.9,2.8,1.4,4.6,1.4c1.2,0,2.5-0.2,3.7-0.6c1.2-0.4,2.3-0.9,3.3-1.7c1-0.7,1.9-1.7,2.7-2.9s1.3-2.6,1.6-4.2l6.1-28.8h10.9
				l-6.3,29.4c-0.7,3.4-1.8,6.3-3.2,8.8c-1.4,2.4-3.2,4.4-5.1,6c-2,1.6-4.2,2.7-6.6,3.5c-2.4,0.7-4.9,1.1-7.5,1.1
				c-2.5,0-4.8-0.3-6.9-0.9c-2.1-0.6-3.9-1.5-5.5-2.8c-1.5-1.2-2.7-2.8-3.6-4.8c-0.9-1.9-1.3-4.2-1.3-6.9c0-0.5,0-1.1,0.1-1.7
				c0.1-0.6,0.2-1.2,0.3-1.8l6.4-30.1h10.8L759.4,665.2L759.4,665.2z"/>
			<path class="st4" d="M812.7,665.5l8.1-1.2l10.2,48.9h-11.4l-1.8-10.4h-17.6l-6,10.4H781L812.7,665.5z M804.6,694.7h12.1
				l-2.6-15.5L804.6,694.7z"/>
			<path class="st4" d="M846.5,665.2h13.6c5.4,0,9.5,1.2,12.4,3.5s4.3,5.5,4.3,9.7c0,1.8-0.3,3.5-1,5.1c-0.6,1.6-1.5,3-2.7,4.3
				c-1.1,1.3-2.5,2.5-4.1,3.4c-1.6,1-3.4,1.8-5.4,2.5l11.5,19.4h-12.9l-9.8-17.8H851l-3.8,17.8h-10.9L846.5,665.2z M852.5,688.4h0.6
				c2.1,0,3.9-0.2,5.4-0.7c1.6-0.4,2.8-1,3.8-1.8s1.8-1.7,2.3-2.7c0.5-1.1,0.8-2.2,0.8-3.4c0-1.8-0.6-3.2-1.9-4.1
				c-1.3-0.9-3.1-1.3-5.4-1.3h-2.7L852.5,688.4z"/>
			<path class="st4" d="M880.2,713.1l10.2-47.9h13.5c3.7,0,7,0.5,9.9,1.5s5.2,2.4,7.1,4.2c1.9,1.8,3.3,4,4.3,6.5s1.5,5.3,1.5,8.4
				c0,4-0.7,7.7-2.1,11.1c-1.4,3.4-3.4,6.2-6.1,8.6c-2.7,2.4-6,4.3-9.9,5.6s-8.4,2-13.5,2L880.2,713.1L880.2,713.1z M893.1,703.2
				h3.8c3,0,5.6-0.4,7.9-1.3c2.3-0.8,4.2-2,5.7-3.5c1.6-1.5,2.7-3.3,3.5-5.4s1.2-4.4,1.2-7c0-1.5-0.2-3-0.7-4.3s-1.2-2.5-2.2-3.5
				s-2.2-1.8-3.7-2.3s-3.2-0.8-5.2-0.8h-4.3L893.1,703.2z"/>
		</g>
	</g>
</g>
<g id="CLEANER" class="st2">
	<g class="st3">
		<g>
			<g>
				<path class="st4" d="M485.7,588.1c-10.3-32.5-18.7-58.5-25-77.4c-12.2-36.2-15.9-43.7-17.5-46c-4.2-6.1-10.4-10.8-18.5-13.9
					c-7.8-3.1-16.2-4.5-25.1-4.5c-9.1,0-17.5,1.6-25.2,4.5c-8,3.2-14.3,7.8-18.7,14c-1.5,2.3-4.9,9.5-17.2,46.1
					c-8.3,24.7-16.8,50.7-25.4,77.4c-7.7,24.3-13.4,42.8-17,54.8l-1.6,5.4h55l49.3-147.9c0.1-0.3,0.2-0.7,0.5-1.1
					c0.1-0.3,0.3-0.9,0.5-1.4c0.1,0.3,0.2,0.7,0.3,0.9c0.1,0.3,0.2,0.8,0.3,1.1l50,148.3h54.2L503,643
					C497.2,624.7,491.4,606.3,485.7,588.1z"/>
				<path class="st4" d="M515.6,479.8c-12.3,19.1-18.6,42.6-18.6,69.6c0,26.6,6.2,49.4,18.3,67.6c13.8,20.8,33.1,31.5,57.2,31.5
					h98.7v-50.3h-91.6c-8.6,0-15.4-5.1-20.7-15.5c-5.2-10.1-7.8-22.4-7.8-36.8c0-13.9,2.6-25.7,7.6-35.1c5.2-9.7,12-14.5,20.8-14.5
					h91.6v-49.1h-98.7C548.8,447.1,529.7,458.1,515.6,479.8z"/>
				<rect x="688.9" y="447.1" class="st4" width="51.3" height="201.4"/>
				<path class="st4" d="M847.8,598.2c-12.5,0-22-5.7-29.1-17.3c-6.3-10.4-9.6-23.5-9.6-39.1v-94.7h-51.3v94.4
					c-0.2,1.1-0.3,2.4-0.5,3.7c-0.1,1.5-0.1,3.5-0.1,6c0,13.1,1.6,25.5,4.8,36.6c4.9,17.2,13.2,31.1,25.1,41.2
					c15.2,12.9,35.6,19.5,60.8,19.5h81.2v-50.3L847.8,598.2L847.8,598.2L847.8,598.2z"/>
			</g>
			<g>
				<path class="st4" d="M223.9,547.3c3.1,3.5,4.4,10,2.9,14.4l-7,21.1c-1.5,4.4-6.5,8.8-11,9.7l-21.7,4.5
					c-4.5,0.9-10.9-1.1-13.9-4.6l-14.7-16.6c-3.1-3.5-4.4-10-2.9-14.4l7-21.1c1.5-4.4,6.5-8.8,11-9.7l21.7-4.5
					c4.5-0.9,10.9,1.1,13.9,4.6L223.9,547.3z"/>
				<path class="st4" d="M321,471.5c4.6,5.2,6.7,14.9,4.4,21.6l-12.1,36.6c-2.2,6.7-9.6,13.2-16.4,14.6l-37.8,7.8
					c-6.9,1.4-16.3-1.7-20.9-6.9l-25.7-28.9c-4.6-5.2-6.7-14.9-4.4-21.6l12.2-36.7c2.2-6.7,9.6-13.2,16.4-14.6l37.8-7.8
					c6.9-1.4,16.3,1.7,20.9,6.9L321,471.5z"/>
				<path class="st4" d="M278.2,387.8c1.6,1.7,2.3,5,1.5,7.2l-8.4,25.2c-0.7,2.3-3.2,4.4-5.4,4.9l-26,5.3c-2.3,0.5-5.4-0.6-7-2.3
					l-17.7-19.9c-1.6-1.7-2.3-5-1.5-7.2l8.4-25.2c0.7-2.3,3.2-4.4,5.4-4.9l26-5.3c2.3-0.5,5.4,0.6,7,2.3L278.2,387.8z"/>
			</g>
			<path class="st4" d="M420,588.2l-8.2,15.2c-0.7,1.4-2,2.2-3.6,2.3l-17.2,0.6c-1.5,0-2.9-0.7-3.7-2l-9.1-14.6
				c-0.8-1.2-0.8-2.9-0.1-4.2l8.2-15.2c0.7-1.4,2-2.2,3.6-2.3l17.2-0.6c1.5,0,2.9,0.7,3.7,2l9.1,14.6
				C420.6,585.3,420.6,586.9,420,588.2z"/>
		</g>
		<g>
			<path class="st4" d="M665.3,681.5h-0.2c-1.1-1.7-2.6-3.2-4.7-4.5c-2.1-1.2-4.6-1.8-7.6-1.8c-2.5,0-4.9,0.5-7,1.4s-4,2.2-5.5,3.8
				s-2.8,3.4-3.6,5.5c-0.9,2.1-1.3,4.3-1.3,6.6c0,1.7,0.3,3.2,0.8,4.6c0.5,1.4,1.3,2.6,2.2,3.6c1,1,2.2,1.8,3.6,2.4
				c1.4,0.6,3,0.8,4.9,0.8c3.1,0,6-0.7,8.8-2.1c2.7-1.4,5.4-3.6,8-6.5h0.2l-4.3,14.8c-2,1.4-4.3,2.5-6.9,3.2
				c-2.6,0.7-5.2,1.1-7.9,1.1c-3.2,0-6.1-0.5-8.6-1.6c-2.5-1-4.7-2.5-6.5-4.4s-3.1-4.2-4.1-6.9c-0.9-2.7-1.4-5.7-1.4-9.1
				c0-3.7,0.8-7.2,2.3-10.5c1.6-3.3,3.7-6.3,6.3-8.8c2.7-2.6,5.8-4.6,9.3-6.1c3.6-1.5,7.4-2.3,11.4-2.3c6.5,0,11.6,1.4,15.3,4.3
				L665.3,681.5z"/>
			<path class="st4" d="M678.6,665.6h10.9l-8.1,38.1h20.9l-2.1,10h-31.8L678.6,665.6z"/>
			<path class="st4" d="M723.6,684.4h14.9l-1.9,8.8h-14.9l-2.4,11H737l-2,9.5h-28.6l10.2-48.1h28.6l-2,9.5h-17.7L723.6,684.4z"/>
			<path class="st4" d="M770.3,665.8l8.1-1.2l10.3,49h-11.5l-1.8-10.4h-17.6l-6,10.4h-13.2L770.3,665.8z M762.2,695.2h12.1
				l-2.6-15.5L762.2,695.2z"/>
			<path class="st4" d="M849.2,665.6L839,713.7h-8.5l-19.3-30.9l-6.6,30.9H794l10.2-48.1h8.5l19.4,30.8l6.5-30.8L849.2,665.6
				L849.2,665.6z"/>
			<path class="st4" d="M866.7,684.4h14.9l-1.9,8.8h-14.9l-2.4,11h17.7l-2,9.5h-28.6l10.2-48.1h28.6l-2,9.5h-17.7L866.7,684.4z"/>
			<path class="st4" d="M897.1,665.6h13.6c5.4,0,9.5,1.2,12.4,3.5s4.3,5.6,4.3,9.7c0,1.8-0.3,3.5-1,5.1c-0.6,1.6-1.5,3-2.7,4.3
				c-1.1,1.3-2.5,2.5-4.1,3.5s-3.4,1.8-5.4,2.5l11.5,19.5h-13l-9.8-17.9h-1.4l-3.8,17.9h-10.9L897.1,665.6z M903.1,688.8h0.6
				c2.1,0,3.9-0.2,5.4-0.7c1.6-0.4,2.8-1,3.9-1.8c1-0.8,1.8-1.7,2.3-2.7c0.5-1.1,0.8-2.2,0.8-3.4c0-1.8-0.6-3.2-1.9-4.1
				c-1.3-0.9-3.1-1.3-5.4-1.3h-2.7L903.1,688.8z"/>
		</g>
	</g>
</g>
<g id="GPS" class="st2">
	<g class="st3">
		<g>
			<g>
				<path class="st4" d="M482.6,588.5c-10.4-32.8-18.9-59.1-25.3-78.2c-12.4-36.6-16-44.1-17.7-46.4c-4.2-6.2-10.5-10.9-18.6-14.1
					c-7.9-3.1-16.4-4.6-25.4-4.6c-9.1,0-17.7,1.6-25.5,4.6c-8.1,3.2-14.4,7.9-18.9,14.2c-1.5,2.3-4.9,9.6-17.4,46.5
					c-8.3,24.9-16.9,51.2-25.6,78.2c-7.8,24.6-13.5,43.2-17.2,55.3l-1.6,5.5H345l49.7-149.4c0.1-0.3,0.2-0.7,0.5-1.1
					c0.1-0.3,0.3-0.9,0.5-1.4c0.1,0.3,0.2,0.7,0.3,0.9c0.1,0.3,0.2,0.8,0.3,1.1l50.5,149.8h54.8L500,644
					C494.2,625.4,488.3,606.9,482.6,588.5z"/>
				<path class="st4" d="M512.8,479.1c-12.5,19.3-18.8,43-18.8,70.3c0,26.9,6.3,49.9,18.5,68.3c14,21,33.4,31.8,57.8,31.8H670v-50.8
					h-92.5c-8.7,0-15.6-5.1-20.9-15.7c-5.3-10.2-7.9-22.6-7.9-37.2c0-14.1,2.6-26,7.7-35.5c5.3-9.8,12.1-14.6,21-14.6h92.5v-49.6
					h-99.7C546.3,446.1,527,457.2,512.8,479.1z"/>
				<rect x="687.8" y="446.1" class="st4" width="51.8" height="203.4"/>
				<path class="st4" d="M848.3,598.7c-12.6,0-22.2-5.7-29.4-17.5c-6.4-10.5-9.7-23.8-9.7-39.5v-95.6h-51.8v95.4
					c-0.2,1.1-0.3,2.4-0.5,3.8c-0.1,1.5-0.1,3.5-0.1,6.1c0,13.3,1.6,25.7,4.8,36.9c4.9,17.4,13.4,31.4,25.4,41.6
					c15.3,13,35.9,19.7,61.4,19.7h82v-50.8L848.3,598.7L848.3,598.7L848.3,598.7z"/>
			</g>
			<g>
				<path class="st4" d="M218.1,547.3c3.1,3.5,4.5,10.1,3,14.5l-7.1,21.3c-1.5,4.5-6.5,8.9-11.1,9.8l-22,4.6
					c-4.6,0.9-11-1.1-14.1-4.7L152,576c-3.1-3.5-4.5-10.1-3-14.5l7.1-21.3c1.5-4.5,6.5-8.9,11.1-9.8l22-4.6c4.6-0.9,11,1.1,14.1,4.7
					L218.1,547.3z"/>
				<path class="st4" d="M316.2,470.7c4.7,5.3,6.7,15.1,4.5,21.8l-12.2,36.9c-2.2,6.7-9.7,13.4-16.6,14.8l-38.2,7.9
					c-7,1.4-16.5-1.7-21.2-7l-26-29.2c-4.7-5.3-6.7-15.1-4.5-21.8l12.4-37.1c2.2-6.7,9.7-13.4,16.6-14.8l38.2-7.9
					c7-1.4,16.5,1.7,21.2,7L316.2,470.7z"/>
				<path class="st4" d="M273,386.2c1.6,1.7,2.3,5,1.5,7.3L266,419c-0.7,2.3-3.2,4.5-5.5,4.9l-26.3,5.4c-2.3,0.5-5.5-0.6-7.1-2.3
					l-17.8-20.1c-1.6-1.7-2.3-5-1.5-7.3l8.5-25.5c0.7-2.3,3.2-4.5,5.5-4.9l26.3-5.4c2.3-0.5,5.5,0.6,7.1,2.3L273,386.2z"/>
			</g>
			<path class="st4" d="M416.2,588.6l-8.2,15.3c-0.7,1.4-2.1,2.2-3.7,2.3l-17.4,0.6c-1.5,0-3-0.7-3.8-2.1L374,590
				c-0.8-1.3-0.8-3-0.1-4.2l8.2-15.3c0.7-1.4,2.1-2.2,3.7-2.3l17.4-0.6c1.5,0,3,0.7,3.8,2.1l9.1,14.8
				C416.9,585.6,416.9,587.2,416.2,588.6z"/>
		</g>
		<g>
			<path class="st4" d="M848.7,711c-2.8,1.7-5.6,3-8.5,3.8c-2.9,0.9-5.8,1.3-8.6,1.3c-3.4,0-6.4-0.5-9-1.5s-4.9-2.4-6.8-4.2
				c-1.9-1.8-3.3-4.1-4.3-6.7c-1-2.6-1.5-5.5-1.5-8.8c0-3.6,0.7-7.1,2.1-10.6c1.4-3.5,3.4-6.6,6-9.3s5.7-4.9,9.4-6.6
				c3.7-1.7,7.8-2.5,12.3-2.5c6.1,0,11.3,1.3,15.6,3.9l-3.6,12.1h-0.2c-1-1.6-2.6-3-4.7-4.2c-2.1-1.2-4.6-1.7-7.6-1.7
				c-2.6,0-5.1,0.5-7.3,1.4s-4.1,2.3-5.7,4c-1.6,1.7-2.8,3.7-3.7,6s-1.3,4.8-1.3,7.5c0,3.5,1,6.2,2.9,8.3s4.8,3.1,8.5,3.1
				c2.3,0,4.2-0.5,5.6-1.4l2.8-13h11.5L848.7,711z"/>
			<path class="st4" d="M856.3,715.3l10.3-48.6H880c5.4,0,9.6,1.2,12.5,3.6c2.9,2.4,4.4,5.8,4.4,10.2c0,6-1.9,10.6-5.8,13.9
				c-3.9,3.3-9.5,5-16.9,5h-3.6l-3.4,15.9L856.3,715.3L856.3,715.3z M872.7,690.2h3c3.4,0,6-0.8,7.8-2.3s2.7-3.6,2.7-6.3
				c0-1.8-0.6-3.1-1.8-4.1s-3-1.4-5.4-1.4h-3.3L872.7,690.2z"/>
			<path class="st4" d="M904.1,705c1.9,1,3.9,1.4,6,1.4c2,0,3.6-0.5,4.6-1.5c1.1-1,1.6-2.3,1.6-3.9c0-0.6-0.1-1.2-0.3-1.8
				s-0.6-1.2-1.1-1.9c-0.5-0.6-1.2-1.3-2.1-2.1c-0.9-0.7-1.9-1.6-3.2-2.5c-1.4-1-2.5-1.9-3.4-2.9c-0.9-0.9-1.6-1.9-2.2-2.9
				c-0.6-1-1-2-1.2-3.1s-0.3-2.2-0.3-3.5c0-2.2,0.4-4.2,1.3-6c0.9-1.8,2-3.4,3.6-4.7c1.5-1.3,3.3-2.3,5.3-3s4.1-1.1,6.4-1.1
				c4.6,0,8.8,0.9,12.6,2.7l-2.4,11.2c-2.1-1.5-4-2.6-5.6-3.3s-3.1-1-4.6-1c-1.6,0-2.9,0.4-3.8,1.3c-1,0.9-1.4,1.9-1.4,3.1
				c0,0.5,0.1,1,0.3,1.5s0.5,1,1,1.6s1.2,1.2,2.1,1.9c0.9,0.7,2.1,1.6,3.5,2.6c1.3,1,2.5,1.9,3.4,2.9c0.9,0.9,1.7,1.9,2.3,3
				c0.6,1,1,2.2,1.3,3.4s0.4,2.5,0.4,3.9c0,2.4-0.5,4.6-1.5,6.5s-2.3,3.6-4.1,5c-1.7,1.4-3.8,2.4-6.1,3.2s-4.9,1.1-7.5,1.1
				c-2.4,0-4.7-0.2-6.7-0.7s-3.8-1.2-5.5-2.3l1.7-12.6h0.2C900.4,702.6,902.2,704,904.1,705z"/>
		</g>
	</g>
</g>
<g id="MONITOREO_DE_ALARMAS">
	<g>
		<path class="st4" d="M835.5,537.6c0-96.4,0-192.8,0-289.2c0-20.1-14.7-34.8-35-34.8c-37.3,0-74.5,0-111.7,0
			c-69.8,0-139.6,0.1-209.4,0.1c-66.5,0-133.1-0.1-199.6-0.1c-21.1,0-35.5,14.7-35.5,35.9c0.1,28.3,0.1,56.4,0.1,84.7
			c0,38.8,0,77.5,0,116.3c0,31.3,0,62.5,0,93.8c0,10.7,0.4,21.5,0.4,32.2s-0.5,21.6-0.2,32.3c0.1,4.2,0.7,8.6,2.2,12.6
			c5,13.6,17.4,21.8,32.3,21.8c53.2,0,106.3,0,159.6,0c1.3,0,2.6,0,4.1,0c-0.3,1.1-0.4,1.8-0.6,2.6c-3.7,10.9-7.5,21.8-10.9,32.8
			c-1.1,3.4-2.5,4.6-6.1,4.5c-18.9-0.2-37.9-0.2-56.8-0.1c-10.6,0-17.7,8.4-16.1,18.8c1.3,7.9,7.8,12.7,17.5,12.7
			c59.4,0,118.8,0,178.2,0c39.3,0,78.6,0,117.9,0c16,0,31.9,0.1,47.9-0.2c7.8-0.1,13.9-6.6,14.4-14.2c0.6-8-4.6-15-12.4-16.5
			c-2-0.4-4.1-0.6-6.1-0.6c-20.7,0-41.5,0-62.3-0.1c-1.3,0-3.5-0.9-3.9-1.9c-4.4-12.3-8.4-24.7-12.8-37.7c2,0,3.5,0,4.9,0
			c54.8,0,109.5,0,164.2,0c21.4,0,35.8-14.4,35.8-35.9C835.5,584.1,835.5,560.9,835.5,537.6z M277.7,245.6c174.9,0,349.4,0,524.4,0
			c0,101.8,0,203.1,0,305.2c-174.8,0-349.4,0-524.4,0C277.7,448.9,277.7,347.4,277.7,245.6z M709.5,693.7c-56.4,0-112.9,0-169.3,0
			c-55.5,0-111,0-166.5,0c55.5,0,111,0,166.5,0C596.7,693.7,653,693.7,709.5,693.7z M824.6,612.4c-0.8,11.3-11,19.8-22.6,20.1
			c-8.7,0.2-17.3,0-26.1,0c-75,0-149.9,0-224.9,0c-52,0-104,0-156,0c-38.6,0-77.3,0-116,0c-13.8,0-23.9-10-23.9-23.8
			c-0.1-8,0-16,0-24.4c190,0,379.6,0,569.6,0C824.7,594,825.2,603.3,824.6,612.4z"/>
		<g>
			<path class="st4" d="M468.1,493.2c-2.9-1.3-4-3.5-3.9-6.7c0.1-1.6,0-3.2,0-4.8c0.2-3.4,2.1-5.3,5.5-5.5c1.4-0.1,2.7,0,3.9,0
				c0-3.2-0.1-6.1,0-9.2c0.1-2.6,2.1-4.4,4.7-4.7c0.6,0,1.1,0,1.7,0c40.2,0,80.3,0,120.5,0c0.6,0,1.1,0,1.7,0
				c2.5,0.2,4.5,1.9,4.7,4.4c0.2,3,0,6.1,0,9.4c1,0,2.3,0,3.5,0c3.8,0.1,6.1,2.5,6.1,6.1c0,1.3-0.1,2.6,0,3.9
				c0.3,3.2-0.8,5.5-3.8,6.9C564.5,493.2,516.2,493.2,468.1,493.2z"/>
			<path class="st4" d="M456.2,353c1-1.3,1.7-2.8,3-3.8c1.7-1.4,3.9-1.5,6-0.4c4.4,2.5,8.9,5,13.6,7.8c-1.9,3.5-3.9,6.9-6,10.5
				c-2.5-1.4-4.9-2.8-7.2-4.1c-1.8-1-3.6-2.2-5.4-3.1s-3-2.4-3.9-4.2C456.2,354.7,456.2,353.8,456.2,353z"/>
			<path class="st4" d="M484.9,456.6c0-0.6-0.1-0.9-0.1-1.2c0-19.5-0.1-39.1,0.1-58.5c0.2-22.2,14.9-42.8,35.8-50.2
				c22-7.8,41.7-3.5,58.7,12.4c9.2,8.6,14.3,19.5,16,31.9c0.4,2.8,0.6,5.7,0.6,8.5c0,18.3,0,36.7,0,55c0,0.6,0,1.4,0,2.1
				C558.7,456.6,521.8,456.6,484.9,456.6z M503.5,379.8c0,19,0,38.1,0,57.1c14.4,0.4,29.6-12.2,28.4-31.2
				C531,391.5,516.4,378.1,503.5,379.8z M576.6,379.7c-13.9-0.6-29.7,11.7-28.4,30.6c1.1,16.2,15.3,26.9,28.4,26.3
				C576.6,417.7,576.6,398.7,576.6,379.7z"/>
			<path class="st4" d="M546,324.6c-3.9,0-7.4,0-11-0.1c-0.4,0-1.1-0.7-1.1-1.2c-0.1-4.7-0.2-9.4,0-14c0.1-3.9,2.8-6.2,6.4-6.1
				c3.3,0.1,5.6,2.8,5.6,6.5C546,314.6,546,319.5,546,324.6z"/>
			<path class="st4" d="M572,331.5c2.7-4.7,5.1-9.3,7.9-13.6c1.7-2.8,5.6-3.3,8.4-1.6c2.6,1.7,3.6,4.8,2,7.6
				c-2.5,4.5-5.2,9-7.9,13.6C579,335.6,575.6,333.6,572,331.5z"/>
			<path class="st4" d="M607.4,366.7c-2-3.6-3.9-6.9-6-10.5c4.7-2.7,9.2-5.5,13.9-7.9c2.8-1.5,6.3,0.1,7.7,2.8
				c1.5,2.8,0.6,6.1-2.2,7.7C616.5,361.6,612.1,364.1,607.4,366.7z"/>
			<path class="st4" d="M507.9,331.6c-3.4,1.9-6.8,3.9-10.3,5.9c-2.7-4.9-5.4-9.5-7.9-14.3c-1.2-2.4-0.2-5.3,2-6.9
				c2.3-1.6,5.1-1.5,7.2,0.4c0.6,0.6,1.1,1.2,1.6,1.8c2.4,4,4.8,8.1,7.2,12.1C507.6,331,507.7,331.2,507.9,331.6z"/>
		</g>
	</g>
</g>
<rect x="289" y="772" class="st5" width="500" height="168"/>
<g class="st6">
	<path class="st4" d="M355.6,825.4l-0.1-32.8l-12.1,27.7h-8.4L323,792.7v32.8h-11.4v-50.5h14l13.7,30l13.7-30h14v50.5H355.6z"/>
	<path class="st4" d="M428.2,800.1c0,14.7-11.7,25.9-27.3,25.9c-15.6,0-27.2-11.1-27.2-25.9c0-14.7,11.7-25.6,27.2-25.6
		C416.6,774.6,428.2,785.5,428.2,800.1z M386.8,800.2c0,8.5,6.6,15,14.3,15c7.8,0,14-6.6,14-15s-6.2-14.9-14-14.9
		C393.3,785.3,386.8,791.7,386.8,800.2z"/>
	<path class="st4" d="M470.2,825.4l-23.2-31v31h-12V775h11.3l23.3,31.1V775h12v50.4H470.2z"/>
	<path class="st4" d="M491.6,825.4V775h12.8v50.4H491.6z"/>
	<path class="st4" d="M537.8,785.3v40.1H525v-40.1h-15v-10.4H553v10.4H537.8z"/>
	<path class="st4" d="M607.1,800.1c0,14.7-11.7,25.9-27.3,25.9c-15.6,0-27.2-11.1-27.2-25.9c0-14.7,11.7-25.6,27.2-25.6
		C595.4,774.6,607.1,785.5,607.1,800.1z M565.7,800.2c0,8.5,6.6,15,14.3,15c7.8,0,14-6.6,14-15s-6.2-14.9-14-14.9
		C572.1,785.3,565.7,791.7,565.7,800.2z"/>
	<path class="st4" d="M636.7,811.2h-0.4h-9.7v14.2h-12.8V775h22.5c13.3,0,21,6.3,21,17.6c0,7.7-3.2,13.2-9.1,16.2l10.6,16.6h-14.5
		L636.7,811.2z M636.4,801.2c5.5,0,8.8-2.8,8.8-8.1c0-5.3-3.2-7.9-8.8-7.9h-9.7v16.1H636.4z"/>
	<path class="st4" d="M678.8,785.1v10h24v10.1h-24v10.2h27.4v10.1H666V775h39.5v10.1H678.8z"/>
	<path class="st4" d="M765.7,800.1c0,14.7-11.7,25.9-27.3,25.9c-15.6,0-27.2-11.1-27.2-25.9c0-14.7,11.7-25.6,27.2-25.6
		C754,774.6,765.7,785.5,765.7,800.1z M724.3,800.2c0,8.5,6.6,15,14.3,15c7.8,0,14-6.6,14-15s-6.2-14.9-14-14.9
		C730.8,785.3,724.3,791.7,724.3,800.2z"/>
</g>
<g class="st6">
	<path class="st4" d="M349.3,861.4c15.8,0,26.8,10.2,26.8,25.2c0,14.9-11.1,25.2-27.3,25.2h-21.2v-50.4H349.3z M340.5,901.6h9.1
		c7.8,0,13.5-6,13.5-14.9c0-8.9-5.9-15-14-15h-8.6V901.6z"/>
	<path class="st4" d="M395.7,871.5v10h24.1v10.1h-24.1v10.2h27.4v10.1h-40.3v-50.4h39.5v10.1H395.7z"/>
	<path class="st4" d="M459.6,902.5l-3.7,9.3h-13.2l21.7-50.4h13.2l21.2,50.4h-13.7l-3.6-9.3H459.6z M470.7,874.2l-7.3,18.6h14.5
		L470.7,874.2z"/>
	<path class="st4" d="M537.8,901.1v10.7h-34.2v-50.4h12.8v39.7H537.8z"/>
	<path class="st4" d="M555.6,902.5l-3.7,9.3h-13.2l21.7-50.4h13.2l21.2,50.4h-13.7l-3.6-9.3H555.6z M566.6,874.2l-7.3,18.6h14.5
		L566.6,874.2z"/>
	<path class="st4" d="M622.4,897.6h-0.4h-9.7v14.2h-12.8v-50.4h22.5c13.3,0,21,6.3,21,17.6c0,7.7-3.2,13.2-9.1,16.2l10.6,16.6h-14.5
		L622.4,897.6z M622.1,887.6c5.5,0,8.8-2.8,8.8-8.1c0-5.3-3.2-7.9-8.8-7.9h-9.7v16.1H622.1z"/>
	<path class="st4" d="M695.7,911.8l-0.1-32.8l-12.1,27.7h-8.4l-12.1-27.7v32.8h-11.4v-50.5h14l13.7,30l13.7-30h14v50.5H695.7z"/>
	<path class="st4" d="M728.6,902.5l-3.7,9.3h-13.2l21.7-50.4h13.2l21.2,50.4h-13.7l-3.6-9.3H728.6z M739.7,874.2l-7.3,18.6h14.5
		L739.7,874.2z"/>
</g>
<g id="Capa_9">
</g>
<g id="Capa_10">
</g>
</svg>
