<?xml version="1.0" encoding="utf-8"?>
<!-- Generator: Adobe Illustrator 27.0.1, SVG Export Plug-In . SVG Version: 6.00 Build 0)  -->
<svg version="1.1" id="Capa_1" xmlns="http://www.w3.org/2000/svg" xmlns:xlink="http://www.w3.org/1999/xlink" x="0px" y="0px"
	 viewBox="0 0 1080 1080" style="enable-background:new 0 0 1080 1080;" xml:space="preserve">
<style type="text/css">
	.st0{display:none;}
	.st1{display:inline;}
	.st2{fill:#FFFFFF;}
	.st3{fill:url(#SVGID_1_);}
	.st4{fill:none;stroke:#FFFFFF;stroke-width:3;stroke-miterlimit:10;}
</style>
<g id="LEASING" class="st0">
	<g class="st1">
		<path class="st2" d="M203,579.5v29.3h-93.4V471.2h35v108.4H203V579.5z"/>
		<path class="st2" d="M254.8,498.7V526h65.7v27.5h-65.7v27.7h74.9v27.5h-110V471.2h107.8v27.5H254.8z"/>
		<path class="st2" d="M383.7,583.5l-10,25.4h-36L397,471.2h36l58,137.7h-37.4l-9.8-25.4H383.7z M414,506l-20.1,50.9h39.7L414,506z"
			/>
		<path class="st2" d="M610.5,484.9l-13.2,27.3c-14.5-8.5-32.8-14.4-44.1-14.4c-9,0-15.1,3.3-15.1,10c0,23.8,72.8,10.2,72.8,60
			c0,27.5-24.4,42.1-55.1,42.1c-23,0-46.6-8.6-62.9-22l13.6-26.9c14.2,12.4,35.4,20.7,49.8,20.7c11,0,17.9-4.1,17.9-12
			c0-24.4-72.8-9.8-72.8-58.6c0-25.4,21.8-41.5,54.9-41.5C576.1,469.6,596.4,475.7,610.5,484.9z"/>
		<path class="st2" d="M630.1,608.8V471.2h35v137.7h-35V608.8z"/>
		<path class="st2" d="M788.8,608.8L725.5,524v84.8h-32.8V471.2h30.9l63.5,85v-85h32.7v137.7h-31L788.8,608.8L788.8,608.8z"/>
		<path class="st2" d="M969.1,538.8v53.7c-14.8,10.4-38,17.9-57.2,17.9c-41.9,0-73.6-30.3-73.6-70.4c0-39.9,32.4-70,75.9-70
			c20.5,0,42.1,7.9,56.3,20.5l-19.7,23.8c-10-9.2-24-14.9-36.8-14.9c-22.6,0-39.9,17.7-39.9,40.7c0,23.4,17.5,41.1,40.3,41.1
			c7.1,0,16.1-2.6,24.4-6.7v-35.6L969.1,538.8L969.1,538.8z"/>
	</g>
</g>
<g id="VENTAS" class="st0">
	<g class="st1">
		<path class="st2" d="M172.3,612.3L116.2,468h39.2l36.9,106.2L229.2,468h37.7l-56.7,144.3H172.3z"/>
		<path class="st2" d="M317.9,496.9v28.6h68.8v28.9h-68.8v29.1h78.5v28.9H281.2V468.1h113V497h-76.3L317.9,496.9L317.9,496.9z"/>
		<path class="st2" d="M521,612.3l-66.4-88.8v88.8h-34.4V468.1h32.4l66.6,89v-89h34.2v144.3L521,612.3L521,612.3z"/>
		<path class="st2" d="M649.1,497.5v114.8h-36.7V497.5h-43.1v-29.7h123.3v29.7H649.1z"/>
		<path class="st2" d="M725.6,585.8l-10.5,26.6h-37.7l62.2-144.3h37.7l60.8,144.3H799l-10.3-26.6H725.6z M757.4,504.5l-21,53.4H778
			L757.4,504.5z"/>
		<path class="st2" d="M963.4,482.5l-13.8,28.6c-15.2-8.9-34.4-15-46.2-15c-9.5,0-15.9,3.5-15.9,10.5c0,24.9,76.3,10.7,76.3,62.9
			c0,28.9-25.6,44.1-57.7,44.1c-24.1,0-48.9-9.1-66-23.1l14.2-28.2c14.8,13,37.1,21.6,52.2,21.6c11.5,0,18.8-4.3,18.8-12.6
			c0-25.6-76.3-10.3-76.3-61.4c0-26.6,22.9-43.5,57.5-43.5C927.3,466.4,948.5,472.8,963.4,482.5z"/>
	</g>
</g>
<g id="CONTIGO" class="st0">
	<g class="st1">
		<g>
			<g>
				<path class="st2" d="M483.3,587.6c-10.2-32.1-18.5-57.9-24.7-76.5c-12.1-35.8-15.7-43.2-17.3-45.4c-4.1-6-10.3-10.6-18.2-13.8
					c-7.7-3-16-4.5-24.8-4.5c-9,0-17.3,1.6-25,4.5c-7.9,3.1-14.1,7.7-18.5,13.9c-1.5,2.2-4.8,9.4-17,45.5
					c-8.2,24.4-16.6,50.1-25.1,76.5c-7.6,24.1-13.2,42.3-16.8,54.2l-1.6,5.4h54.4l48.7-146.1c0.1-0.3,0.2-0.7,0.4-1.1
					c0.1-0.3,0.3-0.9,0.4-1.3c0.1,0.3,0.2,0.7,0.3,0.9c0.1,0.3,0.2,0.8,0.3,1.1l49.5,146.6H502l-1.7-5.5
					C494.6,623.8,488.9,605.6,483.3,587.6z"/>
				<path class="st2" d="M512.8,480.5c-12.2,18.9-18.4,42.1-18.4,68.8c0,26.3,6.2,48.8,18.1,66.8c13.7,20.6,32.7,31.1,56.5,31.1
					h97.6v-49.7h-90.5c-8.5,0-15.2-5-20.5-15.3c-5.1-10-7.7-22.2-7.7-36.4c0-13.8,2.6-25.4,7.5-34.7c5.1-9.6,11.9-14.3,20.6-14.3
					h90.5v-48.6H569C545.6,448.3,526.7,459.2,512.8,480.5z"/>
				<rect x="684" y="448.3" class="st2" width="50.7" height="199.1"/>
				<path class="st2" d="M841.1,597.6c-12.3,0-21.7-5.6-28.8-17.1c-6.3-10.3-9.5-23.3-9.5-38.6v-93.5h-50.7v93.3
					c-0.2,1.1-0.3,2.3-0.4,3.7c-0.1,1.5-0.1,3.5-0.1,5.9c0,13,1.6,25.2,4.7,36.1c4.8,17,13.1,30.8,24.8,40.7
					c15,12.8,35.1,19.2,60.1,19.2h80.2v-49.7L841.1,597.6L841.1,597.6z"/>
			</g>
			<g>
				<path class="st2" d="M224.5,547.3c3,3.5,4.4,9.8,2.9,14.2l-6.9,20.8c-1.5,4.4-6.4,8.7-10.9,9.6l-21.5,4.5
					c-4.5,0.9-10.7-1.1-13.8-4.6l-14.5-16.4c-3-3.5-4.4-9.8-2.9-14.2l6.9-20.8c1.5-4.4,6.4-8.7,10.9-9.6l21.5-4.5
					c4.5-0.9,10.7,1.1,13.8,4.6L224.5,547.3z"/>
				<path class="st2" d="M320.5,472.4c4.6,5.1,6.6,14.8,4.4,21.4l-12,36.1c-2.1,6.6-9.5,13.1-16.2,14.4l-37.4,7.7
					c-6.8,1.3-16.1-1.7-20.7-6.8l-25.4-28.5c-4.6-5.1-6.6-14.8-4.4-21.4l12.1-36.3c2.1-6.6,9.5-13.1,16.2-14.4l37.4-7.7
					c6.8-1.3,16.1,1.7,20.7,6.8L320.5,472.4z"/>
				<path class="st2" d="M278.2,389.7c1.6,1.7,2.2,4.9,1.5,7.2l-8.3,25c-0.7,2.2-3.1,4.4-5.4,4.8l-25.7,5.3
					c-2.2,0.4-5.4-0.6-6.9-2.2l-17.5-19.7c-1.6-1.7-2.2-4.9-1.5-7.2l8.3-25c0.7-2.2,3.1-4.4,5.4-4.8l25.7-5.3
					c2.2-0.4,5.4,0.6,6.9,2.2L278.2,389.7z"/>
			</g>
			<path class="st2" d="M418.3,587.7l-8.1,15c-0.7,1.3-2,2.1-3.6,2.2l-17,0.6c-1.5,0-2.9-0.7-3.7-2l-9-14.4
				c-0.8-1.2-0.8-2.9-0.1-4.1l8.1-15c0.7-1.3,2-2.1,3.6-2.2l17-0.6c1.5,0,2.9,0.7,3.7,2l9,14.4C418.9,584.8,418.9,586.4,418.3,587.7
				z"/>
		</g>
		<g>
			<path class="st2" d="M655.3,667.8l-2,12.5c-3.2-3-5.7-4.5-11.1-4.5c-6.3,0-12.5,5.1-13.8,12.2c-1.1,6.9,3.6,12.2,9.8,12.2
				c5.4,0,8.3-1.6,12.5-4.6l-2,12.5c-3.6,2.7-8.1,4.1-12.9,4.1c-12.6,0-23.3-8.8-20.9-24.3c2.5-15.4,15.9-24.3,28.5-24.3
				C648.6,663.8,652.6,665.2,655.3,667.8z"/>
			<path class="st2" d="M704.4,688.1c-2.5,15.4-15.3,24.3-28,24.3c-12.6,0-22.7-8.8-20.4-24.3c2.5-15.4,15.3-24.3,28-24.3
				C696.8,663.8,706.9,672.7,704.4,688.1z M669.5,688.1c-1.1,6.9,2.6,12.2,8.8,12.2c6.3,0,11.5-5.1,12.8-12.2
				c1.1-6.9-2.6-12.2-8.8-12.2C676,675.9,670.6,681,669.5,688.1z"/>
			<path class="st2" d="M745,712l-21.1-23.5l-3.6,22.8h-13l7.5-47.2h4.6l21.3,23.9l3.7-23.3h12.8l-7.5,47.2L745,712L745,712z"/>
			<path class="st2" d="M788.2,676.2l-5.6,34.8h-13l5.6-34.8h-13.7l1.9-11.4h40.4l-1.9,11.4H788.2z"/>
			<path class="st2" d="M802.6,711.3l7.4-46.4h13l-7.4,46.4H802.6z"/>
			<path class="st2" d="M866.3,705.1c-5.1,4.5-12.5,7.3-19.6,7.3c-12.6,0-23.3-8.8-20.8-24.3c2.5-15.4,15.9-24.3,28.5-24.3
				c4.8,0,9,1.5,11.6,4.1l-2,12.5c-3.2-3-5.7-4.5-11.1-4.5c-6.3,0-12.5,5.1-13.8,12.2c-1.1,6.9,3.6,12.2,9.8,12.2
				c3,0,5.6-0.9,6.9-2.1l1.9-10.7h11.2L866.3,705.1z"/>
			<path class="st2" d="M923.4,688.1c-2.5,15.4-15.3,24.3-28,24.3c-12.6,0-22.7-8.8-20.4-24.3c2.5-15.4,15.3-24.3,28-24.3
				S925.7,672.7,923.4,688.1z M888.3,688.1c-1.1,6.9,2.6,12.2,8.8,12.2c6.3,0,11.5-5.1,12.8-12.2c1.1-6.9-2.6-12.2-8.8-12.2
				C894.8,675.9,889.6,681,888.3,688.1z"/>
		</g>
	</g>
</g>
<g id="GUARD" class="st0">
	<g class="st1">
		<g>
			<g>
				<path class="st2" d="M484.9,587.9c-10.3-32.4-18.6-58.4-24.9-77.2c-12.2-36.1-15.8-43.6-17.5-45.8c-4.2-6.1-10.4-10.7-18.4-13.9
					c-7.8-3-16.1-4.5-25.1-4.5s-17.5,1.6-25.2,4.5c-8,3.2-14.2,7.8-18.6,14c-1.5,2.3-4.9,9.5-17.2,45.9
					c-8.2,24.6-16.7,50.6-25.3,77.2c-7.7,24.3-13.3,42.7-16.9,54.6l-1.6,5.4h54.9l49.1-147.4c0.1-0.3,0.2-0.7,0.5-1.1
					c0.1-0.3,0.3-0.9,0.5-1.4c0.1,0.3,0.2,0.7,0.3,0.9c0.1,0.3,0.2,0.8,0.3,1.1l49.9,147.9h54.1l-1.7-5.5
					C496.3,624.4,490.6,606.1,484.9,587.9z"/>
				<path class="st2" d="M514.7,479.9c-12.3,19.1-18.5,42.4-18.5,69.4c0,26.5,6.2,49.2,18.3,67.4c13.8,20.8,33,31.4,57,31.4h98.4
					V598h-91.3c-8.6,0-15.4-5.1-20.7-15.5c-5.2-10-7.8-22.4-7.8-36.7c0-13.9,2.6-25.6,7.6-35c5.2-9.7,12-14.5,20.8-14.5h91.3v-49
					h-98.4C547.8,447.4,528.7,458.3,514.7,479.9z"/>
				<rect x="687.4" y="447.4" class="st2" width="51.1" height="200.8"/>
				<path class="st2" d="M845.9,598c-12.4,0-21.9-5.6-29-17.3c-6.3-10.4-9.6-23.5-9.6-38.9v-94.4h-51.1v94.2
					c-0.2,1.1-0.3,2.4-0.5,3.7c-0.1,1.5-0.1,3.5-0.1,6c0,13.1,1.6,25.4,4.7,36.5c4.9,17.2,13.2,31,25.1,41.1
					c15.1,12.9,35.4,19.4,60.6,19.4h81v-50.1h-81.1L845.9,598L845.9,598z"/>
			</g>
			<g>
				<path class="st2" d="M223.8,547.3c3,3.5,4.4,9.9,2.9,14.3l-7,21c-1.5,4.4-6.4,8.8-11,9.7l-21.7,4.5c-4.5,0.9-10.8-1.1-13.9-4.6
					l-14.7-16.6c-3-3.5-4.4-9.9-2.9-14.3l7-21c1.5-4.4,6.4-8.8,11-9.7l21.7-4.5c4.5-0.9,10.8,1.1,13.9,4.6L223.8,547.3z"/>
				<path class="st2" d="M320.6,471.7c4.6,5.2,6.7,14.9,4.4,21.6l-12,36.4c-2.1,6.7-9.6,13.2-16.4,14.6l-37.7,7.8
					c-6.9,1.4-16.3-1.7-20.9-6.9l-25.6-28.8c-4.6-5.2-6.7-14.9-4.4-21.6l12.2-36.6c2.1-6.7,9.6-13.2,16.4-14.6l37.7-7.8
					c6.9-1.4,16.3,1.7,20.9,6.9L320.6,471.7z"/>
				<path class="st2" d="M278,388.2c1.6,1.7,2.3,5,1.5,7.2l-8.4,25.2c-0.7,2.3-3.2,4.4-5.4,4.9l-26,5.3c-2.3,0.5-5.4-0.6-7-2.3
					l-17.6-19.9c-1.6-1.7-2.3-5-1.5-7.2l8.4-25.2c0.7-2.3,3.2-4.4,5.4-4.9l26-5.3c2.3-0.5,5.4,0.6,7,2.3L278,388.2z"/>
			</g>
			<path class="st2" d="M419.3,588.1l-8.1,15.1c-0.7,1.4-2,2.1-3.6,2.3l-17.2,0.6c-1.5,0-2.9-0.7-3.7-2l-9-14.6
				c-0.8-1.2-0.8-2.9-0.1-4.2l8.1-15.1c0.7-1.4,2-2.1,3.6-2.3l17.2-0.6c1.5,0,2.9,0.7,3.7,2l9,14.6C420,585.1,420,586.7,419.3,588.1
				z"/>
		</g>
		<g>
			<path class="st2" d="M731.3,708.9c-2.7,1.7-5.5,2.9-8.4,3.8c-2.9,0.9-5.7,1.3-8.5,1.3c-3.3,0-6.3-0.5-8.9-1.5
				c-2.6-1-4.8-2.4-6.7-4.2c-1.8-1.8-3.3-4-4.2-6.6c-1-2.6-1.5-5.5-1.5-8.7c0-3.6,0.7-7,2.1-10.5c1.4-3.4,3.4-6.5,6-9.2
				s5.7-4.9,9.3-6.5s7.7-2.5,12.1-2.5c6,0,11.1,1.3,15.4,3.8l-3.5,11.9h-0.2c-1-1.6-2.5-3-4.6-4.1s-4.6-1.7-7.5-1.7
				c-2.6,0-5,0.5-7.2,1.4s-4.1,2.2-5.6,3.9c-1.6,1.7-2.8,3.7-3.6,5.9c-0.9,2.3-1.3,4.8-1.3,7.5c0,3.4,1,6.2,2.9,8.2s4.7,3,8.4,3
				c2.3,0,4.1-0.5,5.5-1.4l2.7-12.8h11.4L731.3,708.9z"/>
			<path class="st2" d="M759.4,665.2l-6.1,28.8c-0.1,0.5-0.2,1-0.2,1.6c-0.1,0.6-0.1,1.3-0.1,1.8c0,2,0.6,3.5,1.9,4.4
				c1.2,0.9,2.8,1.4,4.6,1.4c1.2,0,2.5-0.2,3.7-0.6c1.2-0.4,2.3-0.9,3.3-1.7c1-0.7,1.9-1.7,2.7-2.9s1.3-2.6,1.6-4.2l6.1-28.8h10.9
				l-6.3,29.4c-0.7,3.4-1.8,6.3-3.2,8.8c-1.4,2.4-3.2,4.4-5.1,6c-2,1.6-4.2,2.7-6.6,3.5c-2.4,0.7-4.9,1.1-7.5,1.1
				c-2.5,0-4.8-0.3-6.9-0.9c-2.1-0.6-3.9-1.5-5.5-2.8c-1.5-1.2-2.7-2.8-3.6-4.8c-0.9-1.9-1.3-4.2-1.3-6.9c0-0.5,0-1.1,0.1-1.7
				c0.1-0.6,0.2-1.2,0.3-1.8l6.4-30.1h10.8L759.4,665.2L759.4,665.2z"/>
			<path class="st2" d="M812.7,665.5l8.1-1.2l10.2,48.9h-11.4l-1.8-10.4h-17.6l-6,10.4H781L812.7,665.5z M804.6,694.7h12.1
				l-2.6-15.5L804.6,694.7z"/>
			<path class="st2" d="M846.5,665.2h13.6c5.4,0,9.5,1.2,12.4,3.5s4.3,5.5,4.3,9.7c0,1.8-0.3,3.5-1,5.1c-0.6,1.6-1.5,3-2.7,4.3
				c-1.1,1.3-2.5,2.5-4.1,3.4c-1.6,1-3.4,1.8-5.4,2.5l11.5,19.4h-12.9l-9.8-17.8H851l-3.8,17.8h-10.9L846.5,665.2z M852.5,688.4h0.6
				c2.1,0,3.9-0.2,5.4-0.7c1.6-0.4,2.8-1,3.8-1.8s1.8-1.7,2.3-2.7c0.5-1.1,0.8-2.2,0.8-3.4c0-1.8-0.6-3.2-1.9-4.1
				c-1.3-0.9-3.1-1.3-5.4-1.3h-2.7L852.5,688.4z"/>
			<path class="st2" d="M880.2,713.1l10.2-47.9h13.5c3.7,0,7,0.5,9.9,1.5s5.2,2.4,7.1,4.2c1.9,1.8,3.3,4,4.3,6.5s1.5,5.3,1.5,8.4
				c0,4-0.7,7.7-2.1,11.1c-1.4,3.4-3.4,6.2-6.1,8.6c-2.7,2.4-6,4.3-9.9,5.6s-8.4,2-13.5,2L880.2,713.1L880.2,713.1z M893.1,703.2
				h3.8c3,0,5.6-0.4,7.9-1.3c2.3-0.8,4.2-2,5.7-3.5c1.6-1.5,2.7-3.3,3.5-5.4s1.2-4.4,1.2-7c0-1.5-0.2-3-0.7-4.3s-1.2-2.5-2.2-3.5
				s-2.2-1.8-3.7-2.3s-3.2-0.8-5.2-0.8h-4.3L893.1,703.2z"/>
		</g>
	</g>
</g>
<g id="CLEANER" class="st0">
	<g class="st1">
		<g>
			<g>
				<path class="st2" d="M485.7,588.1c-10.3-32.5-18.7-58.5-25-77.4c-12.2-36.2-15.9-43.7-17.5-46c-4.2-6.1-10.4-10.8-18.5-13.9
					c-7.8-3.1-16.2-4.5-25.1-4.5c-9.1,0-17.5,1.6-25.2,4.5c-8,3.2-14.3,7.8-18.7,14c-1.5,2.3-4.9,9.5-17.2,46.1
					c-8.3,24.7-16.8,50.7-25.4,77.4c-7.7,24.3-13.4,42.8-17,54.8l-1.6,5.4h55l49.3-147.9c0.1-0.3,0.2-0.7,0.5-1.1
					c0.1-0.3,0.3-0.9,0.5-1.4c0.1,0.3,0.2,0.7,0.3,0.9c0.1,0.3,0.2,0.8,0.3,1.1l50,148.3h54.2L503,643
					C497.2,624.7,491.4,606.3,485.7,588.1z"/>
				<path class="st2" d="M515.6,479.8c-12.3,19.1-18.6,42.6-18.6,69.6c0,26.6,6.2,49.4,18.3,67.6c13.8,20.8,33.1,31.5,57.2,31.5
					h98.7v-50.3h-91.6c-8.6,0-15.4-5.1-20.7-15.5c-5.2-10.1-7.8-22.4-7.8-36.8c0-13.9,2.6-25.7,7.6-35.1c5.2-9.7,12-14.5,20.8-14.5
					h91.6v-49.1h-98.7C548.8,447.1,529.7,458.1,515.6,479.8z"/>
				<rect x="688.9" y="447.1" class="st2" width="51.3" height="201.4"/>
				<path class="st2" d="M847.8,598.2c-12.5,0-22-5.7-29.1-17.3c-6.3-10.4-9.6-23.5-9.6-39.1v-94.7h-51.3v94.4
					c-0.2,1.1-0.3,2.4-0.5,3.7c-0.1,1.5-0.1,3.5-0.1,6c0,13.1,1.6,25.5,4.8,36.6c4.9,17.2,13.2,31.1,25.1,41.2
					c15.2,12.9,35.6,19.5,60.8,19.5h81.2v-50.3L847.8,598.2L847.8,598.2L847.8,598.2z"/>
			</g>
			<g>
				<path class="st2" d="M223.9,547.3c3.1,3.5,4.4,10,2.9,14.4l-7,21.1c-1.5,4.4-6.5,8.8-11,9.7l-21.7,4.5
					c-4.5,0.9-10.9-1.1-13.9-4.6l-14.7-16.6c-3.1-3.5-4.4-10-2.9-14.4l7-21.1c1.5-4.4,6.5-8.8,11-9.7l21.7-4.5
					c4.5-0.9,10.9,1.1,13.9,4.6L223.9,547.3z"/>
				<path class="st2" d="M321,471.5c4.6,5.2,6.7,14.9,4.4,21.6l-12.1,36.6c-2.2,6.7-9.6,13.2-16.4,14.6l-37.8,7.8
					c-6.9,1.4-16.3-1.7-20.9-6.9l-25.7-28.9c-4.6-5.2-6.7-14.9-4.4-21.6l12.2-36.7c2.2-6.7,9.6-13.2,16.4-14.6l37.8-7.8
					c6.9-1.4,16.3,1.7,20.9,6.9L321,471.5z"/>
				<path class="st2" d="M278.2,387.8c1.6,1.7,2.3,5,1.5,7.2l-8.4,25.2c-0.7,2.3-3.2,4.4-5.4,4.9l-26,5.3c-2.3,0.5-5.4-0.6-7-2.3
					l-17.7-19.9c-1.6-1.7-2.3-5-1.5-7.2l8.4-25.2c0.7-2.3,3.2-4.4,5.4-4.9l26-5.3c2.3-0.5,5.4,0.6,7,2.3L278.2,387.8z"/>
			</g>
			<path class="st2" d="M420,588.2l-8.2,15.2c-0.7,1.4-2,2.2-3.6,2.3l-17.2,0.6c-1.5,0-2.9-0.7-3.7-2l-9.1-14.6
				c-0.8-1.2-0.8-2.9-0.1-4.2l8.2-15.2c0.7-1.4,2-2.2,3.6-2.3l17.2-0.6c1.5,0,2.9,0.7,3.7,2l9.1,14.6
				C420.6,585.3,420.6,586.9,420,588.2z"/>
		</g>
		<g>
			<path class="st2" d="M665.3,681.5h-0.2c-1.1-1.7-2.6-3.2-4.7-4.5c-2.1-1.2-4.6-1.8-7.6-1.8c-2.5,0-4.9,0.5-7,1.4s-4,2.2-5.5,3.8
				s-2.8,3.4-3.6,5.5c-0.9,2.1-1.3,4.3-1.3,6.6c0,1.7,0.3,3.2,0.8,4.6c0.5,1.4,1.3,2.6,2.2,3.6c1,1,2.2,1.8,3.6,2.4
				c1.4,0.6,3,0.8,4.9,0.8c3.1,0,6-0.7,8.8-2.1c2.7-1.4,5.4-3.6,8-6.5h0.2l-4.3,14.8c-2,1.4-4.3,2.5-6.9,3.2
				c-2.6,0.7-5.2,1.1-7.9,1.1c-3.2,0-6.1-0.5-8.6-1.6c-2.5-1-4.7-2.5-6.5-4.4s-3.1-4.2-4.1-6.9c-0.9-2.7-1.4-5.7-1.4-9.1
				c0-3.7,0.8-7.2,2.3-10.5c1.6-3.3,3.7-6.3,6.3-8.8c2.7-2.6,5.8-4.6,9.3-6.1c3.6-1.5,7.4-2.3,11.4-2.3c6.5,0,11.6,1.4,15.3,4.3
				L665.3,681.5z"/>
			<path class="st2" d="M678.6,665.6h10.9l-8.1,38.1h20.9l-2.1,10h-31.8L678.6,665.6z"/>
			<path class="st2" d="M723.6,684.4h14.9l-1.9,8.8h-14.9l-2.4,11H737l-2,9.5h-28.6l10.2-48.1h28.6l-2,9.5h-17.7L723.6,684.4z"/>
			<path class="st2" d="M770.3,665.8l8.1-1.2l10.3,49h-11.5l-1.8-10.4h-17.6l-6,10.4h-13.2L770.3,665.8z M762.2,695.2h12.1
				l-2.6-15.5L762.2,695.2z"/>
			<path class="st2" d="M849.2,665.6L839,713.7h-8.5l-19.3-30.9l-6.6,30.9H794l10.2-48.1h8.5l19.4,30.8l6.5-30.8L849.2,665.6
				L849.2,665.6z"/>
			<path class="st2" d="M866.7,684.4h14.9l-1.9,8.8h-14.9l-2.4,11h17.7l-2,9.5h-28.6l10.2-48.1h28.6l-2,9.5h-17.7L866.7,684.4z"/>
			<path class="st2" d="M897.1,665.6h13.6c5.4,0,9.5,1.2,12.4,3.5s4.3,5.6,4.3,9.7c0,1.8-0.3,3.5-1,5.1c-0.6,1.6-1.5,3-2.7,4.3
				c-1.1,1.3-2.5,2.5-4.1,3.5s-3.4,1.8-5.4,2.5l11.5,19.5h-13l-9.8-17.9h-1.4l-3.8,17.9h-10.9L897.1,665.6z M903.1,688.8h0.6
				c2.1,0,3.9-0.2,5.4-0.7c1.6-0.4,2.8-1,3.9-1.8c1-0.8,1.8-1.7,2.3-2.7c0.5-1.1,0.8-2.2,0.8-3.4c0-1.8-0.6-3.2-1.9-4.1
				c-1.3-0.9-3.1-1.3-5.4-1.3h-2.7L903.1,688.8z"/>
		</g>
	</g>
</g>
<g id="GPS" class="st0">
	<g class="st1">
		<g>
			<g>
				<path class="st2" d="M482.6,588.5c-10.4-32.8-18.9-59.1-25.3-78.2c-12.4-36.6-16-44.1-17.7-46.4c-4.2-6.2-10.5-10.9-18.6-14.1
					c-7.9-3.1-16.4-4.6-25.4-4.6c-9.1,0-17.7,1.6-25.5,4.6c-8.1,3.2-14.4,7.9-18.9,14.2c-1.5,2.3-4.9,9.6-17.4,46.5
					c-8.3,24.9-16.9,51.2-25.6,78.2c-7.8,24.6-13.5,43.2-17.2,55.3l-1.6,5.5H345l49.7-149.4c0.1-0.3,0.2-0.7,0.5-1.1
					c0.1-0.3,0.3-0.9,0.5-1.4c0.1,0.3,0.2,0.7,0.3,0.9c0.1,0.3,0.2,0.8,0.3,1.1l50.5,149.8h54.8L500,644
					C494.2,625.4,488.3,606.9,482.6,588.5z"/>
				<path class="st2" d="M512.8,479.1c-12.5,19.3-18.8,43-18.8,70.3c0,26.9,6.3,49.9,18.5,68.3c14,21,33.4,31.8,57.8,31.8H670v-50.8
					h-92.5c-8.7,0-15.6-5.1-20.9-15.7c-5.3-10.2-7.9-22.6-7.9-37.2c0-14.1,2.6-26,7.7-35.5c5.3-9.8,12.1-14.6,21-14.6h92.5v-49.6
					h-99.7C546.3,446.1,527,457.2,512.8,479.1z"/>
				<rect x="687.8" y="446.1" class="st2" width="51.8" height="203.4"/>
				<path class="st2" d="M848.3,598.7c-12.6,0-22.2-5.7-29.4-17.5c-6.4-10.5-9.7-23.8-9.7-39.5v-95.6h-51.8v95.4
					c-0.2,1.1-0.3,2.4-0.5,3.8c-0.1,1.5-0.1,3.5-0.1,6.1c0,13.3,1.6,25.7,4.8,36.9c4.9,17.4,13.4,31.4,25.4,41.6
					c15.3,13,35.9,19.7,61.4,19.7h82v-50.8L848.3,598.7L848.3,598.7L848.3,598.7z"/>
			</g>
			<g>
				<path class="st2" d="M218.1,547.3c3.1,3.5,4.5,10.1,3,14.5l-7.1,21.3c-1.5,4.5-6.5,8.9-11.1,9.8l-22,4.6
					c-4.6,0.9-11-1.1-14.1-4.7L152,576c-3.1-3.5-4.5-10.1-3-14.5l7.1-21.3c1.5-4.5,6.5-8.9,11.1-9.8l22-4.6c4.6-0.9,11,1.1,14.1,4.7
					L218.1,547.3z"/>
				<path class="st2" d="M316.2,470.7c4.7,5.3,6.7,15.1,4.5,21.8l-12.2,36.9c-2.2,6.7-9.7,13.4-16.6,14.8l-38.2,7.9
					c-7,1.4-16.5-1.7-21.2-7l-26-29.2c-4.7-5.3-6.7-15.1-4.5-21.8l12.4-37.1c2.2-6.7,9.7-13.4,16.6-14.8l38.2-7.9
					c7-1.4,16.5,1.7,21.2,7L316.2,470.7z"/>
				<path class="st2" d="M273,386.2c1.6,1.7,2.3,5,1.5,7.3L266,419c-0.7,2.3-3.2,4.5-5.5,4.9l-26.3,5.4c-2.3,0.5-5.5-0.6-7.1-2.3
					l-17.8-20.1c-1.6-1.7-2.3-5-1.5-7.3l8.5-25.5c0.7-2.3,3.2-4.5,5.5-4.9l26.3-5.4c2.3-0.5,5.5,0.6,7.1,2.3L273,386.2z"/>
			</g>
			<path class="st2" d="M416.2,588.6l-8.2,15.3c-0.7,1.4-2.1,2.2-3.7,2.3l-17.4,0.6c-1.5,0-3-0.7-3.8-2.1L374,590
				c-0.8-1.3-0.8-3-0.1-4.2l8.2-15.3c0.7-1.4,2.1-2.2,3.7-2.3l17.4-0.6c1.5,0,3,0.7,3.8,2.1l9.1,14.8
				C416.9,585.6,416.9,587.2,416.2,588.6z"/>
		</g>
		<g>
			<path class="st2" d="M848.7,711c-2.8,1.7-5.6,3-8.5,3.8c-2.9,0.9-5.8,1.3-8.6,1.3c-3.4,0-6.4-0.5-9-1.5s-4.9-2.4-6.8-4.2
				c-1.9-1.8-3.3-4.1-4.3-6.7c-1-2.6-1.5-5.5-1.5-8.8c0-3.6,0.7-7.1,2.1-10.6c1.4-3.5,3.4-6.6,6-9.3s5.7-4.9,9.4-6.6
				c3.7-1.7,7.8-2.5,12.3-2.5c6.1,0,11.3,1.3,15.6,3.9l-3.6,12.1h-0.2c-1-1.6-2.6-3-4.7-4.2c-2.1-1.2-4.6-1.7-7.6-1.7
				c-2.6,0-5.1,0.5-7.3,1.4s-4.1,2.3-5.7,4c-1.6,1.7-2.8,3.7-3.7,6s-1.3,4.8-1.3,7.5c0,3.5,1,6.2,2.9,8.3s4.8,3.1,8.5,3.1
				c2.3,0,4.2-0.5,5.6-1.4l2.8-13h11.5L848.7,711z"/>
			<path class="st2" d="M856.3,715.3l10.3-48.6H880c5.4,0,9.6,1.2,12.5,3.6c2.9,2.4,4.4,5.8,4.4,10.2c0,6-1.9,10.6-5.8,13.9
				c-3.9,3.3-9.5,5-16.9,5h-3.6l-3.4,15.9L856.3,715.3L856.3,715.3z M872.7,690.2h3c3.4,0,6-0.8,7.8-2.3s2.7-3.6,2.7-6.3
				c0-1.8-0.6-3.1-1.8-4.1s-3-1.4-5.4-1.4h-3.3L872.7,690.2z"/>
			<path class="st2" d="M904.1,705c1.9,1,3.9,1.4,6,1.4c2,0,3.6-0.5,4.6-1.5c1.1-1,1.6-2.3,1.6-3.9c0-0.6-0.1-1.2-0.3-1.8
				s-0.6-1.2-1.1-1.9c-0.5-0.6-1.2-1.3-2.1-2.1c-0.9-0.7-1.9-1.6-3.2-2.5c-1.4-1-2.5-1.9-3.4-2.9c-0.9-0.9-1.6-1.9-2.2-2.9
				c-0.6-1-1-2-1.2-3.1s-0.3-2.2-0.3-3.5c0-2.2,0.4-4.2,1.3-6c0.9-1.8,2-3.4,3.6-4.7c1.5-1.3,3.3-2.3,5.3-3s4.1-1.1,6.4-1.1
				c4.6,0,8.8,0.9,12.6,2.7l-2.4,11.2c-2.1-1.5-4-2.6-5.6-3.3s-3.1-1-4.6-1c-1.6,0-2.9,0.4-3.8,1.3c-1,0.9-1.4,1.9-1.4,3.1
				c0,0.5,0.1,1,0.3,1.5s0.5,1,1,1.6s1.2,1.2,2.1,1.9c0.9,0.7,2.1,1.6,3.5,2.6c1.3,1,2.5,1.9,3.4,2.9c0.9,0.9,1.7,1.9,2.3,3
				c0.6,1,1,2.2,1.3,3.4s0.4,2.5,0.4,3.9c0,2.4-0.5,4.6-1.5,6.5s-2.3,3.6-4.1,5c-1.7,1.4-3.8,2.4-6.1,3.2s-4.9,1.1-7.5,1.1
				c-2.4,0-4.7-0.2-6.7-0.7s-3.8-1.2-5.5-2.3l1.7-12.6h0.2C900.4,702.6,902.2,704,904.1,705z"/>
		</g>
	</g>
</g>
<g id="MONITOREO_DE_ALARMAS" class="st0">
	<g class="st1">
		<path class="st2" d="M862.1,620.2c0-105.1,0-210.1,0-315.2c0-21.9-16-37.9-38.1-37.9c-40.6,0-81.2,0-121.7,0
			c-76.1,0-152.1,0.1-228.2,0.1c-72.5,0-145.1-0.1-217.6-0.1c-23,0-38.7,16-38.7,39.1c0.1,30.8,0.1,61.5,0.1,92.3
			c0,42.3,0,84.5,0,126.8c0,34.1,0,68.1,0,102.2c0,11.7,0.4,23.4,0.4,35.1c0,11.7-0.5,23.5-0.2,35.2c0.1,4.6,0.8,9.4,2.4,13.7
			c5.4,14.8,19,23.8,35.2,23.8c58,0,115.9,0,173.9,0c1.4,0,2.8,0,4.5,0c-0.3,1.2-0.4,2-0.7,2.8c-4,11.9-8.2,23.8-11.9,35.7
			c-1.2,3.7-2.7,5-6.7,4.9c-20.6-0.2-41.3-0.2-61.9-0.1c-11.6,0-19.3,9.2-17.5,20.5c1.4,8.6,8.5,13.8,19.1,13.8
			c64.7,0,129.5,0,194.2,0c42.8,0,85.7,0,128.5,0c17.4,0,34.8,0.1,52.2-0.2c8.5-0.1,15.2-7.2,15.7-15.5c0.6-8.7-5-16.3-13.5-18
			c-2.2-0.4-4.5-0.6-6.7-0.6c-22.6,0-45.2,0-67.9-0.1c-1.4,0-3.8-1-4.2-2.1c-4.8-13.4-9.2-26.9-14-41.1c2.2,0,3.8,0,5.3,0
			c59.7,0,119.3,0,179,0c23.3,0,39-15.7,39-39.1C862.1,670.9,862.1,645.6,862.1,620.2z M254.1,302c190.6,0,380.8,0,571.6,0
			c0,110.9,0,221.4,0,332.6c-190.5,0-380.8,0-571.6,0C254.1,523.5,254.1,412.9,254.1,302z M724.7,790.4c-61.5,0-123,0-184.5,0
			c-60.5,0-121,0-181.5,0c60.5,0,121,0,181.5,0C601.8,790.4,663.2,790.4,724.7,790.4z M850.2,701.7c-0.9,12.3-12,21.6-24.6,21.9
			c-9.5,0.2-18.9,0-28.4,0c-81.7,0-163.4,0-245.1,0c-56.7,0-113.4,0-170,0c-42.1,0-84.2,0-126.4,0c-15,0-26-10.9-26.1-25.9
			c-0.1-8.7,0-17.4,0-26.6c207.1,0,413.7,0,620.8,0C850.3,681.7,850.9,691.8,850.2,701.7z"/>
		<g>
			<path class="st2" d="M461.6,571.8c-3.2-1.4-4.4-3.8-4.2-7.3c0.1-1.7,0-3.5,0-5.2c0.2-3.7,2.3-5.8,6-6c1.5-0.1,2.9,0,4.2,0
				c0-3.5-0.1-6.7,0-10c0.1-2.8,2.3-4.8,5.1-5.1c0.6,0,1.2,0,1.8,0c43.8,0,87.5,0,131.3,0c0.6,0,1.2,0,1.8,0
				c2.7,0.2,4.9,2.1,5.1,4.8c0.2,3.3,0,6.7,0,10.2c1.1,0,2.5,0,3.8,0c4.1,0.1,6.6,2.7,6.7,6.7c0,1.4-0.1,2.8,0,4.2
				c0.3,3.5-0.9,6-4.1,7.5C566.7,571.8,514.1,571.8,461.6,571.8z"/>
			<path class="st2" d="M448.7,419c1.1-1.4,1.9-3.1,3.3-4.1c1.9-1.5,4.3-1.6,6.5-0.4c4.8,2.7,9.7,5.5,14.8,8.5
				c-2.1,3.8-4.2,7.5-6.5,11.4c-2.7-1.5-5.3-3-7.9-4.5c-2-1.1-3.9-2.4-5.9-3.4s-3.3-2.6-4.3-4.6C448.7,420.9,448.7,419.9,448.7,419z
				"/>
			<path class="st2" d="M479.9,531.9c0-0.6-0.1-1-0.1-1.3c0-21.3-0.1-42.6,0.1-63.8c0.2-24.2,16.2-46.7,39-54.7
				c24-8.5,45.5-3.8,64,13.5c10,9.4,15.6,21.2,17.4,34.8c0.4,3.1,0.6,6.2,0.6,9.3c0,20,0,40,0,60c0,0.7,0,1.5,0,2.3
				C560.4,531.9,520.2,531.9,479.9,531.9z M500.2,448.2c0,20.7,0,41.5,0,62.2c15.7,0.4,32.3-13.3,31-34
				C530.2,461,514.3,446.4,500.2,448.2z M579.9,448.1c-15.2-0.6-32.4,12.7-31,33.3c1.2,17.7,16.7,29.3,31,28.7
				C579.9,489.5,579.9,468.8,579.9,448.1z"/>
			<path class="st2" d="M546.5,388.1c-4.2,0-8.1,0-12-0.1c-0.4,0-1.2-0.8-1.2-1.3c-0.1-5.1-0.2-10.2,0-15.3c0.1-4.2,3-6.8,7-6.6
				c3.6,0.1,6.1,3,6.1,7.1C546.5,377.2,546.5,382.5,546.5,388.1z"/>
			<path class="st2" d="M574.9,395.6c2.9-5.1,5.6-10.1,8.6-14.8c1.9-3,6.1-3.6,9.2-1.7c2.8,1.8,3.9,5.2,2.2,8.3
				c-2.7,4.9-5.7,9.8-8.6,14.8C582.5,400,578.8,397.9,574.9,395.6z"/>
			<path class="st2" d="M613.5,434c-2.2-3.9-4.3-7.5-6.5-11.4c5.1-2.9,10-6,15.1-8.6c3-1.6,6.9,0.1,8.4,3.1c1.6,3.1,0.7,6.6-2.4,8.4
				C623.4,428.4,618.6,431.1,613.5,434z"/>
			<path class="st2" d="M505,395.7c-3.7,2.1-7.4,4.2-11.2,6.4c-2.9-5.3-5.9-10.3-8.6-15.6c-1.3-2.6-0.2-5.8,2.2-7.5
				c2.5-1.7,5.6-1.6,7.8,0.4c0.6,0.6,1.2,1.3,1.7,2c2.6,4.4,5.2,8.8,7.8,13.2C504.7,395,504.8,395.3,505,395.7z"/>
		</g>
	</g>
</g>
<g id="monitoreo_operativo" class="st0">
	<g class="st1">
		<path class="st2" d="M867.1,621.5c0-106.7,0-213.4,0-320c0-22.3-16.3-38.5-38.6-38.5c-41.2,0-82.4,0-123.6,0
			c-77.2,0-154.5,0.1-231.7,0.1c-73.7,0-147.3-0.1-221-0.1c-23.4,0-39.3,16.2-39.3,39.7c0.1,31.2,0.1,62.5,0.1,93.7
			c0,42.9,0,85.8,0,128.8c0,34.6,0,69.2,0,103.8c0,11.9,0.4,23.8,0.4,35.7s-0.5,23.8-0.2,35.7c0.1,4.7,0.8,9.5,2.4,13.9
			c5.5,15,19.3,24.2,35.7,24.2c58.9,0,117.7,0,176.6,0c1.4,0,2.8,0,4.5,0c-0.3,1.2-0.4,2-0.7,2.8c-4.1,12.1-8.3,24.1-12.1,36.3
			c-1.2,3.8-2.8,5-6.8,5c-21-0.2-41.9-0.2-62.9-0.1c-11.8,0-19.6,9.3-17.7,20.8c1.4,8.7,8.6,14,19.4,14c65.7,0,131.5,0,197.2,0
			c43.5,0,87,0,130.5,0c17.7,0,35.3,0.1,53-0.2c8.6-0.2,15.4-7.3,16-15.7c0.6-8.9-5.1-16.5-13.7-18.2c-2.2-0.4-4.6-0.6-6.8-0.6
			c-23,0-45.9,0-68.9-0.1c-1.5,0-3.9-1-4.3-2.1c-4.8-13.6-9.4-27.3-14.2-41.7c2.3,0,3.8,0,5.4,0c60.6,0,121.2,0,181.8,0
			c23.7,0,39.6-15.9,39.6-39.7C867.1,672.9,867.1,647.2,867.1,621.5z M249.7,298.3c193.5,0,386.7,0,580.4,0c0,112.7,0,224.9,0,337.7
			c-193.4,0-386.7,0-580.4,0C249.7,523.2,249.7,410.9,249.7,298.3z M727.6,794.3c-62.4,0-124.9,0-187.3,0c-61.4,0-122.9,0-184.3,0
			c61.4,0,122.9,0,184.3,0C602.7,794.3,665.2,794.3,727.6,794.3z M855,704.3c-0.9,12.4-12.1,22-25,22.2c-9.6,0.2-19.2,0-28.8,0
			c-83,0-165.9,0-248.9,0c-57.6,0-115.1,0-172.7,0c-42.8,0-85.5,0-128.3,0c-15.2,0-26.4-11-26.5-26.3c-0.1-8.9,0-17.7,0-27
			c210.3,0,420.1,0,630.4,0C855.1,683.9,855.7,694.1,855,704.3z"/>
		<g>
			<path class="st2" d="M530.9,580.7c-42.2-0.6-85.7-20.6-122.7-56.1c-15-14.4-27.7-30.7-38.2-48.6c-1-1.6-1.4-4.7-0.5-6.1
				c24.5-40.6,57-72.6,101.3-90.9c58.9-24.4,115.4-17.6,168.9,16.2c29.7,18.8,52.6,44.3,70.5,74.4c0.9,1.6,1.2,4.6,0.3,6.1
				c-24.9,41.2-58.3,72.9-103.2,91.6C586.6,576.1,563.9,580.6,530.9,580.7z M613.3,473c0.3-40.4-32.5-73.3-73.3-73.6
				c-40.2-0.3-73.2,32.8-73.4,73.6c-0.2,40,32.7,72.8,73.4,73.1C579.9,546.5,613.1,513.5,613.3,473z M592.1,551.6
				c2.1-0.6,3.2-0.8,4.2-1.2c37.1-15.2,65-41.1,85.9-74.9c0.8-1.3,0.7-3.9-0.1-5.2c-20-32.7-46.7-57.9-82.1-73.5
				c-1.1-0.5-2.1-0.9-3.2-1.3c-1.1-0.4-2.2-0.6-4.6-1.4C649.8,435.3,645.3,516.2,592.1,551.6z M486.6,550.9
				c-26-19.8-40.5-45.5-40.4-78.4c0.1-32.7,14.7-58.4,40.7-78c-1.8,0.3-3.3,0.7-4.8,1.4c-36.3,15.3-63.6,40.9-84.1,74.1
				c-0.8,1.4-0.6,4.2,0.3,5.6c11.9,19.7,26.8,36.9,45,51.2C456.4,537.1,470.8,545.4,486.6,550.9z"/>
			<path class="st2" d="M572.7,453.1c0-4.9,0-9.9,0-14.8c0.2,0,0.3,0,0.5,0c1.1,12.6,2.3,25.2,3.5,39c2.2-3,3.9-5.2,5.6-7.4
				c0.4,0.2,0.7,0.4,1.1,0.6c-5.4,8.9-10.7,17.9-16.8,28c4.8-1.6,8.5-2.9,12.2-4.2c0.2,0.4,0.4,0.8,0.5,1.2
				c-10.7,4.5-21.5,9-33.3,13.9c3.7,1.4,6.3,2.3,8.9,3.3c-0.1,0.2-0.1,0.4-0.2,0.5c-10.2-2.3-20.3-4.7-31.7-7.3
				c1.3,2.4,2.1,3.8,3,5.3c-0.2,0.2-0.4,0.4-0.6,0.6c-6.1-7-12.1-13.9-19.2-22c-0.2,4.2-0.3,7.2-0.5,10.1c-0.2,0-0.4,0-0.6,0.1
				c-0.9-10.6-1.9-21.2-2.9-32.9c-2.1,2.3-3.4,3.8-4.8,5.3c-0.2-0.1-0.5-0.3-0.7-0.4c5-8.3,10-16.7,15.5-25.9
				c-3.2,0.8-5.3,1.3-7.5,1.9c-0.1-0.2-0.2-0.4-0.2-0.6c8.9-4,17.9-7.9,27.8-12.4c-4.5-1.6-8-2.8-11.5-4c0.1-0.3,0.1-0.6,0.2-0.8
				c11.1,2.6,22.3,5.1,34.5,7.9c-2.4-3.6-4.2-6.3-6-8.9c0.3-0.2,0.5-0.4,0.8-0.6c7.1,8.3,14.2,16.7,21.3,25
				C572,453.4,572.3,453.3,572.7,453.1z"/>
		</g>
	</g>
</g>
<g>
	<g id="Capa_1_00000049939459799030176460000003881389658197624201_">
		
			<linearGradient id="SVGID_1_" gradientUnits="userSpaceOnUse" x1="26.15" y1="1379.3544" x2="1053.8501" y2="1379.3544" gradientTransform="matrix(1 0 0 1 0 -839.3544)">
			<stop  offset="0" style="stop-color:#E25B19"/>
			<stop  offset="1" style="stop-color:#F6A312"/>
		</linearGradient>
		<path class="st3" d="M780.8,90.7H299.2c-11.5,0-22.2,6.1-27.9,16.1L30.5,523.9c-5.8,10-5.8,22.3,0,32.2l240.8,417.1
			c5.8,10,16.4,16.1,27.9,16.1h481.6c11.5,0,22.2-6.1,27.9-16.1l240.8-417.1c5.8-10,5.8-22.3,0-32.2L808.7,106.8
			C803,96.8,792.3,90.7,780.8,90.7z"/>
		<path class="st4" d="M769.9,110.4H311c-11.5,0-22.2,6.1-27.9,16.1L53.6,523.9c-5.8,10-5.8,22.3,0,32.2L283,953.5
			c5.8,10,16.4,16.1,27.9,16.1h458.9c11.5,0,22.2-6.1,27.9-16.1l229.4-397.4c5.8-10,5.8-22.3,0-32.2L797.8,126.5
			C792,116.5,781.4,110.4,769.9,110.4z"/>
	</g>
	<g id="Capa_10">
		<g>
			<g>
				<path class="st2" d="M544.9,537.5c-2.3-0.7-4.8-1.2-7.1-2.1c-17.7-6.3-27.1-25.4-21-43.3c0.5-1.6,0.3-2.8-0.6-4.2
					c-11.7-17.5-23.3-35-35-52.4c-2.5-3.8-5.8-7.1-6.8-11.7c-0.1-0.5-1.6-1-2.4-1c-7.9-0.1-15.7,0.1-23.6-0.1
					c-8.3-0.2-15-3.7-18.5-11.5c-1.2-2.7-1.8-5.9-1.8-8.8c-0.1-39.9-0.1-79.9-0.1-119.8c0-11.9,8.4-20.3,20.3-20.3
					c32.7-0.1,65.3-0.1,98,0c10.2,0,17.5,6.5,18.9,16.5c0.2,1.5,0.3,3,0.3,4.6c0,39.4,0,78.7,0,118.1c0,6.7-1.6,12.5-6.9,17
					c-3.7,3.1-8,4.2-12.7,4.2c-6.5,0.1-13.1,0.1-19.6,0c-1.8,0-2.4,0.5-3.3,2.2c-1.8,3.8-4.2,7.4-6.5,11.4c1.5,1.7,3.5,4.1,5.6,6.4
					c7.1,8.1,14.3,16.3,21.4,24.5c1,1.2,2.1,1.6,3.6,1.6c10.6-0.7,19.6,2.9,26.9,10.3c1.4,1.5,2.5,1.6,4.4,1
					c23.9-7.3,47.8-14.4,71.7-21.5c0.8-0.3,1.6-0.4,2.6-0.7c0,4.7,0,9.3,0,13.8c0,6.9-0.1,13.8,0.1,20.7c0.1,2.2-0.7,2.9-2.7,3.4
					c-21.8,5.5-43.6,11.2-65.4,16.9c-1.1,0.3-2.4,1.2-2.9,2.2c-5.3,12.7-14.6,20.2-28.3,22.2c-0.3,0-0.5,0.2-0.7,0.3
					C549.9,537.5,547.4,537.5,544.9,537.5z M547.1,413.5c3.1,0.2,5.7-1.1,6.9-3.7c1.1-2.2,1.9-4.9,1.9-7.4
					c0.1-39.8,0.1-79.7,0.1-119.5c0-7.8-3.6-11.3-11.3-11.3c-31.8,0-63.5,0-95.4,0c-8.6,0-12.5,3.9-12.5,12.4c0,39.1,0,78.2,0,117.3
					c0,0.9,0,1.8,0.1,2.7c0.4,4.9,4.1,8.7,9.1,9.3c0-1.5-0.1-3,0-4.5c0.4-10.3,7.8-17.8,18-17.9c21.6-0.2,43.4-0.2,65,0
					c9.3,0.1,16.4,6.6,17.7,15.9C546.9,409,546.9,411.3,547.1,413.5z M584.1,503.4c19.6-5,39.3-10.1,59-15.1c0-6.1,0-11.8,0-17.7
					c-20.9,6.2-41.5,12.5-62,18.6C582.1,493.9,583,498.4,584.1,503.4z M534.6,471.5c-8.5-9.7-17-19.5-25.7-29.3
					c-0.3-0.4-1-0.8-1.6-0.8c-3.6-0.1-7.3,0-11.4,0c9.1,13.6,17.8,26.7,26.4,39.5C526.3,477.8,530.3,474.7,534.6,471.5z
					 M513.5,423.2c-10,0-19.8,0-29.8,0c2.1,5.8,8.6,9.3,16,8.9C507,431.6,512.4,428.2,513.5,423.2z"/>
				<path class="st2" d="M496.5,386.2c-30.3,0.1-55-24.5-55-54.9c-0.1-30.3,24.6-55,54.9-55c30.3-0.1,55,24.5,55,54.9
					C551.4,361.5,526.9,386.1,496.5,386.2z M496.5,285.5c-25.3,0-45.7,20.4-45.8,45.7c-0.1,25.4,20.6,46,46,45.9
					c25.4-0.1,45.7-20.6,45.6-45.9C542.2,305.9,521.7,285.5,496.5,285.5z"/>
				<path class="st2" d="M542.3,285.4c-2.4,0.1-4.5-1.9-4.6-4.3c-0.1-2.6,1.8-4.7,4.4-4.7c2.5-0.1,4.7,2,4.7,4.5
					C546.8,283.2,544.8,285.3,542.3,285.4z"/>
				<path class="st2" d="M459.9,331.3c0-20.3,16.4-36.7,36.7-36.7c20.2,0.1,36.5,16.4,36.5,36.6c0,20.3-16.4,36.7-36.7,36.7
					C476.1,367.9,459.9,351.5,459.9,331.3z M473.5,330.7c-0.1,2.6,1.6,4.7,3.9,4.9c2.7,0.3,4.6-1.1,5.1-4c0.2-0.8,0.3-1.6,0.3-2.4
					c0.4-3.6,2-6.9,5.1-8.7c2.7-1.6,5.9-2.3,8.9-3.2c2.8-0.8,4.2-2.5,3.9-5.1c-0.3-2.4-2.3-4-4.9-3.9
					C483.8,308.7,473.8,318.6,473.5,330.7z"/>
			</g>
			<g>
				<path class="st2" d="M823.1,533.6c0-92.3,0-184.7,0-276.9c0-19.3-14.1-33.3-33.4-33.3c-35.7,0-71.3,0-107,0
					c-66.8,0-133.7,0.1-200.5,0.1c-63.8,0-127.5-0.1-191.2-0.1c-20.2,0-34,14-34,34.4c0.1,27,0.1,54.1,0.1,81.1
					c0,37.1,0,74.2,0,111.5c0,29.9,0,59.9,0,89.8c0,10.3,0.3,20.6,0.3,30.9c0,10.3-0.4,20.6-0.2,30.9c0.1,4.1,0.7,8.2,2.1,12
					c4.8,13,16.7,20.9,30.9,20.9c51,0,101.9,0,152.8,0c1.2,0,2.4,0,3.9,0c-0.3,1-0.3,1.7-0.6,2.4c-3.5,10.5-7.2,20.9-10.5,31.4
					c-1,3.3-2.4,4.3-5.9,4.3c-18.2-0.2-36.3-0.2-54.4-0.1c-10.2,0-17,8-15.3,18c1.2,7.5,7.4,12.1,16.8,12.1c56.9,0,113.8,0,170.6,0
					c37.6,0,75.3,0,112.9,0c15.3,0,30.5,0.1,45.9-0.2c7.4-0.2,13.3-6.3,13.8-13.6c0.5-7.7-4.4-14.3-11.9-15.7
					c-1.9-0.3-4-0.5-5.9-0.5c-19.9,0-39.7,0-59.6-0.1c-1.3,0-3.4-0.9-3.7-1.8c-4.2-11.8-8.1-23.6-12.3-36.1c2,0,3.3,0,4.7,0
					c52.4,0,104.9,0,157.3,0c20.5,0,34.3-13.8,34.3-34.4C823.1,578,823.1,555.8,823.1,533.6z M288.8,253.9c167.4,0,334.6,0,502.3,0
					c0,97.5,0,194.6,0,292.2c-167.4,0-334.6,0-502.3,0C288.8,448.5,288.8,351.3,288.8,253.9z M702.3,683.1c-54,0-108.1,0-162.1,0
					c-53.1,0-106.4,0-159.5,0c53.1,0,106.4,0,159.5,0C594.3,683.1,648.4,683.1,702.3,683.1z M812.6,605.2
					c-0.8,10.7-10.5,19-21.6,19.2c-8.3,0.2-16.6,0-24.9,0c-71.8,0-143.6,0-215.4,0c-49.8,0-99.6,0-149.4,0c-37,0-74,0-111,0
					c-13.2,0-22.8-9.5-22.9-22.8c-0.1-7.7,0-15.3,0-23.4c182,0,363.5,0,545.5,0C812.7,587.6,813.2,596.4,812.6,605.2z"/>
			</g>
		</g>
	</g>
	<g>
		<path class="st2" d="M336.3,804.2l-0.1-24.5l-9,20.7H321l-9-20.7v24.5h-8.6v-37.7h10.5l10.2,22.5l10.2-22.5h10.4v37.7H336.3z"/>
		<path class="st2" d="M390.6,785.3c0,11-8.7,19.3-20.4,19.3c-11.6,0-20.4-8.3-20.4-19.3c0-11,8.7-19.1,20.4-19.1
			C381.9,766.2,390.6,774.3,390.6,785.3z M359.7,785.3c0,6.4,4.9,11.3,10.7,11.3c5.8,0,10.4-4.9,10.4-11.3s-4.6-11.1-10.4-11.1
			C364.5,774.2,359.7,779,359.7,785.3z"/>
		<path class="st2" d="M422,804.2L404.7,781v23.2h-9v-37.7h8.5l17.4,23.3v-23.3h8.9v37.7H422z"/>
		<path class="st2" d="M438,804.2v-37.7h9.6v37.7H438z"/>
		<path class="st2" d="M472.6,774.2v30H463v-30h-11.3v-7.8h32.2v7.8H472.6z"/>
		<path class="st2" d="M524.3,785.3c0,11-8.7,19.3-20.4,19.3c-11.6,0-20.4-8.3-20.4-19.3c0-11,8.7-19.1,20.4-19.1
			C515.6,766.2,524.3,774.3,524.3,785.3z M493.4,785.3c0,6.4,4.9,11.3,10.7,11.3c5.8,0,10.4-4.9,10.4-11.3s-4.6-11.1-10.4-11.1
			C498.2,774.2,493.4,779,493.4,785.3z"/>
		<path class="st2" d="M546.5,793.6h-0.3H539v10.6h-9.6v-37.7h16.9c10,0,15.7,4.7,15.7,13.1c0,5.8-2.4,9.9-6.8,12.1l7.9,12.4h-10.9
			L546.5,793.6z M546.3,786c4.1,0,6.6-2.1,6.6-6.1c0-3.9-2.4-5.9-6.6-5.9H539v12H546.3z"/>
		<path class="st2" d="M578,774v7.5h18v7.5h-18v7.6h20.5v7.5h-30.1v-37.7h29.5v7.5H578z"/>
		<path class="st2" d="M642.9,785.3c0,11-8.7,19.3-20.4,19.3c-11.6,0-20.3-8.3-20.3-19.3c0-11,8.7-19.1,20.3-19.1
			C634.2,766.2,642.9,774.3,642.9,785.3z M612,785.3c0,6.4,4.9,11.3,10.7,11.3c5.8,0,10.4-4.9,10.4-11.3s-4.6-11.1-10.4-11.1
			C616.8,774.2,612,779,612,785.3z"/>
		<path class="st2" d="M693.3,772.5l-5.5,6.6c-2.5-3-6.1-4.9-9.5-4.9c-6,0-10.5,4.7-10.5,10.9c0,6.3,4.5,11.1,10.5,11.1
			c3.2,0,6.8-1.7,9.5-4.4l5.6,5.9c-4,4.1-10,6.9-15.6,6.9c-11.4,0-19.8-8.3-19.8-19.4c0-10.9,8.7-19.1,20.1-19.1
			C683.7,766.2,689.5,768.6,693.3,772.5z"/>
		<path class="st2" d="M735.4,785.3c0,11-8.7,19.3-20.4,19.3c-11.6,0-20.3-8.3-20.3-19.3c0-11,8.7-19.1,20.3-19.1
			C726.6,766.2,735.4,774.3,735.4,785.3z M704.4,785.3c0,6.4,4.9,11.3,10.7,11.3c5.8,0,10.4-4.9,10.4-11.3s-4.6-11.1-10.4-11.1
			S704.4,779,704.4,785.3z"/>
		<path class="st2" d="M766.7,804.2L749.4,781v23.2h-9v-37.7h8.5l17.4,23.3v-23.3h8.9v37.7H766.7z"/>
		<path class="st2" d="M266.2,868.8l-14.6-37.7h10.2l9.6,27.7l9.6-27.7h9.9l-14.8,37.7H266.2z"/>
		<path class="st2" d="M294.6,868.8v-37.7h9.6v37.7H294.6z"/>
		<path class="st2" d="M328,831.1c11.8,0,20,7.6,20,18.8c0,11.1-8.3,18.8-20.4,18.8h-15.8v-37.7H328z M321.4,861.1h6.8
			c5.9,0,10.1-4.5,10.1-11.1c0-6.7-4.4-11.3-10.5-11.3h-6.4V861.1z"/>
		<path class="st2" d="M362.6,838.6v7.5h18v7.5h-18v7.6h20.5v7.5h-30.1v-37.7h29.5v7.5H362.6z"/>
		<path class="st2" d="M427.6,849.9c0,11-8.7,19.3-20.4,19.3c-11.6,0-20.4-8.3-20.4-19.3c0-11,8.7-19.1,20.4-19.1
			C418.9,830.8,427.6,838.9,427.6,849.9z M396.7,849.9c0,6.4,4.9,11.3,10.7,11.3c5.8,0,10.4-4.9,10.4-11.3s-4.6-11.1-10.4-11.1
			C401.5,838.8,396.7,843.6,396.7,849.9z"/>
		<path class="st2" d="M443,868.8l-14.6-37.7h10.2l9.6,27.7l9.6-27.7h9.9l-14.8,37.7H443z"/>
		<path class="st2" d="M481,838.6v7.5h18v7.5h-18v7.6h20.5v7.5h-30.1v-37.7h29.5v7.5H481z"/>
		<path class="st2" d="M524.8,858.2h-0.3h-7.3v10.6h-9.6v-37.7h16.9c10,0,15.7,4.7,15.7,13.1c0,5.8-2.4,9.9-6.8,12.1l7.9,12.4h-10.9
			L524.8,858.2z M524.5,850.6c4.1,0,6.6-2.1,6.6-6.1c0-3.9-2.4-5.9-6.6-5.9h-7.3v12H524.5z"/>
		<path class="st2" d="M546.6,868.8v-37.7h9.6v37.7H546.6z"/>
		<path class="st2" d="M573.3,838.6v8.7h16.9v7.5h-16.9v13.9h-9.6v-37.7h27.9v7.5H573.3z"/>
		<path class="st2" d="M596.3,868.8v-37.7h9.6v37.7H596.3z"/>
		<path class="st2" d="M646.2,837.1l-5.5,6.6c-2.5-3-6.1-4.9-9.5-4.9c-6,0-10.5,4.7-10.5,10.9c0,6.3,4.5,11.1,10.5,11.1
			c3.2,0,6.8-1.7,9.5-4.4l5.6,5.9c-4,4.1-10,6.9-15.6,6.9c-11.4,0-19.8-8.3-19.8-19.4c0-10.9,8.7-19.1,20.1-19.1
			C636.6,830.8,642.4,833.2,646.2,837.1z"/>
		<path class="st2" d="M658.8,861.8l-2.7,6.9h-9.9l16.3-37.7h9.9l15.9,37.7H678l-2.7-6.9H658.8z M667.1,840.6l-5.5,13.9h10.9
			L667.1,840.6z"/>
		<path class="st2" d="M723.5,837.1l-5.5,6.6c-2.5-3-6.1-4.9-9.5-4.9c-6,0-10.5,4.7-10.5,10.9c0,6.3,4.5,11.1,10.5,11.1
			c3.2,0,6.8-1.7,9.5-4.4l5.6,5.9c-4,4.1-10,6.9-15.6,6.9c-11.4,0-19.8-8.3-19.8-19.4c0-10.9,8.7-19.1,20.1-19.1
			C713.9,830.8,719.7,833.2,723.5,837.1z"/>
		<path class="st2" d="M727.9,868.8v-37.7h9.6v37.7H727.9z"/>
		<path class="st2" d="M783.3,849.9c0,11-8.7,19.3-20.4,19.3c-11.6,0-20.3-8.3-20.3-19.3c0-11,8.7-19.1,20.3-19.1
			C774.6,830.8,783.3,838.9,783.3,849.9z M752.4,849.9c0,6.4,4.9,11.3,10.7,11.3c5.8,0,10.4-4.9,10.4-11.3s-4.6-11.1-10.4-11.1
			C757.2,838.8,752.4,843.6,752.4,849.9z M765,827.8h-7.1l5.7-9l8.4,3L765,827.8z"/>
		<path class="st2" d="M814.7,868.8l-17.3-23.2v23.2h-9v-37.7h8.5l17.4,23.3v-23.3h8.9v37.7H814.7z"/>
	</g>
</g>
</svg>
