<?xml version="1.0" encoding="utf-8"?>
<!-- Generator: Adobe Illustrator 26.4.1, SVG Export Plug-In . SVG Version: 6.00 Build 0)  -->
<svg version="1.1" id="Capa_1" xmlns="http://www.w3.org/2000/svg" xmlns:xlink="http://www.w3.org/1999/xlink" x="0px" y="0px"
	 viewBox="0 0 1080 1080" style="enable-background:new 0 0 1080 1080;" xml:space="preserve">
<style type="text/css">
	.st0{fill:url(#SVGID_1_);}
	.st1{fill:none;stroke:#FFFFFF;stroke-width:3;stroke-miterlimit:10;}
	.st2{fill:#FFFFFF;}
	.st3{fill:none;}
	.st4{font-family:'MetroNovaW04-BlackItalic';}
	.st5{font-size:62.5372px;}
</style>
<g id="Capa_1_00000137106568891206504240000014498853602409518268_">
	
		<linearGradient id="SVGID_1_" gradientUnits="userSpaceOnUse" x1="26.15" y1="540" x2="1053.8501" y2="540" gradientTransform="matrix(1 0 0 -1 0 1080)">
		<stop  offset="0" style="stop-color:#E25B19"/>
		<stop  offset="1" style="stop-color:#F6A312"/>
	</linearGradient>
	<path class="st0" d="M780.8,90.7H299.2c-11.5,0-22.2,6.1-27.9,16.1L30.5,523.9c-5.8,10-5.8,22.3,0,32.2l240.8,417.1
		c5.8,10,16.4,16.1,27.9,16.1h481.6c11.5,0,22.2-6.1,27.9-16.1l240.8-417.1c5.8-10,5.8-22.3,0-32.2L808.7,106.8
		C803,96.8,792.3,90.7,780.8,90.7z"/>
	<path class="st1" d="M769.9,110.4H311c-11.5,0-22.2,6.1-27.9,16.1L53.6,523.9c-5.8,10-5.8,22.3,0,32.2L283,953.5
		c5.8,10,16.4,16.1,27.9,16.1h458.9c11.5,0,22.2-6.1,27.9-16.1l229.4-397.4c5.8-10,5.8-22.3,0-32.2L797.8,126.5
		C792,116.5,781.4,110.4,769.9,110.4z"/>
</g>
<g>
	<g>
		<path class="st2" d="M481.3,587.3c-10.3-32.6-18.8-58.8-25.1-77.8c-12.3-36.4-15.9-43.9-17.6-46.2c-4.2-6.1-10.5-10.8-18.5-14
			c-7.8-3.1-16.3-4.5-25.2-4.5c-9.1,0-17.6,1.6-25.4,4.5c-8.1,3.2-14.3,7.8-18.8,14.1c-1.5,2.3-4.9,9.6-17.3,46.3
			c-8.3,24.8-16.8,50.9-25.5,77.8c-7.7,24.4-13.4,43-17.1,55l-1.6,5.5h55.3L394,499.5c0.1-0.3,0.2-0.7,0.5-1.1
			c0.1-0.3,0.3-0.9,0.5-1.4c0.1,0.3,0.2,0.7,0.3,0.9c0.1,0.3,0.2,0.8,0.3,1.1l50.3,149h54.5l-1.7-5.6
			C492.8,624,487,605.6,481.3,587.3z"/>
		<path class="st2" d="M511.4,478.5c-12.4,19.2-18.6,42.8-18.6,69.9c0,26.7,6.3,49.6,18.4,67.9c13.9,20.9,33.2,31.6,57.4,31.6h99.1
			v-50.5h-92c-8.6,0-15.5-5.1-20.8-15.6c-5.2-10.1-7.8-22.5-7.8-37c0-14,2.6-25.8,7.6-35.2c5.2-9.8,12.1-14.6,20.9-14.6h92v-49.3
			h-99.1C544.7,445.8,525.5,456.8,511.4,478.5z"/>
		<rect x="685.3" y="445.8" class="st2" width="51.5" height="202.3"/>
		<path class="st2" d="M845,597.4c-12.5,0-22.1-5.7-29.2-17.4c-6.4-10.5-9.7-23.7-9.7-39.2v-95.1h-51.5v94.8
			c-0.2,1.1-0.3,2.4-0.5,3.8c-0.1,1.5-0.1,3.5-0.1,6c0,13.2,1.6,25.6,4.8,36.7c4.9,17.3,13.3,31.3,25.2,41.4
			c15.2,13,35.7,19.6,61.1,19.6h81.5v-50.5H845V597.4z"/>
	</g>
	<path class="st2" d="M218.3,546.4c3.1,3.5,4.4,10,3,14.4l-7,21.1c-1.5,4.4-6.5,8.9-11,9.8l-21.8,4.5c-4.5,0.9-10.9-1.1-14-4.7
		l-14.8-16.7c-3.1-3.5-4.4-10-3-14.4l7-21.1c1.5-4.4,6.5-8.9,11-9.8l21.8-4.5c4.5-0.9,10.9,1.1,14,4.7L218.3,546.4z"/>
	<path class="st2" d="M315.9,470.2c4.7,5.2,6.7,15,4.4,21.7l-12.2,36.7c-2.2,6.7-9.7,13.3-16.5,14.7l-38,7.8
		c-6.9,1.4-16.4-1.7-21-6.9l-25.8-29c-4.7-5.2-6.7-15-4.4-21.7l12.3-36.8c2.2-6.7,9.7-13.3,16.5-14.7l38-7.8
		c6.9-1.4,16.4,1.7,21,6.9L315.9,470.2z"/>
	<path class="st2" d="M272.9,386.2c1.6,1.7,2.3,5,1.5,7.3l-8.4,25.4c-0.7,2.3-3.2,4.4-5.5,4.9l-26.2,5.3c-2.3,0.5-5.5-0.6-7-2.3
		l-17.7-20c-1.6-1.7-2.3-5-1.5-7.3l8.4-25.4c0.7-2.3,3.2-4.4,5.5-4.9l26.2-5.3c2.3-0.5,5.5,0.6,7,2.3L272.9,386.2z"/>
	<path class="st2" d="M415.3,587.4l-8.2,15.2c-0.7,1.4-2,2.2-3.6,2.3l-17.3,0.6c-1.5,0-3-0.7-3.8-2l-9.1-14.7
		c-0.8-1.3-0.8-3-0.1-4.2l8.2-15.2c0.7-1.4,2-2.2,3.6-2.3l17.3-0.6c1.5,0,3,0.7,3.8,2l9.1,14.7C416,584.5,416,586.1,415.3,587.4z"/>
	<rect x="627.9" y="664.6" class="st3" width="298.4" height="49.5"/>
	<text transform="matrix(1 0 0 1 648.7217 713.4189)" class="st2 st4 st5">On TIME</text>
</g>
</svg>
