<?xml version="1.0" encoding="utf-8"?>
<!-- Generator: Adobe Illustrator 27.0.1, SVG Export Plug-In . SVG Version: 6.00 Build 0)  -->
<svg version="1.1" id="Capa_1" xmlns="http://www.w3.org/2000/svg" xmlns:xlink="http://www.w3.org/1999/xlink" x="0px" y="0px"
	 viewBox="0 0 1080 1080" style="enable-background:new 0 0 1080 1080;" xml:space="preserve">
<style type="text/css">
	.st0{fill:url(#SVGID_1_);}
	.st1{fill:none;stroke:#FFFFFF;stroke-width:3;stroke-miterlimit:10;}
	.st2{display:none;}
	.st3{display:inline;}
	.st4{fill:#FFFFFF;}
	.st5{fill:none;}
	.st6{enable-background:new    ;}
</style>
<g id="Capa_1_00000047746146127166173490000014897892785311581081_">
	
		<linearGradient id="SVGID_1_" gradientUnits="userSpaceOnUse" x1="2.499998e-02" y1="1377.95" x2="1080.075" y2="1377.95" gradientTransform="matrix(1 0 0 1 0 -838)">
		<stop  offset="0" style="stop-color:#E25B19"/>
		<stop  offset="1" style="stop-color:#F6A312"/>
	</linearGradient>
	<path class="st0" d="M793.1,67.8H286.9c-12.1,0-23.3,6.4-29.3,16.9L4.6,523.1c-6.1,10.5-6.1,23.4,0,33.8l253.1,438.3
		c6.1,10.5,17.2,16.9,29.3,16.9h506.1c12.1,0,23.3-6.4,29.3-16.9l253.1-438.3c6.1-10.5,6.1-23.4,0-33.8L822.4,84.8
		C816.4,74.2,805.1,67.8,793.1,67.8z"/>
	<path class="st1" d="M781.6,88.5H299.3c-12.1,0-23.3,6.4-29.3,16.9L28.8,523.1c-6.1,10.5-6.1,23.4,0,33.8l241.1,417.6
		c6.1,10.5,17.2,16.9,29.3,16.9h482.3c12.1,0,23.3-6.4,29.3-16.9l241.1-417.6c6.1-10.5,6.1-23.4,0-33.8l-241-417.6
		C804.8,94.9,793.7,88.5,781.6,88.5z"/>
</g>
<g id="LEASING" class="st2">
	<g class="st3">
		<path class="st4" d="M203,579.5v29.3h-93.4V471.2h35v108.4H203V579.5z"/>
		<path class="st4" d="M254.8,498.7V526h65.7v27.5h-65.7v27.7h74.9v27.5h-110V471.2h107.8v27.5H254.8z"/>
		<path class="st4" d="M383.7,583.5l-10,25.4h-36L397,471.2h36l58,137.7h-37.4l-9.8-25.4H383.7z M414,506l-20.1,50.9h39.7L414,506z"
			/>
		<path class="st4" d="M610.5,484.9l-13.2,27.3c-14.5-8.5-32.8-14.4-44.1-14.4c-9,0-15.1,3.3-15.1,10c0,23.8,72.8,10.2,72.8,60
			c0,27.5-24.4,42.1-55.1,42.1c-23,0-46.6-8.6-62.9-22l13.6-26.9c14.2,12.4,35.4,20.7,49.8,20.7c11,0,17.9-4.1,17.9-12
			c0-24.4-72.8-9.8-72.8-58.6c0-25.4,21.8-41.5,54.9-41.5C576.1,469.6,596.4,475.7,610.5,484.9z"/>
		<path class="st4" d="M630.1,608.8V471.2h35v137.7h-35V608.8z"/>
		<path class="st4" d="M788.8,608.8L725.5,524v84.8h-32.8V471.2h30.9l63.5,85v-85h32.7v137.7h-31L788.8,608.8L788.8,608.8z"/>
		<path class="st4" d="M969.1,538.8v53.7c-14.8,10.4-38,17.9-57.2,17.9c-41.9,0-73.6-30.3-73.6-70.4c0-39.9,32.4-70,75.9-70
			c20.5,0,42.1,7.9,56.3,20.5l-19.7,23.8c-10-9.2-24-14.9-36.8-14.9c-22.6,0-39.9,17.7-39.9,40.7c0,23.4,17.5,41.1,40.3,41.1
			c7.1,0,16.1-2.6,24.4-6.7v-35.6L969.1,538.8L969.1,538.8z"/>
	</g>
</g>
<g id="VENTAS" class="st2">
	<g class="st3">
		<path class="st4" d="M172.3,612.3L116.2,468h39.2l36.9,106.2L229.2,468h37.7l-56.7,144.3H172.3z"/>
		<path class="st4" d="M317.9,496.9v28.6h68.8v28.9h-68.8v29.1h78.5v28.9H281.2V468.1h113V497h-76.3L317.9,496.9L317.9,496.9z"/>
		<path class="st4" d="M521,612.3l-66.4-88.8v88.8h-34.4V468.1h32.4l66.6,89v-89h34.2v144.3L521,612.3L521,612.3z"/>
		<path class="st4" d="M649.1,497.5v114.8h-36.7V497.5h-43.1v-29.7h123.3v29.7H649.1z"/>
		<path class="st4" d="M725.6,585.8l-10.5,26.6h-37.7l62.2-144.3h37.7l60.8,144.3H799l-10.3-26.6H725.6z M757.4,504.5l-21,53.4H778
			L757.4,504.5z"/>
		<path class="st4" d="M963.4,482.5l-13.8,28.6c-15.2-8.9-34.4-15-46.2-15c-9.5,0-15.9,3.5-15.9,10.5c0,24.9,76.3,10.7,76.3,62.9
			c0,28.9-25.6,44.1-57.7,44.1c-24.1,0-48.9-9.1-66-23.1l14.2-28.2c14.8,13,37.1,21.6,52.2,21.6c11.5,0,18.8-4.3,18.8-12.6
			c0-25.6-76.3-10.3-76.3-61.4c0-26.6,22.9-43.5,57.5-43.5C927.3,466.4,948.5,472.8,963.4,482.5z"/>
	</g>
</g>
<g id="Capa_5">
</g>
<g id="Capa_6">
</g>
<g id="Capa_7">
</g>
<rect x="246.6" y="765.7" class="st5" width="586.8" height="196.8"/>
<g class="st6">
	<path class="st4" d="M511.8,801c12.2,0,19.2,6,19.2,16.6c0,11.2-7,17.6-19.2,17.6h-8.6v13.4h-12.1V801H511.8z M503.2,825.7h8
		c5.3,0,8.4-2.7,8.4-7.7c0-5-3.1-7.5-8.4-7.5h-8V825.7z"/>
	<path class="st4" d="M585.6,824.7c0,13.9-11,24.4-25.8,24.4c-14.7,0-25.7-10.5-25.7-24.4c0-13.9,11-24.1,25.7-24.1
		C574.6,800.6,585.6,810.9,585.6,824.7z M546.5,824.8c0,8,6.2,14.2,13.5,14.2c7.3,0,13.2-6.2,13.2-14.2c0-8-5.8-14.1-13.2-14.1
		C552.7,810.7,546.5,816.7,546.5,824.8z"/>
	<path class="st4" d="M629.1,805.7l-4.6,9.5c-5-2.9-11.4-5-15.2-5c-3.1,0-5.2,1.2-5.2,3.5c0,8.2,25.2,3.5,25.2,20.7
		c0,9.5-8.4,14.6-19,14.6c-8,0-16.1-3-21.8-7.6l4.7-9.3c4.9,4.3,12.2,7.1,17.2,7.1c3.8,0,6.2-1.4,6.2-4.1c0-8.4-25.2-3.4-25.2-20.3
		c0-8.8,7.5-14.3,19-14.3C617.2,800.4,624.2,802.5,629.1,805.7z"/>
</g>
<g class="st6">
	<path class="st4" d="M275.8,879.7c-5,8-8.2,18.4-8.2,29.4s3.3,21.5,8.2,29.4h-10.5c-5.6-8-8.7-18.4-8.7-29.4s3.1-21.5,8.7-29.4
		H275.8z"/>
	<path class="st4" d="M301.5,882.6c12.2,0,19.2,6,19.2,16.6c0,11.2-7,17.6-19.2,17.6h-8.6v13.4h-12.1v-47.6H301.5z M292.8,907.3h8
		c5.3,0,8.4-2.7,8.4-7.7c0-5-3.1-7.5-8.4-7.5h-8V907.3z"/>
	<path class="st4" d="M375.3,906.3c0,13.9-11,24.4-25.8,24.4c-14.7,0-25.7-10.5-25.7-24.4c0-13.9,11-24.1,25.7-24.1
		C364.3,882.2,375.3,892.5,375.3,906.3z M336.2,906.4c0,8,6.2,14.2,13.5,14.2c7.3,0,13.2-6.2,13.2-14.2c0-8-5.8-14.1-13.2-14.1
		S336.2,898.3,336.2,906.4z"/>
	<path class="st4" d="M381.7,930.2v-47.6h12.1v47.6H381.7z"/>
	<path class="st4" d="M436.6,930.2l-21.9-29.3v29.3h-11.4v-47.6H414l22,29.4v-29.4h11.3v47.6H436.6z"/>
	<path class="st4" d="M478.8,892.3v37.9h-12.1v-37.9h-14.2v-9.8h40.7v9.8H478.8z"/>
	<path class="st4" d="M562.4,906.3c0,13.9-11,24.4-25.8,24.4c-14.7,0-25.7-10.5-25.7-24.4c0-13.9,11-24.1,25.7-24.1
		C551.4,882.2,562.4,892.5,562.4,906.3z M523.3,906.4c0,8,6.2,14.2,13.5,14.2c7.3,0,13.2-6.2,13.2-14.2c0-8-5.8-14.1-13.2-14.1
		S523.3,898.3,523.3,906.4z"/>
	<path class="st4" d="M580.9,892.1v11h21.3v9.5h-21.3v17.5h-12.1v-47.6h35.3v9.5H580.9z"/>
	<path class="st4" d="M662.7,887.3l-4.6,9.5c-5-2.9-11.4-5-15.2-5c-3.1,0-5.2,1.2-5.2,3.5c0,8.2,25.2,3.5,25.2,20.7
		c0,9.5-8.4,14.6-19,14.6c-8,0-16.1-3-21.8-7.6l4.7-9.3c4.9,4.3,12.2,7.1,17.2,7.1c3.8,0,6.2-1.4,6.2-4.1c0-8.4-25.2-3.4-25.2-20.3
		c0-8.8,7.5-14.3,19-14.3C650.8,882,657.8,884.1,662.7,887.3z"/>
	<path class="st4" d="M680.1,921.4l-3.5,8.8h-12.4l20.5-47.6h12.4l20.1,47.6h-12.9l-3.4-8.8H680.1z M690.5,894.6l-6.9,17.6h13.7
		L690.5,894.6z"/>
	<path class="st4" d="M753.9,920v10.1h-32.3v-47.6h12.1V920H753.9z"/>
	<path class="st4" d="M771.8,892.1v9.5h22.7v9.5h-22.7v9.6h25.9v9.5h-38v-47.6H797v9.5H771.8z"/>
	<path class="st4" d="M814.8,879.7c5.6,8,8.6,18.4,8.6,29.4s-3.1,21.5-8.6,29.4h-10.5c5-8,8.2-18.4,8.2-29.4s-3.2-21.5-8.2-29.4
		H814.8z"/>
</g>
<g>
	<path class="st4" d="M762.8,341c-148.6,0-297,0-445.6,0c-1.5,10.2-2.9,20.3-4.4,30.5c-4.5,31.5-9,62.9-13.5,94.4
		c-2.6,18.5-5.2,36.9-7.9,55.4c-1.1,7.5-6.5,12.6-13.5,12.8c-6.6,0.2-12.5-4.5-13.8-11.3c-0.4-2-0.2-4.2,0.1-6.2
		c5.2-36.3,10.3-72.7,15.5-109.1c3.9-27.3,7.8-54.5,11.7-81.8c1.1-7.6,6.4-12.3,14.1-12.5c1.4-0.1,2.8,0,4.2,0
		c102.5,0,205.1,0,307.7,0c1.6,0,3.2,0,5.2,0c0-18.3,0-36.4,0-55c-1.3,0-2.6,0-4,0c-20.7,0-41.5,0-62.2,0c-11,0-16.3-5.3-16.3-16.4
		c0-26,0-52.1,0-78.1c0-10.5,5.4-15.9,16-15.9c72.3,0,144.5,0,216.8,0c10.5,0,15.9,5.4,15.9,16c0,26.2,0,52.3,0,78.5
		c0,10.5-5.5,15.9-16,16c-20.7,0-41.5,0-62.2,0c-1.4,0-2.8,0-4.4,0c0,18.3,0,36.5,0,55c1.4,0,2.7,0,4.1,0c20.7,0,41.5,0,62.2,0
		c10.2,0,15,4,16.5,14.2c5.5,38.4,11,76.8,16.5,115.2c3.5,24.9,7.2,49.7,10.7,74.5c1.2,8.4-3.7,15.5-11.6,16.7
		c-7.6,1.2-14.5-4.3-15.7-12.5c-6.5-45.5-13-91-19.5-136.5C767,370.4,764.8,355.7,762.8,341z M659.1,175.3c-10,0-19.2-0.1-28.4,0.1
		c-1.7,0-3.8,0.9-5,2.1c-16.9,16.6-33.6,33.5-50.4,50.2c-0.7,0.7-1.3,1.5-2.4,2.8c9.8,0,18.9-0.1,27.9,0.1c2.4,0,4.1-0.7,5.8-2.4
		c16.6-16.7,33.3-33.4,50-50C657.2,177.4,657.8,176.6,659.1,175.3z M614.1,230.5c10,0,19-0.1,27.9,0.1c2.4,0,4.1-0.7,5.8-2.4
		c16.6-16.7,33.3-33.3,49.8-49.9c0.8-0.8,1.5-1.6,2.8-3c-1.7,0-2.7,0-3.7,0c-8.2,0-16.4-0.2-24.6,0.1c-1.8,0.1-4,1-5.3,2.2
		c-16.7,16.5-33.3,33.2-50,49.8C616.2,228.2,615.5,229,614.1,230.5z M655.5,230.5c10.1,0,19.1,0.2,28.2-0.1c1.8-0.1,4.1-0.9,5.4-2.2
		c16.9-16.7,33.6-33.5,50.4-50.3c0.7-0.7,1.2-1.5,2.2-2.6c-9.7,0-18.8,0.1-27.9-0.1c-2.4,0-4.1,0.7-5.7,2.4
		c-16.5,16.6-33,33.1-49.6,49.7C657.8,228.1,657,229,655.5,230.5z M650.6,312.9c9.3,0,18.2,0,27.2,0c0-18.3,0-36.5,0-54.6
		c-9.2,0-18.1,0-27.2,0C650.6,276.6,650.6,294.6,650.6,312.9z M696.9,230.5c10.8,0,20.6,0.1,30.3-0.1c0.9,0,2.1-0.9,2.8-1.7
		c9.8-9.6,19.5-19.3,29.1-29.1c0.7-0.7,1.6-1.6,1.6-2.5c0.2-7.2,0.1-14.4,0.1-21.5c-5.8-1.2-9.8,0.2-13.8,4.3
		c-15.4,15.9-31.2,31.4-46.9,47C699.3,227.9,698.5,228.8,696.9,230.5z M616.7,175.3c-9.6,0-19.5-0.1-29.3,0.1
		c-0.9,0-2.1,0.9-2.8,1.7c-5,4.9-10.1,9.8-14.9,14.9c-1.2,1.2-2,3.3-2.1,5.1c-0.2,7.2-0.1,14.2-0.1,21.4c0,2,0,4,0,6.1
		C584,208,600.3,191.7,616.7,175.3z M760.6,230.4c0-7.5,0-14.5,0-20.4c-6.6,6.6-13.6,13.7-20.3,20.4
		C746.4,230.4,753.4,230.4,760.6,230.4z M567.8,182.7c2.7-2.4,5.2-4.7,8.1-7.2c-2.9,0-5.4,0-8.1,0
		C567.8,178.1,567.8,180.5,567.8,182.7z"/>
	<path class="st4" d="M540.3,561.7c86,0,172,0,258,0c1.4,0,2.8,0,4.2,0c8.2,0.3,13.8,5.9,13.9,14.2c0.1,10.4,0,20.8,0,31.1
		c0,34.7,0,69.4,0,104.1c0,10.8-5.3,16.2-16.1,16.2c-173.4,0-346.9,0-520.4,0c-10.8,0-16.1-5.4-16.1-16.2c0-44.5,0-89,0-133.5
		c0-10.6,5.3-15.9,15.9-15.9C366.5,561.7,453.4,561.7,540.3,561.7z M788.5,589.4c-165.9,0-331.4,0-496.9,0c0,36.8,0,73.4,0,109.8
		c165.8,0,331.3,0,496.9,0C788.5,662.6,788.5,626.2,788.5,589.4z"/>
	<path class="st4" d="M457.1,408.1c-4.9,3.3-9.2,6.2-13.5,9c-1.9,1.3-3.8,2.5-5.8,3.8c-5.5,3.6-11,3.7-16.5,0
		c-6.2-4.1-12.5-8.2-19.2-12.8c-0.1,1.6-0.2,2.8-0.2,4c0,16.9,0,33.9-0.1,50.8c0,2.4-0.3,4.8-1.1,7.1c-2.2,5.9-8.5,9.5-14.6,8.6
		c-6.3-0.9-11.2-5.9-11.9-12.2c-0.2-1.2-0.1-2.3-0.1-3.5c0-26.4,0.1-52.8-0.1-79.2c0-6.1,1.9-10.9,7.4-13.8s10.6-1.8,15.5,1.6
		c9.7,6.6,19.6,12.9,29.3,19.6c2.4,1.7,4,1.5,6.3-0.1c9.6-6.6,19.3-12.9,28.9-19.5c5-3.4,10.1-4.5,15.5-1.6
		c5.5,2.9,7.5,7.8,7.5,13.8c-0.1,26.6,0,53.3-0.1,79.8c0,10.6-8.7,17.5-18.1,14.5c-5.9-1.9-9.5-7.1-9.5-14.1
		c-0.1-17.2,0-34.3,0-51.5C457.1,411.3,457.1,410.1,457.1,408.1z"/>
	<path class="st4" d="M636.5,423.6c-17.7,0-35.5,0-53.2,0c-10.3,0-15.7-5.5-15.8-15.8c0-8.1-0.1-16.1,0-24.2
		c0.1-9.6,5.7-15.2,15.3-15.2c35.8,0,71.7,0,107.5,0c9.7,0,15.3,5.5,15.3,15.2c0.1,8.4,0.1,16.8,0,25.2c-0.1,9.2-5.7,14.9-14.9,14.9
		C672.6,423.7,654.5,423.6,636.5,423.6z"/>
	<path class="st4" d="M429.6,506.5c22.2,0,44.5,0,66.7,0c2.2,0,4.4,0.2,6.5,0.8c5.7,1.7,9.5,7.1,9.5,13c0,6-4.1,11.5-9.9,13.2
		c-1.8,0.5-3.8,0.7-5.8,0.7c-44.8,0-89.6,0.1-134.4,0c-10.9,0-17.9-8.4-14.9-17.9c1.8-5.9,6.9-9.6,13.6-9.6c14.5-0.1,29,0,43.6,0
		C412.8,506.5,421.2,506.5,429.6,506.5z"/>
	<path class="st4" d="M678.2,451.3c4.5,0,9-0.1,13.5,0c8,0.2,13.9,6,13.9,13.7c0.1,7.6-5.8,13.8-13.8,13.9c-9.2,0.2-18.4,0.2-27.6,0
		c-7.9-0.2-13.9-6.3-13.9-13.9c0-7.5,6-13.5,14-13.7C669,451.2,673.6,451.3,678.2,451.3z"/>
	<path class="st4" d="M678.1,506.5c4.6,0,9.2-0.1,13.8,0c7.7,0.2,13.5,5.9,13.7,13.2c0.2,7.5-5.2,13.9-12.9,14.2
		c-9.6,0.4-19.3,0.3-28.9,0c-7.8-0.2-13.5-6.6-13.2-14c0.2-7.5,6.1-13.2,13.9-13.5C668.9,506.4,673.5,506.5,678.1,506.5z"/>
	<path class="st4" d="M595.3,451.3c4.5,0,9-0.1,13.5,0c8,0.2,13.9,6,14,13.6c0.1,7.8-5.9,13.9-14,13.9c-9,0.2-17.9,0.2-26.9,0
		c-8.2-0.1-14.2-6.2-14.2-13.9s6.1-13.6,14.2-13.8C586.3,451.2,590.8,451.3,595.3,451.3z"/>
	<path class="st4" d="M595.2,506.5c4.6,0,9.2-0.1,13.9,0c7.7,0.2,13.5,5.9,13.7,13.2c0.2,7.5-5.2,13.9-13,14.2
		c-9.7,0.3-19.4,0.3-29,0c-7.6-0.3-13.2-6.5-13.1-13.9c0.1-7.5,6-13.3,13.8-13.5C585.9,506.4,590.6,506.5,595.2,506.5z"/>
	<path class="st4" d="M539.8,672c-13.7,0-27.4,0.1-41.1,0c-10.2-0.1-16.9-9.9-12.9-19c2.5-5.9,7.4-8.5,13.8-8.5
		c16.5,0,32.9,0,49.4,0c10.6,0,21.2-0.1,31.8,0c8.5,0.1,14.5,6.2,14.3,14.1c-0.2,7.7-6,13.5-14.2,13.5
		C567.2,672,553.5,672,539.8,672z"/>
</g>
</svg>
