<?xml version="1.0" encoding="utf-8"?>
<!-- Generator: Adobe Illustrator 27.0.1, SVG Export Plug-In . SVG Version: 6.00 Build 0)  -->
<svg version="1.1" id="Capa_1" xmlns="http://www.w3.org/2000/svg" xmlns:xlink="http://www.w3.org/1999/xlink" x="0px" y="0px"
	 viewBox="0 0 1080 1080" style="enable-background:new 0 0 1080 1080;" xml:space="preserve">
<style type="text/css">
	.st0{fill:url(#SVGID_1_);}
	.st1{fill:none;stroke:#FFFFFF;stroke-width:3;stroke-miterlimit:10;}
	.st2{display:none;}
	.st3{display:inline;}
	.st4{fill:#FFFFFF;}
	.st5{fill:none;}
	.st6{enable-background:new    ;}
</style>
<g id="Capa_1_00000047746146127166173490000014897892785311581081_">
	
		<linearGradient id="SVGID_1_" gradientUnits="userSpaceOnUse" x1="2.499998e-02" y1="1319.95" x2="1080.075" y2="1319.95" gradientTransform="matrix(1 0 0 1 0 -780)">
		<stop  offset="0" style="stop-color:#E25B19"/>
		<stop  offset="1" style="stop-color:#F6A312"/>
	</linearGradient>
	<path class="st0" d="M793.1,67.8H286.9c-12.1,0-23.3,6.4-29.3,16.9L4.6,523.1c-6.1,10.5-6.1,23.4,0,33.8l253.1,438.3
		c6.1,10.5,17.2,16.9,29.3,16.9h506.1c12.1,0,23.3-6.4,29.3-16.9l253.1-438.3c6.1-10.5,6.1-23.4,0-33.8L822.4,84.8
		C816.4,74.2,805.1,67.8,793.1,67.8z"/>
	<path class="st1" d="M781.6,88.5H299.3c-12.1,0-23.3,6.4-29.3,16.9L28.8,523.1c-6.1,10.5-6.1,23.4,0,33.8l241.1,417.6
		c6.1,10.5,17.2,16.9,29.3,16.9h482.3c12.1,0,23.3-6.4,29.3-16.9l241.1-417.6c6.1-10.5,6.1-23.4,0-33.8l-241-417.6
		C804.8,94.9,793.7,88.5,781.6,88.5z"/>
</g>
<g id="LEASING" class="st2">
	<g class="st3">
		<path class="st4" d="M203,579.5v29.3h-93.4V471.2h35v108.4H203V579.5z"/>
		<path class="st4" d="M254.8,498.7V526h65.7v27.5h-65.7v27.7h74.9v27.5h-110V471.2h107.8v27.5H254.8z"/>
		<path class="st4" d="M383.7,583.5l-10,25.4h-36L397,471.2h36l58,137.7h-37.4l-9.8-25.4H383.7z M414,506l-20.1,50.9h39.7L414,506z"
			/>
		<path class="st4" d="M610.5,484.9l-13.2,27.3c-14.5-8.5-32.8-14.4-44.1-14.4c-9,0-15.1,3.3-15.1,10c0,23.8,72.8,10.2,72.8,60
			c0,27.5-24.4,42.1-55.1,42.1c-23,0-46.6-8.6-62.9-22l13.6-26.9c14.2,12.4,35.4,20.7,49.8,20.7c11,0,17.9-4.1,17.9-12
			c0-24.4-72.8-9.8-72.8-58.6c0-25.4,21.8-41.5,54.9-41.5C576.1,469.6,596.4,475.7,610.5,484.9z"/>
		<path class="st4" d="M630.1,608.8V471.2h35v137.7h-35V608.8z"/>
		<path class="st4" d="M788.8,608.8L725.5,524v84.8h-32.8V471.2h30.9l63.5,85v-85h32.7v137.7h-31L788.8,608.8L788.8,608.8z"/>
		<path class="st4" d="M969.1,538.8v53.7c-14.8,10.4-38,17.9-57.2,17.9c-41.9,0-73.6-30.3-73.6-70.4c0-39.9,32.4-70,75.9-70
			c20.5,0,42.1,7.9,56.3,20.5l-19.7,23.8c-10-9.2-24-14.9-36.8-14.9c-22.6,0-39.9,17.7-39.9,40.7c0,23.4,17.5,41.1,40.3,41.1
			c7.1,0,16.1-2.6,24.4-6.7v-35.6L969.1,538.8L969.1,538.8z"/>
	</g>
</g>
<g id="VENTAS" class="st2">
	<g class="st3">
		<path class="st4" d="M172.3,612.3L116.2,468h39.2l36.9,106.2L229.2,468h37.7l-56.7,144.3H172.3z"/>
		<path class="st4" d="M317.9,496.9v28.6h68.8v28.9h-68.8v29.1h78.5v28.9H281.2V468.1h113V497h-76.3L317.9,496.9L317.9,496.9z"/>
		<path class="st4" d="M521,612.3l-66.4-88.8v88.8h-34.4V468.1h32.4l66.6,89v-89h34.2v144.3L521,612.3L521,612.3z"/>
		<path class="st4" d="M649.1,497.5v114.8h-36.7V497.5h-43.1v-29.7h123.3v29.7H649.1z"/>
		<path class="st4" d="M725.6,585.8l-10.5,26.6h-37.7l62.2-144.3h37.7l60.8,144.3H799l-10.3-26.6H725.6z M757.4,504.5l-21,53.4H778
			L757.4,504.5z"/>
		<path class="st4" d="M963.4,482.5l-13.8,28.6c-15.2-8.9-34.4-15-46.2-15c-9.5,0-15.9,3.5-15.9,10.5c0,24.9,76.3,10.7,76.3,62.9
			c0,28.9-25.6,44.1-57.7,44.1c-24.1,0-48.9-9.1-66-23.1l14.2-28.2c14.8,13,37.1,21.6,52.2,21.6c11.5,0,18.8-4.3,18.8-12.6
			c0-25.6-76.3-10.3-76.3-61.4c0-26.6,22.9-43.5,57.5-43.5C927.3,466.4,948.5,472.8,963.4,482.5z"/>
	</g>
</g>
<g id="Capa_5">
</g>
<g id="Capa_6">
</g>
<g id="Capa_7">
</g>
<rect x="246.6" y="765.7" class="st5" width="586.8" height="196.8"/>
<g>
	<g class="st6">
		<path class="st4" d="M276.5,846.9L258,799.3h13l12.2,35l12.2-35h12.4L289,846.9H276.5z"/>
		<path class="st4" d="M312.4,846.9v-47.6h12.1v47.6H312.4z"/>
		<path class="st4" d="M354.5,799.3c15,0,25.3,9.7,25.3,23.8s-10.5,23.8-25.8,23.8h-20v-47.6H354.5z M346.2,837.3h8.6
			c7.4,0,12.7-5.7,12.7-14.1c0-8.4-5.6-14.2-13.3-14.2h-8.1L346.2,837.3L346.2,837.3z"/>
		<path class="st4" d="M398.3,808.8v9.5H421v9.5h-22.7v9.6h25.9v9.5h-38v-47.6h37.3v9.5H398.3z"/>
		<path class="st4" d="M480.4,823c0,13.9-11,24.4-25.8,24.4c-14.7,0-25.7-10.5-25.7-24.4s11-24.1,25.7-24.1
			C469.4,798.9,480.4,809.2,480.4,823z M441.3,823.1c0,8,6.2,14.2,13.5,14.2s13.2-6.2,13.2-14.2s-5.8-14.1-13.2-14.1
			C447.4,809,441.3,815.1,441.3,823.1z"/>
		<path class="st4" d="M507.5,799.3c12.2,0,19.2,6,19.2,16.6c0,11.2-7,17.6-19.2,17.6h-8.6v13.4h-12.1v-47.6H507.5z M498.9,824h8
			c5.3,0,8.4-2.7,8.4-7.7s-3.1-7.5-8.4-7.5h-8V824z"/>
		<path class="st4" d="M581.4,823c0,13.9-11,24.4-25.8,24.4c-14.7,0-25.7-10.5-25.7-24.4s11-24.1,25.7-24.1
			C570.4,798.9,581.4,809.2,581.4,823z M542.3,823.1c0,8,6.2,14.2,13.5,14.2s13.2-6.2,13.2-14.2s-5.8-14.1-13.2-14.1
			C548.4,809,542.3,815.1,542.3,823.1z"/>
		<path class="st4" d="M609.4,833.5h-0.3h-9.2v13.4h-12.1v-47.6h21.3c12.6,0,19.8,6,19.8,16.6c0,7.3-3.1,12.5-8.6,15.3l10,15.7
			h-13.7L609.4,833.5z M609.1,824c5.2,0,8.3-2.7,8.3-7.7s-3.1-7.5-8.3-7.5h-9.2V824H609.1z"/>
		<path class="st4" d="M659,809v37.9h-12.1V809h-14.2v-9.8h40.7v9.8H659z"/>
		<path class="st4" d="M690.7,808.8v9.5h22.7v9.5h-22.7v9.6h25.9v9.5h-38v-47.6h37.3v9.5H690.7z"/>
		<path class="st4" d="M746,833.5h-0.3h-9.2v13.4h-12.1v-47.6h21.3c12.6,0,19.8,6,19.8,16.6c0,7.3-3.1,12.5-8.6,15.3l10,15.7h-13.7
			L746,833.5z M745.7,824c5.2,0,8.3-2.7,8.3-7.7s-3.1-7.5-8.3-7.5h-9.2V824H745.7z"/>
		<path class="st4" d="M822,823c0,13.9-11,24.4-25.8,24.4c-14.7,0-25.7-10.5-25.7-24.4s11-24.1,25.7-24.1S822,809.2,822,823z
			 M782.9,823.1c0,8,6.2,14.2,13.5,14.2s13.2-6.2,13.2-14.2s-5.8-14.1-13.2-14.1S782.9,815.1,782.9,823.1z"/>
	</g>
	<g class="st6">
		<path class="st4" d="M403.8,928.5v-47.6h12.1v47.6H403.8z"/>
		<path class="st4" d="M458.7,928.5l-21.9-29.3v29.3h-11.4v-47.6h10.7l22,29.4v-29.4h11.3v47.6H458.7z"/>
		<path class="st4" d="M500.9,890.6v37.9h-12.1v-37.9h-14.2v-9.8h40.7v9.8H500.9z"/>
		<path class="st4" d="M532.5,890.4v9.5h22.7v9.5h-22.7v9.6h25.9v9.5h-38v-47.6h37.3v9.5H532.5z"/>
		<path class="st4" d="M587.9,915.1h-0.3h-9.2v13.4h-12.1v-47.6h21.3c12.6,0,19.8,6,19.8,16.6c0,7.3-3.1,12.5-8.6,15.3l10,15.7
			h-13.7L587.9,915.1z M587.5,905.6c5.2,0,8.3-2.7,8.3-7.7s-3.1-7.5-8.3-7.5h-9.2v15.2H587.5z"/>
		<path class="st4" d="M627.6,890.4v11h21.3v9.5h-21.3v17.5h-12.1v-47.6h35.3v9.5L627.6,890.4L627.6,890.4z"/>
		<path class="st4" d="M704.9,904.6c0,13.9-11,24.4-25.8,24.4c-14.7,0-25.7-10.5-25.7-24.4s11-24.1,25.7-24.1
			C693.9,880.5,704.9,890.8,704.9,904.6z M665.8,904.7c0,8,6.2,14.2,13.5,14.2s13.2-6.2,13.2-14.2s-5.8-14.1-13.2-14.1
			C671.9,890.6,665.8,896.7,665.8,904.7z"/>
		<path class="st4" d="M744.5,928.5l-21.9-29.3v29.3h-11.4v-47.6H722l22,29.4v-29.4h11.3v47.6H744.5z"/>
		<g>
			<path class="st4" d="M351,937.2l22.8-65.2H384l-22.8,65.2H351z"/>
		</g>
	</g>
</g>
<g>
	<path class="st4" d="M556.7,692.4c0,4.2,0,8.3,0,12.3c0,15.7-8.3,24-23.9,24c-48.9,0.1-97.8,0.1-146.7,0c-14.4,0-28.9,0.5-43.2-0.6
		c-35.3-2.5-59.9-21.1-73.5-53.3c-6.1-14.4-10.4-29.6-14.5-44.7c-5.8-20.8-10.7-42-15.8-63c-1.9-7.9,0.5-14.8,6.5-20
		c11.7-10.1,28.6-5,33.5,10c3,8.9,5.2,18.1,8,27.2c1.8,6,3.7,12,6,17.8c0.8,2,3.1,3.3,4.7,5c1.3-2,3.1-3.9,3.8-6.1
		c0.9-3,1.3-6.1,1.3-9.2c0.1-48.5,0.1-97.1,0-145.5c0-20.5,13.1-30,32.7-23.3c0.3,0.1,0.8,0,1.6,0c0.8-8.2,2.2-16.4,9.9-21
		c4-2.3,8.9-4.1,13.5-4.1c12.6,0.1,18.3,7.1,21.7,25.4c1.1-0.3,2.1-0.5,3.1-0.9c16.6-6.1,31.1,3.7,31.4,21.4
		c0.2,10.4,0,20.8,0.1,31.1c0,1.4,0.2,2.9,0.4,4.8c1.7-0.5,3.1-0.9,4.5-1.4c15.6-5.1,29.7,4.8,29.7,21.4c0.2,29.1,0,58.1,0,87.2
		c0,20.4,0.1,40.8,0,61.1c-0.1,29.2-12.5,52-36.7,68.3c-0.6,0.4-1.2,0.8-1.8,1.3c-0.2,0.1-0.2,0.3-0.6,1.3c1.7,0.2,3.1,0.5,4.5,0.5
		c39.1,0,78.1,0.1,117.2,0c8.6,0,13.3-4.6,13.8-13.3c0.2-2.6,0.1-5.2,0.1-7.8c0-165.4,0-330.7,0-496.1c0-1.5,0-3,0-4.5
		c-0.2-11.1-4.5-15.5-15.6-15.5c-64.5,0-128.9,0-193.3,0c-11.6,0-15.5,3.9-15.5,15.8c0,66.3,0,132.6,0,198.9c0,3.9,1.1,9.5-4.8,9.4
		c-6,0-4.5-5.7-4.5-9.5c-0.1-66.1-0.1-132.2,0-198.3c0-17.8,8.2-25.5,25.9-25.5c64.2,0.1,128.5,0.1,192.7-0.2
		c16.1-0.1,24.8,11.1,24.2,23.9c-0.8,18.1-0.2,36.3-0.2,54.4c0,1.6,0.2,3.2,0.4,5.7c15.8-8.8,32.3-5.9,48.4-6
		c60.4-0.2,120.8,0,181.1-0.2c15,0,27.6,4.6,36.8,16.9c5.5,7.3,8,15.7,8,24.9c0,131.1,0,262.2-0.1,393.3c0,24.8-17.2,42.6-42.2,42.7
		c-68.9,0.2-137.7,0.1-206.7,0.1c-1.6,0-3.6,0-4.8-0.9c-1.4-1.1-2.7-3.2-2.7-4.8c0.1-1.2,2.1-2.9,3.6-3.4c1.7-0.6,3.6-0.2,5.5-0.2
		c68.3,0,136.7,0,205,0c15,0,27.3-8.9,31.5-22.6c0.4-1.2,0.5-2.5,0.8-4.4C733.3,692.4,645.5,692.4,556.7,692.4z M615.2,476.8
		c-2.2-0.3-4.3-0.5-6.4-0.9c-13-2-21.1-11.2-18.8-24c1.4-7.5-0.3-13.7-1.9-20.4c-0.7-3-1.3-6.1-1.6-9.3c-2.1-23.8,10.8-45.5,34-50.2
		c1.7-0.3,3.6-2.4,4.2-4.2c3.9-11.1,11.4-18.5,22-23c15.2-6.4,31.2-8,47.4-4.8c44.8,8.7,72.4,55.5,58.9,99.2
		c-0.7,2.3-1.1,5.2-0.5,7.4c4.2,16.1-3.5,27.7-19.9,29.5c-4,0.4-5.2,1.7-5.5,5.7c-1.1,14.8-7.8,27.2-20.6,34.2
		c-8.2,4.5-9.8,9.8-8.8,17.7c0.2,0.9,0.1,1.9,0,2.8c-0.4,3.3,1.3,4.1,4.2,4.1c9.6-0.2,19.2-0.2,28.9,0c21.1,0.4,37.8,9.2,50.2,26.1
		c8.4,11.5,11.3,24.8,11.3,38.8c0.1,24.1,0.1,48.2-0.1,72.2c0,4,0.9,5.7,5.2,5.4c6.1-0.4,12.3-0.4,18.3,0c4.9,0.3,6.2-1.3,6.2-6.2
		c-0.2-126.1-0.2-252.2,0-378.4c0-4.9-1.4-6.2-6.3-6.2c-84.2,0.2-168.5,0.2-252.8,0c-4.8,0-6.4,1.1-6.4,6.1
		c0.2,126.3,0.2,252.6,0.1,378.9c0,4.2,0.9,5.8,5.5,5.8c33-0.2,65.9-0.2,98.9,0c4.6,0,6.1-1.4,6.1-6c-0.2-18.3-0.2-36.7,0-55
		c0.1-4.5-1.3-7.4-4.8-10.4c-19.5-16.1-36-34.6-44.8-58.9c-0.5-1.4-3.3-2.7-5-2.8c-12.8-0.4-23.9,4.2-33.7,12.1
		c-2.6,2-5.4,4.2-8.1,0.8c-2.9-3.6-0.5-6.5,2.6-8.2c7.5-4.2,14.8-9.9,23-11.6c11.8-2.4,24.2-2.2,36.4-2.6c12.8-0.4,12.6-0.1,13-12.8
		c0.2-4.6-1.1-7.2-5.5-9.5c-12-6.1-19.7-16.1-22.9-29.2C616.2,485.1,615.8,481,615.2,476.8z M441.8,576.9c0-25.4,0-50.8,0-76.1
		c0-8.9-5.4-15-12.9-14.8c-7.3,0.2-12.3,6.1-12.3,14.9c0,17.8,0,35.5,0,53.3c0,1.8,0.2,3.9-0.7,5.4c-0.9,1.5-3.1,3.6-4.3,3.3
		c-1.7-0.4-3.3-2.4-4.2-4.2c-0.7-1.3-0.2-3.3-0.2-4.9c0-35.8,0-71.4,0-107.2c0-1.8,0.1-3.7-0.2-5.5c-0.9-6.4-5.8-11-11.8-11.4
		c-6.6-0.4-11.7,3.6-13.2,10.2c-0.5,2.5-0.7,5.2-0.7,7.7c-0.1,35.5,0,71.1,0,106.7c0,1.7,0.5,3.6-0.2,4.9c-0.8,1.6-2.7,3.8-3.9,3.6
		c-1.7-0.2-3.5-2.1-4.4-3.7c-0.8-1.3-0.2-3.3-0.2-4.9c0-43,0-85.9,0-128.9c0-2.7-0.1-5.6-0.7-8.3c-1.4-6.1-6.5-10.2-12.2-10.2
		s-11.1,4.2-12.5,10c-0.5,2.1-0.4,4.4-0.4,6.6c0,44.1,0,88.1,0,132.2c0,3.6-0.1,7.3-4.5,7.3s-4.8-3.9-4.8-7.3c0-0.9,0-1.8,0-2.8
		c0-22.2,0-44.5,0-66.7c0-14.6,0.1-29.2-0.1-43.9c-0.1-8.2-6.4-13.5-14.2-12.6c-7,0.8-10.9,6.1-10.9,14.8c0,48.5,0.2,97.1-0.2,145.5
		c0,6.4-1.4,12.9-3.6,18.9c-3.1,8.9-14.4,10.5-20.1,2.9c-3-4-5.4-8.9-6.9-13.7c-3.9-12.1-7.2-24.5-10.8-36.7
		c-2.3-7.7-7.9-11.6-14.2-10c-6.8,1.7-9.8,7.9-7.9,15.9c3.7,15.1,7.6,30.2,11.3,45.2c5.4,21.9,9.8,44.1,20.5,64.3
		c11,20.8,27.2,35.5,50.4,39.9c14.4,2.7,29.5,2.7,44.2,2.3c37-1,67-32.6,66.9-69.5C441.8,625.5,441.8,601.2,441.8,576.9z
		 M729.1,682.9c16.1,0,32.2-0.2,48.3,0.1c4.1,0.1,5.5-1.1,5.5-5.4c-0.2-25.4,0.2-50.8-0.2-76.1c-0.4-28.6-24.2-52.2-51.7-51.9
		c-3.6,0.1-5.2,1.1-6.3,4.5c-1.4,4.4-3.4,8.6-5.6,12.7c-9.7,18.1-23.5,32.7-39.1,45.7c-2,1.7-3.8,4.8-3.9,7.2
		c-0.3,19.2-0.1,38.5-0.2,57.8c0,3.9,1.1,5.5,5.4,5.5C697.3,682.7,713.2,682.8,729.1,682.9z M648.6,404.2c-0.6,1-1.1,1.4-1.2,1.9
		c-2.1,13.6-9.3,23.9-19.9,32.2c-1.5,1.2-2.4,4.1-2.5,6.1c-0.2,10.9-0.2,21.8-0.2,32.7c0.1,21.1,16.4,37.3,37.4,37.4
		c5.9,0,11.8,0,17.8,0c21.7-0.1,38-16.2,38-37.9c0.1-16.8,0-33.7,0-50.5c0-2-0.2-3.9-0.4-6.6C692.1,424.7,669.9,416.2,648.6,404.2z
		 M743.9,435c0.4-0.9,0.8-1.9,1.1-2.9c6.2-27.9-2.7-51.1-23.8-69.2c-20.8-17.8-45-19-70-9.9c-9.8,3.6-16.8,10.4-18.5,21.1
		c-0.7,4.7-2.7,6.3-7,6.7c-26.9,2.3-36.4,33.2-26.7,53.9c6.2-0.7,12.2-1.3,18.2-2c1.4-0.2,3-0.6,4.1-1.4c10.9-8.3,17.9-18.6,17-33
		c-0.2-2.4,0.5-6.3,2.1-7.1c1.7-0.9,5.2,0.5,7.5,1.6c9.6,4.7,18.8,10.5,28.7,14.4c16.4,6.4,33.2,7.3,49.6-0.5c3-1.4,6.2-2.7,8.1,1.2
		c1.8,3.8-1,5.6-4,7.2c-3,1.7-4.8,14.9-2.3,17.1c0.5,0.5,1.4,0.5,2,0.7C734.5,433.4,738.9,434.2,743.9,435z M820.2,282.9
		c-4.4-13.9-16.3-22.7-30.5-22.7c-70.2-0.1-140.3-0.2-210.5,0.3c-6.6,0.1-13.4,3.6-19.5,6.6c-5.7,2.8-2.7,8.9-2.7,13.6
		c0,0.7,4.8,2,7.3,2c82.7,0.1,165.5,0.1,248.2,0.1C814.9,282.9,817.3,282.9,820.2,282.9z M626.8,549.6c0.5,2.1,0.6,3.3,1.1,4.2
		c9,20.9,23.5,37.4,41.3,51.2c1.1,0.8,4.2,0.5,5.5-0.5c14.1-11.4,26.3-24.3,35.2-40.2c2.4-4.4,4.3-9.1,6.9-14.6
		c-6.7,0-12-0.2-17.3,0.2c-1.3,0.1-3,1.4-3.6,2.6c-10.2,16.5-38.2,16.5-48.6,0.1c-0.7-1.1-2-2.6-3-2.7
		C638.6,549.6,633.2,549.6,626.8,549.6z M688.1,523.7c-10.6,0-20.6-0.1-30.5,0.2c-1,0-2.7,2.3-2.7,3.6c-0.3,5.4-0.2,10.8-0.1,16.1
		c0.2,7.1,5.1,10.9,14.8,11.7c9.5,0.8,18-3.3,18.5-9.5C688.6,538.7,688.1,531.5,688.1,523.7z M727.1,454.3
		C727.1,454.3,727.2,454.3,727.1,454.3c0.1,3.1-0.3,6.3,0.2,9.4c0.2,1.2,2,3,3.3,3.2c6.4,0.8,12.3-3.9,13.4-10.5
		c1.1-5.8-2.7-11.9-8.6-13.7c-6.4-2-8.3-0.6-8.3,6.1C727.1,450.6,727.1,452.4,727.1,454.3z M615.8,454.7L615.8,454.7
		c0-2.8-0.2-5.5,0-8.3c0.2-3.5-1.4-4.5-4.7-4.3c-6.5,0.3-11.7,4.8-12.6,11.1c-0.8,5.5,3.2,11.2,9,13c6.7,2.1,8.3,1.1,8.3-6.1
		C615.8,458.4,615.8,456.5,615.8,454.7z"/>
	<path class="st4" d="M438.8,332.7c-35.2-0.5-62.4-26.9-62.7-62.4c-0.2-34.3,28-62,61.8-62c34.2,0.1,62.6,27.5,62.5,60.6
		C500.5,304.7,473.4,332.7,438.8,332.7z M438.9,217.7c-29.8-0.1-53.6,23.4-53.6,52.9c0,28.9,24,52.7,53.3,52.9
		c28.3,0.2,52.7-24.2,52.7-52.9C491.5,241.6,467.8,217.7,438.9,217.7z"/>
	<path class="st4" d="M524.2,469.5c-0.3,21-5.2,39.2-17.8,54.9c-0.8,1-1.5,2.5-2.6,2.9c-2.3,0.8-5.5,2-7.3,1c-3-1.7-1.5-4.5,0.2-7.1
		c4.2-6.2,9.3-12.3,11.9-19.2c10.7-28.9,8.7-56.6-11.4-81.4c-2-2.5-3.8-5-0.9-7.7c3.1-3,5.8-0.9,8,1.7
		C518.6,430.6,523.9,449.7,524.2,469.5z"/>
	<path class="st4" d="M226.7,476.8c0.1-26.1,5.1-44.5,17.9-60.3c1.1-1.4,2.3-3.2,3.9-3.9c1.6-0.7,4.6-1,5.5-0.1
		c1.1,1.3,1.1,3.9,1.1,5.9c0,0.9-1.2,1.7-2,2.7c-22.7,26.5-23.1,71.1-0.8,98c0.7,0.8,1.9,1.7,2,2.6c0.3,2.1,0.1,4.3,0.2,6.5
		c-2.3-0.2-5.8,0.5-6.7-0.8c-5.1-7-10.4-13.9-14.1-21.7C228.2,494.9,226.5,483,226.7,476.8z"/>
	<path class="st4" d="M494.4,466.8c0.1,18.5-4,31.9-13.2,43.5c-0.5,0.6-0.9,1.2-1.4,1.7c-2.3,2.4-4.9,5.4-8.3,2.3
		c-3.1-2.8-0.5-5.5,1.1-8.3c4-7.3,9-14.6,11.1-22.6c4.5-17.8,0.8-34.5-11.3-48.7c-2.1-2.5-3.6-5.2-0.8-7.7c3-2.7,5.7-0.8,8,1.8
		C490,440.7,494.2,454.9,494.4,466.8z"/>
	<path class="st4" d="M256.5,470.9c-0.1-16.2,4.5-30.2,14.8-42c2.3-2.7,5.1-4.5,8-2c3.3,2.7,1.1,5.5-1,8.1
		c-17.3,21.1-17.2,50.3,0.3,71.4c2,2.5,3.7,5.2,1,7.8c-3.1,3-5.8,1-8-1.6C260.9,500.5,256.4,486.2,256.5,470.9z"/>
	<path class="st4" d="M438.3,295.8c-14,0-25.2-11.2-25.5-25.3c-0.2-13.6,11.6-25.5,25.4-25.5c13.9-0.2,26.1,12,25.8,25.8
		C463.9,284.6,452.4,295.7,438.3,295.8z M438.1,286.4c8.9,0.2,16.4-6.9,16.6-15.8c0.2-8.3-7.1-16.1-15.6-16.4
		c-8.6-0.4-16.5,6.9-16.9,15.7C421.8,278.8,428.9,286.2,438.1,286.4z"/>
</g>
</svg>
